<?xml version="1.0" encoding="UTF-8"?>
<svg width="23px" height="23px" viewBox="0 0 23 23" version="1.1" xmlns="http://www.w3.org/2000/svg" xmlns:xlink="http://www.w3.org/1999/xlink">
    <!-- Generator: Sketch 43.2 (39069) - http://www.bohemiancoding.com/sketch -->
    <title>Fill 3</title>
    <desc>Created with Sketch.</desc>
    <defs></defs>
    <g id="Desktop" stroke="none" stroke-width="1" fill="none" fill-rule="evenodd" opacity="0.383661685">
        <g id="PSP-ChaikinInsights-Grid" transform="translate(-1158.000000, -8.000000)" fill="#FFFFFF">
            <path d="M1169.09985,24.428283 C1166.35007,24.428283 1164.18449,22.0813854 1164.18449,19.3347979 C1164.18449,16.6292042 1166.35007,14.3745428 1169.09985,14.3745428 C1171.74891,14.3745428 1173.92457,16.6292042 1173.92457,19.3347979 C1173.92457,22.0813854 1171.74891,24.428283 1169.09985,24.428283 M1179.1421,16.9879003 L1176.97652,16.5472165 C1176.84558,16.1885203 1176.84558,15.8810665 1176.66428,15.6658488 L1177.93341,13.8518712 C1178.32623,13.134479 1178.14493,12.468329 1177.71181,12.0276452 L1176.3621,10.5723637 C1176.15058,10.3468976 1175.79804,10.2649099 1175.31457,10.2649099 C1175.10304,10.2649099 1174.84116,10.3468976 1174.57928,10.5211214 L1172.79645,11.7201913 C1172.53457,11.5049737 1172.23239,11.3205014 1172.0108,11.3205014 L1171.48703,9.15807609 C1171.3158,8.62515612 1170.79203,8 1170.04667,8 L1168.18326,8 C1167.52855,8 1167.00478,8.62515612 1166.79326,9.15807609 L1166.35007,11.3205014 C1166.0479,11.3205014 1165.74572,11.5049737 1165.52413,11.7201913 L1163.66072,10.5211214 C1163.52978,10.3468976 1163.13696,10.2649099 1162.91536,10.2649099 C1162.5729,10.2649099 1162.18007,10.3468976 1161.95848,10.5723637 L1160.52819,12.0276452 C1160.085,12.468329 1160.04471,13.134479 1160.38717,13.8518712 L1161.56565,15.6658488 C1161.52536,15.8810665 1161.34406,16.1885203 1161.22319,16.5472165 L1159.04754,16.9879003 C1158.48348,17.0801365 1158,17.7872803 1158,18.3611941 L1158,20.2674078 C1158,21.0155455 1158.48348,21.6407016 1159.04754,21.6816955 L1161.22319,22.1736216 C1161.34406,22.4400816 1161.52536,22.7475354 1161.56565,23.0549892 L1160.38717,24.961203 C1160.04471,25.4018868 1160.085,26.1500245 1160.52819,26.6009567 L1161.95848,27.9640021 C1162.18007,28.363692 1162.5729,28.4149343 1162.91536,28.4149343 C1163.13696,28.4149343 1163.52978,28.4149343 1163.66072,28.1894682 L1165.52413,27.0006467 C1165.74572,27.1236283 1166.0479,27.2158644 1166.35007,27.4310821 L1166.79326,29.562762 C1167.00478,30.2289119 1167.52855,30.7105896 1168.18326,30.7105896 L1170.04667,30.7105896 C1170.79203,30.7105896 1171.3158,30.2289119 1171.48703,29.562762 L1172.0108,27.4310821 C1172.23239,27.2158644 1172.53457,27.1236283 1172.79645,27.0006467 L1174.57928,28.1894682 C1174.84116,28.4149343 1175.10304,28.4149343 1175.31457,28.4149343 C1175.79804,28.4149343 1176.15058,28.363692 1176.3621,27.9640021 L1177.71181,26.6009567 C1178.14493,26.1500245 1178.32623,25.4018868 1177.93341,24.961203 L1176.66428,23.0549892 C1176.84558,22.7475354 1176.84558,22.4400816 1176.97652,22.1736216 L1179.1421,21.6816955 C1179.79681,21.6407016 1180.24,21.0155455 1180.24,20.2674078 L1180.24,18.3611941 C1180.24,17.7872803 1179.79681,17.0801365 1179.1421,16.9879003" id="Fill-3"></path>
        </g>
    </g>
</svg>