<?xml version="1.0" encoding="UTF-8"?>
<svg width="24px" height="22px" viewBox="0 0 24 22" version="1.1" xmlns="http://www.w3.org/2000/svg" xmlns:xlink="http://www.w3.org/1999/xlink">
    <!-- Generator: Sketch 43.2 (39069) - http://www.bohemiancoding.com/sketch -->
    <title></title>
    <desc>Created with Sketch.</desc>
    <defs></defs>
    <g id="Stock-Summary" stroke="none" stroke-width="1" fill="none" fill-rule="evenodd">
        <g id="PSP-ChaikinInsights-Grid" transform="translate(-849.000000, -109.000000)" fill="#FFFFFF">
            <g id="Group-10" transform="translate(831.000000, 100.000000)">
                <path d="M42.0000286,23.4285648 C42.0000286,21.928563 41.852707,20.3883826 41.2902063,18.968738 C39.428597,14.3481968 33.9643047,13.5714102 29.5714424,13.5714102 L26.5714388,13.5714102 L26.5714388,10.1428347 C26.5714388,9.6740841 26.1830455,9.28569078 25.7142949,9.28569078 C25.4866161,9.28569078 25.2723301,9.3794409 25.1116156,9.54015537 L18.2544646,16.3973064 C18.0937501,16.5580209 18,16.7723069 18,16.9999857 C18,17.2276645 18.0937501,17.4419505 18.2544646,17.602665 L25.1116156,24.459816 C25.2723301,24.6205305 25.4866161,24.7142806 25.7142949,24.7142806 C26.1830455,24.7142806 26.5714388,24.3258873 26.5714388,23.8571367 L26.5714388,20.4285612 L29.5714424,20.4285612 C35.3437707,20.4285612 39.1339538,21.5401697 39.1339538,27.9285702 C39.1339538,28.4776779 39.107168,29.0267857 39.0669894,29.5758935 C39.0535965,29.7901795 39.000025,30.0312512 39.000025,30.2455372 C39.000025,30.5000018 39.1607395,30.7142878 39.428597,30.7142878 C39.6160972,30.7142878 39.7098473,30.6205376 39.8035974,30.4866089 C40.0044905,30.2053586 40.1518121,29.7767866 40.2991337,29.4687506 C41.0625275,27.7544628 42.0000286,25.303567 42.0000286,23.4285648 Z" id=""></path>
            </g>
        </g>
    </g>
</svg>