<?xml version="1.0" encoding="UTF-8"?>
<svg width="30px" height="31px" viewBox="0 0 30 31" version="1.1" xmlns="http://www.w3.org/2000/svg" xmlns:xlink="http://www.w3.org/1999/xlink">
    <!-- Generator: Sketch 44 (41411) - http://www.bohemiancoding.com/sketch -->
    <title></title>
    <desc>Created with Sketch.</desc>
    <defs></defs>
    <g id="Chaikin-Insights" stroke="none" stroke-width="1" fill="none" fill-rule="evenodd">
        <g id="PSP-ChaikinInsights-Header_Premarket-Copy-2" transform="translate(-23.000000, -53.000000)" fill="#FFFFFF">
            <path d="M48.0047431,76.2620264 C47.2914541,76.3809079 46.5583515,76.4403487 45.8252489,76.4403487 C38.4744092,76.4403487 32.5105204,70.4764599 32.5105204,63.1256202 C32.5105204,60.609295 33.243623,58.1524106 34.5711331,56.0521707 C29.3007197,57.6174438 25.5361388,62.4519583 25.5361388,68.1978977 C25.5361388,75.1920929 31.2226374,80.8785915 38.2168326,80.8785915 C42.0408543,80.8785915 45.627113,79.1349961 48.0047431,76.2620264 Z M52.0269007,74.5778718 C49.5502027,79.9473531 44.1212806,83.4147303 38.2168326,83.4147303 C29.8356865,83.4147303 23,76.5790438 23,68.1978977 C23,59.9752603 29.4394148,53.2980825 37.6422386,53.0008787 C38.197019,52.9810651 38.6527314,53.2980825 38.8508673,53.7736085 C39.0688167,54.2689481 38.9301216,54.843542 38.5536635,55.2001866 C36.2949149,57.2607993 35.0466591,60.0743282 35.0466591,63.1256202 C35.0466591,69.0696954 39.8811736,73.9042099 45.8252489,73.9042099 C47.390522,73.9042099 48.8963544,73.567379 50.342746,72.8937171 C50.8380856,72.6757677 51.392866,72.7748356 51.7693241,73.1512937 C52.1457822,73.5277518 52.2448501,74.1023458 52.0269007,74.5778718 Z" id=""></path>
        </g>
    </g>
</svg>