<?xml version="1.0" encoding="UTF-8"?>
<svg width="40px" height="28px" viewBox="0 0 40 28" version="1.1" xmlns="http://www.w3.org/2000/svg" xmlns:xlink="http://www.w3.org/1999/xlink">
    <!-- Generator: Sketch 44 (41411) - http://www.bohemiancoding.com/sketch -->
    <title></title>
    <desc>Created with Sketch.</desc>
    <defs></defs>
    <g id="Chaikin-Insights" stroke="none" stroke-width="1" fill="none" fill-rule="evenodd">
        <g id="PSP-ChaikinInsights-Header_Evening" transform="translate(-17.000000, -56.000000)" fill-rule="nonzero" fill="#FFFFFF">
            <path d="M53.4558824,74.7575758 C53.4558824,71.9569129 51.2429151,69.6178977 48.2806756,69.0023674 C48.733724,68.3868371 48.995098,67.663589 48.995098,66.8787879 C48.995098,64.7090436 46.9912301,62.9393939 44.5343137,62.9393939 C43.4191176,62.9393939 42.4084712,63.2933239 41.6417739,63.8934659 C40.3000536,61.0158617 37.1112898,59 33.3823529,59 C28.4510953,59 24.4607843,62.523911 24.4607843,66.8787879 C24.4607843,67.0942235 24.4782093,67.3250473 24.4956342,67.540483 C21.8470435,68.6330492 20,71.0182292 20,73.7727273 C20,77.5736269 23.5024127,80.6666667 27.8063725,80.6666667 L46.7647059,80.6666667 C50.4587929,80.6666667 53.4558824,78.0198864 53.4558824,74.7575758 Z M33.3823529,56 C37.096102,56 40.5203119,57.5622911 42.7466926,60.1386547 C43.3248739,60.0070206 43.9244623,59.9393939 44.5343137,59.9393939 C48.5708063,59.9393939 51.995098,62.9634438 51.995098,66.8787879 C51.995098,67.0039207 51.9915132,67.1284788 51.9844017,67.2523705 C54.6766281,68.834567 56.4558824,71.597431 56.4558824,74.7575758 C56.4558824,79.7654861 52.0383691,83.6666667 46.7647059,83.6666667 L27.8063725,83.6666667 C21.9228365,83.6666667 17,79.3192267 17,73.7727273 C17,70.4848623 18.761076,67.5315453 21.52585,65.7272068 C22.156285,60.1875482 27.2872744,56 33.3823529,56 Z" id=""></path>
        </g>
    </g>
</svg>