<?xml version="1.0" encoding="UTF-8"?>
<svg width="44px" height="39px" viewBox="0 0 44 39" version="1.1" xmlns="http://www.w3.org/2000/svg" xmlns:xlink="http://www.w3.org/1999/xlink">
    <!-- Generator: Sketch 44 (41411) - http://www.bohemiancoding.com/sketch -->
    <title>Group 5</title>
    <desc>Created with Sketch.</desc>
    <defs></defs>
    <g id="Chaikin-Insights" stroke="none" stroke-width="1" fill="none" fill-rule="evenodd">
        <g id="PSP-ChaikinInsights-Header_SPY" transform="translate(-15.000000, -49.000000)" fill="#FFFFFF">
            <g id="Group-5" transform="translate(15.000000, 49.000000)">
                <path d="M11.9667969,33.2304688 C11.9667969,34.204432 11.719729,35.0691694 11.2255859,35.824707 C10.7314428,36.5802447 10.0188849,37.1674784 9.08789062,37.5864258 C8.15689639,38.0053732 7.06478491,38.2148438 5.81152344,38.2148438 C4.76594529,38.2148438 3.88867542,38.1414395 3.1796875,37.9946289 C2.47069958,37.8478183 1.73307675,37.5917987 0.966796875,37.2265625 L0.966796875,33.4453125 C1.77604571,33.8606792 2.61750865,34.1847319 3.49121094,34.4174805 C4.36491322,34.650229 5.16698854,34.7666016 5.89746094,34.7666016 C6.52767242,34.7666016 6.98958187,34.6573904 7.28320312,34.4389648 C7.57682438,34.2205393 7.72363281,33.9394548 7.72363281,33.5957031 C7.72363281,33.3808583 7.66455137,33.1928719 7.54638672,33.0317383 C7.42822207,32.8706047 7.23844532,32.7076831 6.97705078,32.5429688 C6.71565625,32.3782544 6.01921139,32.0416692 4.88769531,31.5332031 C3.86360165,31.067706 3.09554292,30.6165386 2.58349609,30.1796875 C2.07144926,29.7428364 1.69189577,29.2415393 1.44482422,28.6757812 C1.19775267,28.1100232 1.07421875,27.4404336 1.07421875,26.6669922 C1.07421875,25.2203704 1.60058067,24.092452 2.65332031,23.2832031 C3.70605995,22.4739543 5.15266007,22.0693359 6.99316406,22.0693359 C8.61882323,22.0693359 10.2766843,22.4453087 11.9667969,23.1972656 L10.6669922,26.4736328 C9.19888589,25.8004524 7.93132044,25.4638672 6.86425781,25.4638672 C6.31282276,25.4638672 5.91178511,25.5605459 5.66113281,25.7539062 C5.41048052,25.9472666 5.28515625,26.187173 5.28515625,26.4736328 C5.28515625,26.7815771 5.4444971,27.0572904 5.76318359,27.3007812 C6.08187008,27.5442721 6.94660753,27.988278 8.35742188,28.6328125 C9.71094427,29.2415395 10.6508763,29.895016 11.1772461,30.5932617 C11.7036159,31.2915074 11.9667969,32.1705676 11.9667969,33.2304688 Z M26.7719922,27.2900391 C26.7719922,29.0446051 26.254582,30.3998976 25.2197461,31.355957 C24.1849102,32.3120165 22.7150356,32.7900391 20.8100781,32.7900391 L19.6176953,32.7900391 L19.6176953,38 L15.3745313,38 L15.3745313,22.2949219 L20.8100781,22.2949219 C22.793812,22.2949219 24.2833805,22.7281858 25.2788281,23.5947266 C26.2742758,24.4612674 26.7719922,25.6930259 26.7719922,27.2900391 Z M19.6176953,29.3310547 L20.3911328,29.3310547 C21.0285058,29.3310547 21.5351739,29.15202 21.9111524,28.7939453 C22.2871308,28.4358706 22.4751172,27.9417349 22.4751172,27.3115234 C22.4751172,26.2516223 21.8878835,25.7216797 20.7133985,25.7216797 L19.6176953,25.7216797 L19.6176953,29.3310547 Z M35.8623438,28.1171875 L38.569375,22.2949219 L43.1670313,22.2949219 L38.0000391,31.8662109 L38.0000391,38 L33.7246485,38 L33.7246485,31.9951172 L28.5576563,22.2949219 L33.1767969,22.2949219 L35.8623438,28.1171875 Z" id="SPY"></path>
                <path d="M34.0575995,11.4910714 C34.2148951,11.1696429 34.1519768,10.8214286 33.9003039,10.5535714 L22.7323193,0.267857143 C22.5435646,0.107142857 22.2604326,0 21.9773006,0 C21.6941686,0 21.4424957,0.107142857 21.253741,0.267857143 L10.2430519,10.5535714 C9.99137904,10.8214286 9.92846082,11.1696429 10.0857564,11.4910714 C10.2430519,11.8125 10.5891022,12 10.9980706,12 L16.8772809,12 L27.266075,12 L33.1452853,12 C33.5542537,12 33.9003039,11.7857143 34.0575995,11.4910714 Z" id=""></path>
            </g>
        </g>
    </g>
</svg>