<?xml version="1.0" encoding="UTF-8"?>
<svg width="25px" height="20px" viewBox="0 0 25 20" version="1.1" xmlns="http://www.w3.org/2000/svg" xmlns:xlink="http://www.w3.org/1999/xlink">
    <!-- Generator: Sketch 43.2 (39069) - http://www.bohemiancoding.com/sketch -->
    <title></title>
    <desc>Created with Sketch.</desc>
    <defs></defs>
    <g id="Stock-Summary" stroke="none" stroke-width="1" fill="none" fill-rule="evenodd">
        <g id="PSP-StockSummary-Financials" transform="translate(-25.000000, -109.000000)" fill="#FFFFFF">
            <path d="M30.1628633,121.857137 C30.1628633,120.906243 29.3994695,120.142849 28.4485755,120.142849 C27.4976815,120.142849 26.7342878,120.906243 26.7342878,121.857137 C26.7342878,122.808031 27.4976815,123.571424 28.4485755,123.571424 C29.3994695,123.571424 30.1628633,122.808031 30.1628633,121.857137 Z M32.7342949,115.85713 C32.7342949,114.906236 31.9709011,114.142842 31.0200072,114.142842 C30.0691132,114.142842 29.3057194,114.906236 29.3057194,115.85713 C29.3057194,116.808024 30.0691132,117.571417 31.0200072,117.571417 C31.9709011,117.571417 32.7342949,116.808024 32.7342949,115.85713 Z M38.4664446,122.299102 L39.8191248,117.183024 C39.9262678,116.727666 39.6584103,116.258916 39.2030526,116.13838 C38.7476949,116.017844 38.2789444,116.299094 38.1584085,116.754452 L36.8057283,121.87053 C35.7476914,121.950887 34.8235831,122.687495 34.5289399,123.772318 C34.1673323,125.151784 34.9976905,126.558035 36.3637635,126.919643 C37.7432295,127.28125 39.1494811,126.450892 39.5110887,125.084819 C39.792339,123.999996 39.3369814,122.901781 38.4664446,122.299102 Z M47.3057409,121.857137 C47.3057409,120.906243 46.5423471,120.142849 45.5914531,120.142849 C44.6405591,120.142849 43.8771653,120.906243 43.8771653,121.857137 C43.8771653,122.808031 44.6405591,123.571424 45.5914531,123.571424 C46.5423471,123.571424 47.3057409,122.808031 47.3057409,121.857137 Z M38.7343021,113.285698 C38.7343021,112.334804 37.9709083,111.57141 37.0200143,111.57141 C36.0691203,111.57141 35.3057265,112.334804 35.3057265,113.285698 C35.3057265,114.236592 36.0691203,114.999986 37.0200143,114.999986 C37.9709083,114.999986 38.7343021,114.236592 38.7343021,113.285698 Z M44.7343092,115.85713 C44.7343092,114.906236 43.9709154,114.142842 43.0200215,114.142842 C42.0691275,114.142842 41.3057337,114.906236 41.3057337,115.85713 C41.3057337,116.808024 42.0691275,117.571417 43.0200215,117.571417 C43.9709154,117.571417 44.7343092,116.808024 44.7343092,115.85713 Z M49.0200286,121.857137 C49.0200286,124.160711 48.3637778,126.383928 47.1316335,128.325894 C46.970919,128.566966 46.7030616,128.714288 46.4084184,128.714288 L27.6316103,128.714288 C27.336967,128.714288 27.0691096,128.566966 26.9083951,128.325894 C25.6762508,126.397321 25.02,124.160711 25.02,121.857137 C25.02,115.241057 30.403935,109.857122 37.0200143,109.857122 C43.6360936,109.857122 49.0200286,115.241057 49.0200286,121.857137 Z" id=""></path>
        </g>
    </g>
</svg>