<?xml version="1.0" encoding="UTF-8"?>
<svg width="48px" height="24px" viewBox="0 0 48 24" version="1.1" xmlns="http://www.w3.org/2000/svg" xmlns:xlink="http://www.w3.org/1999/xlink">
    <!-- Generator: Sketch 43.2 (39069) - http://www.bohemiancoding.com/sketch -->
    <title></title>
    <desc>Created with Sketch.</desc>
    <defs>
        <rect id="path-1" x="0" y="0" width="50" height="27"></rect>
    </defs>
    <g id="Desktop" stroke="none" stroke-width="1" fill="none" fill-rule="evenodd">
        <g id="PSP-ChaikinInsights-Grid" transform="translate(-13.000000, -57.000000)">
            <g id="" transform="translate(12.000000, 54.000000)">
                <mask id="mask-2" fill="white">
                    <use xlink:href="#path-1"></use>
                </mask>
                <g id="Mask" transform="translate(25.000000, 13.500000) scale(1, -1) translate(-25.000000, -13.500000) "></g>
                <path d="M41.1065632,27.8900887 C41.1065632,19.0446111 33.9194117,11.8680915 25.0608298,11.8680915 C16.2022478,11.8680915 9.01509634,19.0446111 9.01509634,27.8900887 C9.01509634,36.7355662 16.2022478,43.9120858 25.0608298,43.9120858 C33.9194117,43.9120858 41.1065632,36.7355662 41.1065632,27.8900887 Z M48.7951438,35.5951116 C48.7115722,35.8732713 48.4887148,36.067983 48.2380002,36.1514309 L40.1037048,38.8217638 L40.1037048,47.3334498 C40.1037048,47.6116094 39.9644189,47.8897691 39.7415615,48.0566649 C39.490847,48.2235607 39.2122752,48.2791926 38.9337034,48.1679288 L30.799408,45.5532279 L25.7851163,52.4515877 C25.6179733,52.6741155 25.3394015,52.8131953 25.0608298,52.8131953 C24.782258,52.8131953 24.5036862,52.6741155 24.3365432,52.4515877 L19.3222515,45.5532279 L11.1879561,48.1679288 C10.9093843,48.2791926 10.6308126,48.2235607 10.380098,48.0566649 C10.1572406,47.8897691 10.0179547,47.6116094 10.0179547,47.3334498 L10.0179547,38.8217638 L1.88365927,36.1514309 C1.63294468,36.067983 1.41008727,35.8732713 1.32651575,35.5951116 C1.24294422,35.3169519 1.27080139,35.0109763 1.43794445,34.7884485 L6.45223614,27.8900887 L1.43794445,20.9917288 C1.27080139,20.7413851 1.24294422,20.4632254 1.32651575,20.1850657 C1.41008727,19.9069061 1.63294468,19.7121943 1.88365927,19.6287464 L10.0179547,16.9584135 L10.0179547,8.44672758 C10.0179547,8.16856791 10.1572406,7.89040823 10.380098,7.72351243 C10.6308126,7.55661663 10.9093843,7.50098469 11.1879561,7.61224856 L19.3222515,10.2269495 L24.3365432,3.32858961 C24.6708293,2.88353413 25.4508302,2.88353413 25.7851163,3.32858961 L30.799408,10.2269495 L38.9337034,7.61224856 C39.2122752,7.50098469 39.490847,7.55661663 39.7415615,7.72351243 C39.9644189,7.89040823 40.1037048,8.16856791 40.1037048,8.44672758 L40.1037048,16.9584135 L48.2380002,19.6287464 C48.4887148,19.7121943 48.7115722,19.9069061 48.7951438,20.1850657 C48.8787153,20.4632254 48.8508581,20.7413851 48.6837151,20.9917288 L43.6694234,27.8900887 L48.6837151,34.7884485 C48.8508581,35.0109763 48.8787153,35.3169519 48.7951438,35.5951116 Z" fill="#FFFFFF" mask="url(#mask-2)"></path>
            </g>
        </g>
    </g>
</svg>