<?xml version="1.0" encoding="UTF-8"?>
<svg width="25px" height="27px" viewBox="0 0 25 27" version="1.1" xmlns="http://www.w3.org/2000/svg" xmlns:xlink="http://www.w3.org/1999/xlink">
    <!-- Generator: Sketch 43.2 (39069) - http://www.bohemiancoding.com/sketch -->
    <title>icon</title>
    <desc>Created with Sketch.</desc>
    <defs></defs>
    <g id="Desktop" stroke="none" stroke-width="1" fill="none" fill-rule="evenodd">
        <g id="PSP-ChaikinInsights-Grid" transform="translate(-25.000000, -105.000000)" fill="#FFFFFF">
            <g id="icon" transform="translate(25.000000, 105.000000)">
                <path d="M11.9909136,3.97034523 C12.1498353,4.0368852 12.305093,4.0685816 12.453481,4.07015518 C12.6016399,4.0685816 12.7568977,4.0368852 12.9155903,3.97034523 C13.4656333,3.73970333 13.657301,3.27864432 13.657301,2.18478127 C13.657301,0.740234619 13.3488465,0.236014555 12.453481,0.224774696 C11.5581154,0.236014555 11.2496609,0.740234619 11.2496609,2.18478127 C11.2496609,3.27864432 11.4410996,3.73970333 11.9909136,3.97034523" id="Fill-1"></path>
                <path d="M20.272953,2.78476493 C19.5690263,2.24210455 19.0066177,2.4446468 18.0830859,3.56908228 C17.383739,4.42061398 17.237641,4.89763358 17.5183874,5.41601587 C17.5994511,5.56573079 17.7002084,5.68599728 17.8147053,5.77838892 C17.9312631,5.86853258 18.0723232,5.93979329 18.2385727,5.98565191 C18.8140339,6.14480831 19.2578238,5.90360094 19.9571707,5.05229404 C20.8804734,3.92763377 20.9626822,3.34518429 20.272953,2.78476493" id="Fill-4"></path>
                <path d="M24.7245226,9.59566975 C24.5230081,8.73919251 23.9557906,8.55036289 22.5179389,8.85698623 C21.4290737,9.08897692 21.0102442,9.37042298 20.8978082,9.94680294 C20.8648332,10.1133776 20.8664361,10.2691621 20.8966633,10.4116835 C20.9294094,10.5537553 20.9939856,10.6958271 21.0938269,10.8340774 C21.4402944,11.3124458 21.9401877,11.3983183 23.028595,11.1661028 C24.4666757,10.8597043 24.9029087,10.4566429 24.7245226,9.59566975" id="Fill-6"></path>
                <path d="M6.52373391,5.98562943 C6.68998336,5.93977081 6.83104351,5.8685101 6.94737232,5.77836644 C7.06186919,5.6859748 7.16262644,5.56570831 7.24369022,5.41599339 C7.52420755,4.8976111 7.37856753,4.4205915 6.67922066,3.5690598 C5.75568891,2.44462432 5.19328029,2.24208207 4.48912454,2.78474245 C3.79939541,3.34516181 3.88160416,3.92761129 4.8051359,5.05227156 C5.50425379,5.90357846 5.94827264,6.14478583 6.52373391,5.98562943" id="Fill-9"></path>
                <path d="M2.24439053,8.85689632 C0.806538845,8.55027297 0.239092362,8.73932739 0.0378068662,9.59557983 C-0.14080825,10.4567778 0.295653815,10.8596144 1.7335055,11.1662377 C2.82237072,11.3982284 3.32203506,11.3123559 3.66827359,10.8339875 C3.76834385,10.6957372 3.8326911,10.5536654 3.86566619,10.4115936 C3.89589337,10.2690722 3.89726733,10.1132877 3.86452122,9.94693782 C3.75185631,9.37055786 3.33348475,9.0891118 2.24439053,8.85689632" id="Fill-11"></path>
                <path d="M12.4534123,24.0783177 C10.6942824,24.0787673 10.3546847,24.1077661 10.1730926,24.2689457 C9.89143032,24.5193698 9.90013208,24.9431124 10.1932441,25.2308528 C10.4091852,25.4428366 10.5845944,25.4612699 12.3975378,25.4612699 C12.4167733,25.4612699 12.4346348,25.4612699 12.4534123,25.4610451 C12.4719608,25.4612699 12.4900513,25.4612699 12.5090577,25.4612699 C14.3222302,25.4612699 14.4974104,25.4428366 14.7135805,25.2308528 C15.0064634,24.9431124 15.0153942,24.5193698 14.7337319,24.2689457 C14.5521399,24.1077661 14.2125422,24.0787673 12.4534123,24.0783177" id="Fill-13"></path>
                <path d="M12.4534123,26.0376049 C11.4252304,26.0385041 11.1323474,26.0731229 11.1323474,26.1924902 C11.1323474,26.3846918 11.4540836,26.6778273 11.8390221,26.8369837 C12.1296151,26.9568006 12.7769804,26.9568006 13.0678025,26.8369837 C13.4527409,26.6778273 13.7742481,26.3846918 13.7742481,26.1924902 C13.7742481,26.0731229 13.4815941,26.0385041 12.4534123,26.0376049" id="Fill-15"></path>
                <path d="M15.0733067,22.0081156 C14.9393454,21.937754 13.8891801,21.8903218 12.4533894,21.8889731 C11.0175986,21.8903218 9.96720435,21.937754 9.83324301,22.0081156 C9.48860743,22.1890773 9.51356775,23.0788245 9.87034,23.3274502 C10.091319,23.4812114 10.4764864,23.5052647 12.4533894,23.4796379 C14.4302923,23.5052647 14.8154598,23.4812114 15.0362097,23.3274502 C15.392982,23.0788245 15.4181713,22.1890773 15.0733067,22.0081156" id="Fill-17"></path>
                <path d="M16.6237088,12.7612636 C16.5547817,11.723375 16.0988552,10.642775 15.2577612,9.98816562 C14.3280466,9.26499311 15.6394937,7.99601305 16.5586746,8.71109287 C17.7734864,9.65636499 18.3656642,11.2843461 18.4634445,12.7612636 C18.5406154,13.924589 16.7004217,13.9173955 16.6237088,12.7612636 M17.8124153,8.21563989 C16.3905932,6.81043275 14.4258269,6.11153833 12.4535039,6.11311191 C10.4809518,6.11153833 8.51595653,6.81043275 7.0943634,8.21563989 C5.73528557,9.55880302 5.19073846,10.9570414 5.29424363,12.837245 C5.50674982,16.6929662 8.46122703,17.3567922 9.13263667,19.5705948 C9.28812342,20.0829076 9.47406633,20.4479782 9.6361939,20.5594776 C9.97487564,20.7925923 14.9298421,20.7941658 15.2705848,20.5594776 C15.4324834,20.4479782 15.6186553,20.0829076 15.7741421,19.5705948 C16.4407428,17.3693809 19.4007159,16.6810519 19.6125351,12.837245 C19.7158113,10.9570414 19.1714932,9.55880302 17.8124153,8.21563989" id="Fill-19"></path>
            </g>
        </g>
    </g>
</svg>