<?xml version="1.0" encoding="UTF-8"?>
<svg width="22px" height="18px" viewBox="0 0 22 18" version="1.1" xmlns="http://www.w3.org/2000/svg" xmlns:xlink="http://www.w3.org/1999/xlink">
    <!-- Generator: Sketch 43.2 (39069) - http://www.bohemiancoding.com/sketch -->
    <title></title>
    <desc>Created with Sketch.</desc>
    <defs></defs>
    <g id="Stock-Summary" stroke="none" stroke-width="1" fill="none" fill-rule="evenodd">
        <g id="PSP-StockSummary-Overview" transform="translate(-1160.000000, -109.000000)" fill="#FFFFFF">
            <g id="Group-10" transform="translate(1140.000000, 100.000000)">
                <path d="M28.9285816,25.7142842 C28.9285816,26.0892846 29.102689,27 28.5000097,27 L24.2142903,27 C22.0848235,27 20.3571429,25.2723194 20.3571429,23.1428525 L20.3571429,13.7142699 C20.3571429,11.5848031 22.0848235,9.85712242 24.2142903,9.85712242 L28.5000097,9.85712242 C28.7276885,9.85712242 28.9285816,10.0580155 28.9285816,10.2856944 C28.9285816,10.6606948 29.102689,11.5714102 28.5000097,11.5714102 L24.2142903,11.5714102 C23.0357175,11.5714102 22.0714306,12.535697 22.0714306,13.7142699 L22.0714306,23.1428525 C22.0714306,24.3214254 23.0357175,25.2857122 24.2142903,25.2857122 L28.0714378,25.2857122 C28.4062596,25.2857122 28.9285816,25.2187479 28.9285816,25.7142842 Z M41.3571679,18.4285612 C41.3571679,18.6562401 41.2634178,18.870526 41.1027033,19.0312405 L33.8169803,26.3169635 C33.6562659,26.4776779 33.4419799,26.5714281 33.214301,26.5714281 C32.7455505,26.5714281 32.3571572,26.1830347 32.3571572,25.7142842 L32.3571572,21.8571367 L26.35715,21.8571367 C25.8883995,21.8571367 25.5000061,21.4687434 25.5000061,20.9999928 L25.5000061,15.8571296 C25.5000061,15.388379 25.8883995,14.9999857 26.35715,14.9999857 L32.3571572,14.9999857 L32.3571572,11.1428382 C32.3571572,10.6740877 32.7455505,10.2856944 33.214301,10.2856944 C33.4419799,10.2856944 33.6562659,10.3794445 33.8169803,10.5401589 L41.1027033,17.8258819 C41.2634178,17.9865964 41.3571679,18.2008824 41.3571679,18.4285612 Z" id=""></path>
            </g>
        </g>
    </g>
</svg>