<?xml version="1.0" encoding="UTF-8"?>
<svg width="342px" height="113px" viewBox="0 0 342 113" version="1.1" xmlns="http://www.w3.org/2000/svg" xmlns:xlink="http://www.w3.org/1999/xlink">
    <!-- Generator: Sketch 43.2 (39069) - http://www.bohemiancoding.com/sketch -->
    <title>Group 3</title>
    <desc>Created with Sketch.</desc>
    <defs>
        <linearGradient x1="50%" y1="0%" x2="50%" y2="100%" id="linearGradient-1">
            <stop stop-color="#FFFFFF" offset="0%"></stop>
            <stop stop-color="#000000" offset="100%"></stop>
        </linearGradient>
        <linearGradient x1="100%" y1="99.9999642%" x2="0%" y2="99.9999642%" id="linearGradient-2">
            <stop stop-color="#24A300" offset="0%"></stop>
            <stop stop-color="#61C600" offset="15.784275%"></stop>
            <stop stop-color="#FFBE00" offset="49.7297588%"></stop>
            <stop stop-color="#EF5A00" offset="80.5537501%"></stop>
            <stop stop-color="#E00000" offset="100%"></stop>
        </linearGradient>
        <path d="M33.8045078,4.6852693e-05 C15.1345513,4.6852693e-05 0,14.8546932 0,33.1778444 L13.358256,33.1778444 C13.358256,22.0953084 22.5118335,13.1103674 33.8045078,13.1103674 C45.0967048,13.1103674 54.3300031,22.0953084 54.3300031,33.1778444 L67.6090157,33.1778444 C67.6090157,14.8546932 52.4735096,4.6852693e-05 33.8045078,4.6852693e-05 Z" id="path-3"></path>
        <linearGradient x1="50%" y1="-26.3277395%" x2="50%" y2="154.299402%" id="linearGradient-4">
            <stop stop-color="#FFFFFF" stop-opacity="0.5" offset="0%"></stop>
            <stop stop-color="#000000" stop-opacity="0.5" offset="100%"></stop>
        </linearGradient>
        <path d="M6.96435684,33.1778444 L13.358256,33.1778444 C13.358256,24.16854 22.4679155,13.2279677 33.8045078,13.2279677 L33.8045078,13.2279677 C45.1401455,13.2279677 54.3300031,24.16854 54.3300031,33.1778444 L54.3300031,33.1778444 L60.6441815,33.1778444 C60.6441815,18.2819677 48.6278137,6.78197417 33.8045078,6.78197417 L33.8045078,6.78197417 C18.981202,6.78197417 6.96435684,18.2819677 6.96435684,33.1778444" id="path-5"></path>
    </defs>
    <g id="Desktop" stroke="none" stroke-width="1" fill="none" fill-rule="evenodd">
        <g id="Group-3">
            <g id="Group-4">
                <path d="M76.6967028,108.126112 L78.4475037,107.898429 L78.9185713,104.200549 L76.2020819,97.9746072 L75.267798,97.7783291 L75.3541604,96.9461098 L80.1433468,96.9461098 L80.0255799,97.7783291 L78.7222931,97.9746072 L80.221858,102.010086 L80.5437542,103.093541 L81.0697796,102.127852 L83.5664374,97.9746072 L82.3652152,97.7783291 L82.4437265,96.9461098 L86.2122666,96.9461098 L86.110202,97.7783291 L85.1994714,97.9667561 L81.1247374,104.200549 L80.6458188,107.898429 L82.3887686,108.126112 L82.3181085,108.895522 L76.6181916,108.895522 L76.6967028,108.126112 Z M85.6217573,105.464581 C85.6060549,104.962106 85.6466187,104.471416 85.7434497,103.992495 C85.8402807,103.513574 85.9842166,103.062138 86.1752616,102.638176 C86.3663066,102.214213 86.601838,101.825586 86.8818629,101.472283 C87.1618877,101.118981 87.4811636,100.815407 87.8397001,100.561553 C88.1982366,100.307699 88.5920975,100.110114 89.0212945,99.968793 C89.4504915,99.827472 89.9110862,99.7568126 90.4030925,99.7568126 C91.4813191,99.7568126 92.308296,100.066929 92.8840481,100.687171 C93.4598002,101.307413 93.760757,102.198507 93.7869275,103.360479 C93.7973957,103.862954 93.7555235,104.354953 93.6613095,104.836491 C93.5670955,105.318029 93.4244682,105.770772 93.2334232,106.194735 C93.0423782,106.618698 92.8055383,107.008634 92.5228963,107.364553 C92.2402544,107.720472 91.91967,108.025355 91.5611335,108.279209 C91.202597,108.533063 90.8074276,108.731957 90.3756136,108.875895 C89.9437995,109.019833 89.4845133,109.091801 88.9977411,109.091801 C87.9142804,109.091801 87.0899205,108.777759 86.5246367,108.149665 C85.9593528,107.521572 85.658396,106.626553 85.6217573,105.464581 Z M89.3196372,108.102559 C89.5865768,108.102559 89.8260338,108.033208 90.0380152,107.894504 C90.2499966,107.7558 90.4371133,107.567375 90.5993707,107.329223 C90.7616281,107.091071 90.9003299,106.813667 91.0154803,106.497004 C91.1306307,106.18034 91.2222262,105.846671 91.2902697,105.495985 C91.3583131,105.1453 91.4067279,104.78546 91.4355155,104.416455 C91.4643031,104.047451 91.4760797,103.690228 91.4708456,103.344777 C91.4499091,102.460212 91.3269094,101.815118 91.1018427,101.409474 C90.876776,101.003831 90.549649,100.801012 90.120452,100.801012 C89.8535124,100.801012 89.612747,100.869055 89.3981485,101.005142 C89.18355,101.141228 88.9925079,101.327036 88.8250164,101.562571 C88.6575248,101.798106 88.5148975,102.070276 88.39713,102.379088 C88.2793626,102.687901 88.1838415,103.016336 88.110564,103.364405 C88.0372864,103.712473 87.9849461,104.067079 87.9535415,104.428232 C87.9221368,104.789386 87.9116687,105.140066 87.9221369,105.480283 C87.9430734,106.370082 88.0647646,107.029569 88.2872143,107.458766 C88.5096639,107.887963 88.8538015,108.102559 89.3196372,108.102559 Z M95.7794384,106.979848 C95.7794384,106.801888 95.7885979,106.601686 95.8069173,106.379237 C95.8252367,106.156787 95.8500983,105.925181 95.881503,105.684412 C95.9129076,105.443643 95.9469289,105.197644 95.9835676,104.946406 C96.0202064,104.695169 96.0542276,104.44917 96.0856322,104.208401 L96.4938908,101.34274 L95.6067136,100.78531 L95.7323316,100.08656 L98.3467563,99.7646637 L98.7393126,99.9530907 L98.1975849,104.27121 C98.1400097,104.742279 98.0811269,105.183247 98.0209346,105.594124 C97.9607424,106.005002 97.9306467,106.362224 97.9306467,106.665803 C97.9306467,106.89087 97.9502743,107.079295 97.9895301,107.231084 C98.0287859,107.382873 98.0876688,107.503256 98.1661804,107.592236 C98.2446921,107.681215 98.3402131,107.745332 98.4527465,107.784588 C98.5652799,107.823844 98.6948221,107.843472 98.8413772,107.843472 C99.0088687,107.843472 99.1750492,107.815993 99.3399237,107.761035 C99.5047981,107.706077 99.661819,107.631492 99.8109912,107.537278 C99.9601633,107.443064 100.101482,107.335766 100.234952,107.215382 C100.368422,107.094997 100.490113,106.96938 100.600029,106.838528 L101.542164,99.8274727 L103.646266,99.8274727 L102.649173,107.246786 C102.596832,107.644578 102.680576,107.843472 102.900409,107.843472 C102.942282,107.843472 102.985463,107.836929 103.029953,107.823844 C103.074442,107.810759 103.125474,107.788514 103.183049,107.757109 C103.240625,107.725705 103.308667,107.681215 103.387179,107.62364 C103.46569,107.566065 103.559903,107.492788 103.669819,107.403809 L103.897502,107.914132 C103.860863,107.976941 103.78497,108.071154 103.669819,108.196772 C103.554669,108.322391 103.405499,108.448008 103.222305,108.573626 C103.039111,108.699245 102.828441,108.80916 102.59029,108.903374 C102.352138,108.997587 102.094361,109.044694 101.816954,109.044694 C101.345884,109.044694 101.013523,108.929545 100.819861,108.699244 C100.626199,108.468943 100.566007,108.167987 100.639285,107.796365 L100.60788,107.749258 C100.471794,107.911516 100.316081,108.069845 100.140738,108.224251 C99.9653958,108.378657 99.7691196,108.517359 99.551904,108.640361 C99.3346885,108.763362 99.0926145,108.862809 98.825675,108.938704 C98.5587354,109.014598 98.2656296,109.052545 97.9463489,109.052545 C97.6794093,109.052545 97.4177078,109.018524 97.1612364,108.95048 C96.904765,108.882437 96.6744677,108.767288 96.4703374,108.605031 C96.2662071,108.442773 96.1013351,108.229487 95.9757165,107.965164 C95.8500979,107.700842 95.7846725,107.372406 95.7794384,106.979848 Z M106.70653,101.34274 L105.890013,100.871672 L106.023482,100.172922 L108.31601,99.7646637 L108.716418,100.000197 L108.582949,101.939425 C108.666694,101.698656 108.789694,101.45004 108.951952,101.193569 C109.114209,100.937097 109.310485,100.702874 109.540786,100.490893 C109.771087,100.278911 110.03148,100.10488 110.321973,99.968793 C110.612466,99.8327061 110.930433,99.7646637 111.275885,99.7646637 C111.385801,99.7646637 111.489173,99.7790573 111.586004,99.8078449 C111.682835,99.8366325 111.752186,99.8667282 111.794059,99.8981329 L111.338694,102.190661 C111.281118,102.148789 111.181672,102.104299 111.040351,102.057192 C110.89903,102.010085 110.713222,101.986532 110.482921,101.986532 C110.310195,101.986532 110.133547,102.003543 109.95297,102.037564 C109.772393,102.071586 109.598362,102.129161 109.43087,102.210289 C109.263379,102.291418 109.106358,102.397407 108.959803,102.52826 C108.813248,102.659113 108.687631,102.818751 108.582949,103.007178 L107.805687,108.895522 L105.709437,108.895522 L106.70653,101.34274 Z M119.26498,109.052545 C118.79391,109.052545 118.39089,108.966183 118.055907,108.793458 C117.720924,108.620732 117.446137,108.383892 117.231539,108.082931 C117.01694,107.78197 116.859919,107.427364 116.760471,107.019103 C116.661023,106.610843 116.6113,106.173801 116.6113,105.707966 C116.6113,105.247364 116.659715,104.780227 116.756546,104.30654 C116.853377,103.832853 116.998621,103.376184 117.192283,102.936518 C117.385945,102.496853 117.629328,102.084673 117.922438,101.699966 C118.215548,101.315259 118.554451,100.978973 118.939159,100.691097 C119.323866,100.40322 119.756982,100.176849 120.23852,100.011974 C120.720058,99.8470997 121.248695,99.7646637 121.824447,99.7646637 C121.976236,99.7646637 122.13064,99.7738233 122.287663,99.7921427 C122.444687,99.8104621 122.599091,99.8353237 122.75088,99.8667284 L123.143436,97.2601548 L122.028576,96.9225564 L122.185599,96.270913 L124.996302,95.9411658 L125.428114,96.1531461 L123.818633,107.238935 C123.792462,107.427363 123.797696,107.576533 123.834335,107.686449 C123.870974,107.796365 123.941633,107.851323 124.046315,107.851323 C124.119593,107.851323 124.208572,107.82777 124.313254,107.780663 C124.417936,107.733556 124.564489,107.636726 124.752917,107.490171 L124.980599,107.984792 C124.938727,108.037133 124.864142,108.122186 124.756842,108.239953 C124.649543,108.357721 124.510841,108.476795 124.340733,108.59718 C124.170624,108.717564 123.971731,108.823553 123.744047,108.91515 C123.516363,109.006747 123.263821,109.052545 122.986414,109.052545 C122.572919,109.052545 122.270654,108.947864 122.079609,108.7385 C121.888564,108.529135 121.793043,108.204626 121.793043,107.76496 C121.672658,107.921984 121.530031,108.077696 121.365156,108.232102 C121.200282,108.386509 121.011857,108.523902 120.799875,108.644286 C120.587894,108.764671 120.353671,108.862809 120.0972,108.938704 C119.840728,109.014598 119.563324,109.052545 119.26498,109.052545 Z M119.995135,107.796365 C120.173095,107.796365 120.345818,107.764961 120.513309,107.702151 C120.680801,107.639342 120.83913,107.556906 120.988302,107.454841 C121.137474,107.352776 121.274868,107.237627 121.400486,107.109391 C121.526105,106.981156 121.63602,106.851613 121.730234,106.720761 L122.586006,100.99729 C122.444685,100.924013 122.292898,100.872981 122.130641,100.844193 C121.968384,100.815406 121.795661,100.801012 121.612467,100.801012 C121.267015,100.801012 120.959516,100.87298 120.689959,101.016918 C120.420403,101.160856 120.182254,101.354515 119.975507,101.597901 C119.76876,101.841288 119.592111,102.125234 119.445556,102.449749 C119.299001,102.774263 119.178618,103.114475 119.084404,103.470395 C118.99019,103.826314 118.922148,104.187462 118.880275,104.55385 C118.838402,104.920238 118.817466,105.270918 118.817466,105.605901 C118.817466,106.307272 118.922147,106.847685 119.131511,107.227158 C119.340875,107.606631 119.628747,107.796365 119.995135,107.796365 Z M129.20283,109.052545 C128.736994,109.052545 128.337899,108.966183 128.005533,108.793458 C127.673167,108.620732 127.400998,108.383892 127.189016,108.082931 C126.977035,107.78197 126.822631,107.427364 126.7258,107.019103 C126.628969,106.610843 126.580554,106.173801 126.580554,105.707966 C126.580554,105.247364 126.631586,104.780227 126.733651,104.30654 C126.835716,103.832853 126.986194,103.376184 127.185091,102.936518 C127.383987,102.496853 127.631295,102.084673 127.927022,101.699966 C128.222749,101.315259 128.565578,100.978973 128.955519,100.691097 C129.345461,100.40322 129.779885,100.176849 130.258806,100.011974 C130.737727,99.8470997 131.262439,99.7646637 131.832957,99.7646637 C132.126067,99.7646637 132.429641,99.7973764 132.743687,99.8628028 C133.057734,99.9282292 133.332521,99.9975801 133.568055,100.070858 L134.64366,99.7646637 L133.623013,107.254637 C133.596843,107.469236 133.613853,107.622331 133.674046,107.713928 C133.734238,107.805525 133.808823,107.851323 133.897803,107.851323 C133.97108,107.851323 134.062676,107.82777 134.172592,107.780663 C134.282508,107.733556 134.429061,107.636726 134.612255,107.490171 L134.847789,107.992643 C134.805916,108.055452 134.728714,108.145739 134.616181,108.263507 C134.503647,108.381274 134.36102,108.49904 134.188294,108.616807 C134.015569,108.734575 133.815367,108.836639 133.587683,108.923001 C133.359999,109.009364 133.112692,109.052545 132.845752,109.052545 C132.479364,109.052545 132.186259,108.966183 131.966426,108.793458 C131.746593,108.620732 131.64453,108.353797 131.660232,107.992643 L131.597423,107.890578 C131.461336,108.042368 131.306932,108.187612 131.134207,108.326316 C130.961481,108.46502 130.775673,108.588019 130.576777,108.695319 C130.377881,108.802618 130.163285,108.888979 129.932984,108.954406 C129.702684,109.019832 129.459301,109.052545 129.20283,109.052545 Z M129.948687,107.796365 C130.100476,107.796365 130.252263,107.768886 130.404052,107.713928 C130.555841,107.65897 130.702394,107.584385 130.843715,107.490171 C130.985036,107.395957 131.118504,107.288659 131.244122,107.168275 C131.369741,107.04789 131.487507,106.924891 131.597423,106.799272 L132.382536,100.910928 C132.267385,100.869055 132.145694,100.840268 132.017458,100.824566 C131.889223,100.808863 131.757063,100.801012 131.620976,100.801012 C131.280759,100.801012 130.974568,100.871672 130.702395,101.012993 C130.430221,101.154314 130.189456,101.346664 129.980091,101.59005 C129.770727,101.833436 129.59277,102.114766 129.446215,102.434046 C129.29966,102.753327 129.179277,103.089614 129.085063,103.442916 C128.990849,103.796218 128.921498,104.156058 128.877008,104.522446 C128.832518,104.888833 128.810274,105.239513 128.810274,105.574496 C128.810274,106.275867 128.905795,106.821515 129.09684,107.211456 C129.287885,107.601397 129.571831,107.796365 129.948687,107.796365 Z M136.848151,107.937685 C136.88479,107.623639 136.934513,107.242863 136.997322,106.795346 C137.060132,106.34783 137.132099,105.842746 137.213228,105.280079 C137.294357,104.717412 137.382027,104.101105 137.476241,103.431139 C137.570455,102.761173 137.669901,102.049345 137.774584,101.295633 L136.761788,100.840268 L136.887406,100.172922 L139.690258,99.7646637 L140.106368,99.9530907 L139.062168,107.254637 C139.004593,107.65243 139.080486,107.851323 139.289851,107.851323 C139.378831,107.851323 139.480894,107.819919 139.596045,107.757109 C139.711195,107.6943 139.868216,107.579151 140.067112,107.41166 L140.294795,107.921983 C140.252922,107.979558 140.173103,108.071154 140.055336,108.196772 C139.937568,108.322391 139.78709,108.448008 139.603896,108.573626 C139.420702,108.699245 139.207415,108.810468 138.964029,108.907299 C138.720643,109.00413 138.449782,109.052545 138.151438,109.052545 C137.69607,109.052545 137.35455,108.957024 137.126866,108.765979 C136.899182,108.574934 136.806278,108.298839 136.848151,107.937685 Z M139.227042,98.2179921 C139.075253,98.2179921 138.932625,98.1865879 138.799155,98.1237786 C138.665686,98.0609693 138.54792,97.9772248 138.445855,97.8725426 C138.34379,97.7678604 138.263971,97.6474777 138.206396,97.5113908 C138.14882,97.3753039 138.120033,97.2339851 138.120033,97.08743 C138.125267,96.8990021 138.163214,96.721045 138.233874,96.5535535 C138.304535,96.386062 138.400056,96.2408176 138.520441,96.1178161 C138.640825,95.9948145 138.783452,95.8966764 138.948327,95.8233989 C139.113201,95.7501213 139.292467,95.7134831 139.486129,95.7134831 C139.669323,95.7134831 139.832886,95.7435788 139.976824,95.8037711 C140.120762,95.8639633 140.243762,95.9450908 140.345827,96.0471559 C140.447892,96.1492211 140.525094,96.2656783 140.577435,96.396531 C140.629776,96.5273838 140.655947,96.6634686 140.655947,96.8047895 C140.650712,96.9932175 140.616691,97.1737916 140.553882,97.3465172 C140.491073,97.5192428 140.398169,97.6697212 140.275167,97.7979569 C140.152165,97.9261926 140.002996,98.0282562 139.827653,98.1041508 C139.65231,98.1800453 139.452109,98.2179921 139.227042,98.2179921 Z M142.216646,107.992643 C142.216646,107.908897 142.223188,107.806834 142.236273,107.686449 C142.249359,107.566065 142.261135,107.466618 142.271603,107.388106 L143.661253,97.2601548 L142.656309,96.9225564 L142.813331,96.270913 L145.506267,95.9411658 L145.898823,96.1531461 L144.391407,107.254637 C144.365237,107.437831 144.370471,107.583075 144.40711,107.690375 C144.443748,107.797674 144.514408,107.851323 144.61909,107.851323 C144.655729,107.851323 144.697601,107.846089 144.744708,107.83562 C144.791815,107.825152 144.844155,107.804216 144.90173,107.772811 C144.959306,107.741407 145.028657,107.696918 145.109785,107.639342 C145.190914,107.581767 145.286435,107.508491 145.396351,107.419511 L145.624034,107.921983 C145.582161,107.979558 145.504959,108.071154 145.392426,108.196772 C145.279892,108.322391 145.134648,108.448008 144.956688,108.573626 C144.778729,108.699245 144.571984,108.810468 144.336449,108.907299 C144.100914,109.00413 143.84183,109.052545 143.559188,109.052545 C143.37076,109.052545 143.19542,109.032917 143.033163,108.993661 C142.870905,108.954406 142.729586,108.892906 142.609202,108.80916 C142.488817,108.725414 142.393296,108.616808 142.322636,108.483338 C142.251975,108.349869 142.216646,108.186305 142.216646,107.992643 Z M146.407472,111.195902 C146.459813,111.237775 146.533089,111.280956 146.627303,111.325446 C146.721517,111.369936 146.830123,111.411808 146.953125,111.451064 C147.076126,111.490319 147.210903,111.523032 147.357458,111.549203 C147.504013,111.575373 147.6558,111.588458 147.812823,111.588458 C148.022187,111.588458 148.2394,111.550512 148.464466,111.474617 C148.689533,111.398722 148.917213,111.274414 149.147514,111.101689 C149.377815,110.928963 149.608112,110.702591 149.838413,110.422566 C150.068714,110.142541 150.296394,109.798404 150.521461,109.390143 L149.312388,109.390143 L147.765716,101.48406 C147.729077,101.321803 147.685897,101.207963 147.636173,101.142536 C147.586449,101.07711 147.519715,101.044397 147.435969,101.044397 C147.37316,101.044397 147.303809,101.056174 147.227914,101.079727 C147.152019,101.103281 147.053881,101.164781 146.933497,101.264229 L146.705814,100.71465 C146.742453,100.662309 146.817038,100.583798 146.929571,100.479116 C147.042105,100.374434 147.183424,100.269753 147.353532,100.165071 C147.523641,100.060389 147.715991,99.9674849 147.93059,99.8863562 C148.145188,99.8052275 148.370252,99.7646637 148.605787,99.7646637 C148.820385,99.7646637 149.003576,99.7895254 149.155365,99.8392494 C149.307155,99.8889735 149.43408,99.9596329 149.536145,100.05123 C149.63821,100.142827 149.716721,100.255358 149.771679,100.388828 C149.826637,100.522298 149.867201,100.672776 149.893371,100.840268 C149.924776,101.03393 149.962722,101.289089 150.007212,101.605753 C150.051702,101.922416 150.101426,102.270479 150.156384,102.649952 C150.211342,103.029425 150.266299,103.424595 150.321257,103.835472 C150.376216,104.24635 150.429864,104.640211 150.482205,105.017067 C150.534547,105.393922 150.582961,105.740677 150.627451,106.057341 C150.671941,106.374004 150.709888,106.629163 150.741293,106.822825 L150.937571,108.628584 L151.754088,106.956294 C151.926813,106.563736 152.095611,106.179035 152.260485,105.802179 C152.42536,105.425323 152.571913,105.049781 152.700148,104.675543 C152.828384,104.301304 152.930448,103.928379 153.006342,103.556757 C153.082237,103.185135 153.120184,102.805668 153.120184,102.418344 C153.120184,102.224682 153.101864,102.061119 153.065226,101.927649 C153.028587,101.794179 152.988023,101.668562 152.943533,101.550795 C152.899043,101.433027 152.85848,101.311336 152.821841,101.185717 C152.785202,101.060099 152.766883,100.908312 152.766883,100.730352 C152.766883,100.432008 152.855861,100.196476 153.033821,100.023751 C153.211781,99.8510253 153.465631,99.7646637 153.79538,99.7646637 C154.004745,99.7646637 154.187936,99.806536 154.344959,99.8902817 C154.501982,99.9740275 154.631525,100.086559 154.73359,100.22788 C154.835655,100.369201 154.912857,100.534073 154.965198,100.722501 C155.017539,100.910929 155.043709,101.112439 155.043709,101.327038 C155.043709,101.761469 154.99922,102.177574 154.91024,102.575367 C154.82126,102.973159 154.706112,103.364403 154.564791,103.74911 C154.42347,104.133817 154.261215,104.513284 154.078021,104.887523 C153.894827,105.261762 153.709019,105.637304 153.520591,106.014159 C153.269354,106.532336 153.006344,107.043963 152.731553,107.549054 C152.456762,108.054146 152.188518,108.529134 151.926813,108.974034 C151.665107,109.418933 151.416491,109.821953 151.180956,110.183107 C150.945421,110.54426 150.746528,110.8426 150.58427,111.078135 C150.186478,111.711462 149.723266,112.175983 149.194621,112.47171 C148.665976,112.767437 148.07453,112.915299 147.420267,112.915299 C147.294648,112.915299 147.155946,112.906139 147.004157,112.88782 C146.852368,112.8695 146.705815,112.847256 146.564494,112.821085 C146.423173,112.794914 146.293631,112.76351 146.175863,112.726872 C146.058096,112.690233 145.967809,112.656212 145.904999,112.624807 L146.407472,111.195902 Z M161.564644,101.34274 L160.748127,100.871672 L160.889448,100.172922 L163.362552,99.7646637 L163.755108,99.9530907 L163.621639,101.601827 C163.804833,101.345356 164.00896,101.10459 164.234027,100.879524 C164.459094,100.654457 164.699859,100.459489 164.956331,100.294615 C165.212802,100.12974 165.481046,100.000198 165.761071,99.905984 C166.041096,99.81177 166.327659,99.7646637 166.620769,99.7646637 C166.887709,99.7646637 167.133708,99.7973764 167.358775,99.8628028 C167.583842,99.9282292 167.780118,100.036835 167.947609,100.188625 C168.115101,100.340414 168.252494,100.537998 168.359793,100.781384 C168.467093,101.024771 168.539061,101.324419 168.575699,101.680338 C168.758893,101.397696 168.965637,101.13992 169.195938,100.907002 C169.426239,100.674085 169.673547,100.472574 169.937869,100.302466 C170.202192,100.132357 170.482213,100.000198 170.77794,99.905984 C171.073667,99.81177 171.378549,99.7646637 171.692596,99.7646637 C171.975238,99.7646637 172.234322,99.8078445 172.469857,99.8942073 C172.705392,99.9805701 172.90952,100.117963 173.082245,100.306391 C173.254971,100.494819 173.389747,100.73951 173.486578,101.040472 C173.583409,101.341433 173.631824,101.706507 173.631824,102.135704 C173.631824,102.287493 173.620047,102.475918 173.596494,102.700985 C173.57294,102.926051 173.542845,103.165508 173.506206,103.419363 C173.469567,103.673217 173.429003,103.932301 173.384513,104.196624 C173.340024,104.460946 173.29946,104.705637 173.262821,104.930704 C173.231416,105.134834 173.197395,105.341579 173.160756,105.550943 C173.124118,105.760307 173.090096,105.969669 173.058692,106.179033 C173.027287,106.388397 172.999808,106.591216 172.976255,106.787495 C172.952701,106.983774 172.938308,107.168274 172.933074,107.341 C172.922606,107.529428 172.940925,107.661587 172.988032,107.737481 C173.035139,107.813376 173.09533,107.851323 173.168608,107.851323 C173.257587,107.851323 173.355725,107.822536 173.463025,107.76496 C173.570324,107.707385 173.73127,107.592236 173.945869,107.419511 L174.173552,107.921983 C174.131679,107.979558 174.053168,108.071154 173.938018,108.196772 C173.822867,108.322391 173.673698,108.449316 173.490504,108.577552 C173.30731,108.705788 173.092715,108.818319 172.846711,108.91515 C172.600708,109.011981 172.325922,109.060396 172.022343,109.060396 C171.755404,109.060396 171.536883,109.028992 171.366774,108.966183 C171.196666,108.903373 171.063198,108.817012 170.966367,108.707095 C170.869536,108.597179 170.802802,108.470254 170.766163,108.326316 C170.729524,108.182378 170.713822,108.026665 170.719056,107.859174 C170.724291,107.712619 170.737376,107.543821 170.758312,107.352776 C170.779249,107.161731 170.805419,106.958913 170.836823,106.744314 C170.868228,106.529716 170.903558,106.307269 170.942814,106.076968 C170.982069,105.846668 171.022633,105.618987 171.064506,105.393921 C171.101145,105.179322 171.1404,104.942482 171.182273,104.683394 C171.224146,104.424305 171.263401,104.159987 171.30004,103.89043 C171.336678,103.620873 171.366774,103.352629 171.390328,103.08569 C171.413881,102.81875 171.425658,102.567517 171.425658,102.331982 C171.425658,102.085979 171.408647,101.888394 171.374625,101.739222 C171.340604,101.59005 171.292189,101.473592 171.22938,101.389847 C171.16657,101.306101 171.093294,101.251144 171.009548,101.224973 C170.925802,101.198802 170.83159,101.185717 170.726908,101.185717 C170.559416,101.185717 170.381459,101.22759 170.193031,101.311335 C170.004603,101.395081 169.816178,101.512847 169.62775,101.664636 C169.439322,101.816425 169.254823,101.995691 169.074246,102.202438 C168.893669,102.409185 168.727488,102.635557 168.575699,102.88156 C168.549529,103.216543 168.516816,103.563298 168.47756,103.921835 C168.438304,104.280371 168.397741,104.616658 168.355868,104.930704 L167.869098,108.895522 L165.71789,108.895522 L166.165404,105.417474 C166.196808,105.197641 166.229521,104.958184 166.263543,104.699096 C166.297565,104.440008 166.32766,104.175689 166.353831,103.906132 C166.380001,103.636576 166.400938,103.36964 166.41664,103.105318 C166.432342,102.840995 166.440193,102.59107 166.440193,102.355535 C166.434959,102.09383 166.415331,101.884468 166.38131,101.727445 C166.347288,101.570422 166.298873,101.451348 166.236064,101.370219 C166.173255,101.28909 166.093436,101.23675 165.996605,101.213196 C165.899774,101.189643 165.785933,101.177866 165.655081,101.177866 C165.492823,101.177866 165.314866,101.223664 165.121204,101.315261 C164.927542,101.406858 164.732574,101.533783 164.536295,101.696041 C164.340016,101.858298 164.147666,102.048032 163.959238,102.265247 C163.77081,102.482463 163.598087,102.716686 163.441063,102.967923 L162.632397,108.895522 L160.536147,108.895522 L161.564644,101.34274 Z M178.372229,109.052545 C177.906393,109.052545 177.507298,108.966183 177.174932,108.793458 C176.842566,108.620732 176.570396,108.383892 176.358415,108.082931 C176.146434,107.78197 175.99203,107.427364 175.895199,107.019103 C175.798368,106.610843 175.749953,106.173801 175.749953,105.707966 C175.749953,105.247364 175.800985,104.780227 175.90305,104.30654 C176.005115,103.832853 176.155593,103.376184 176.354489,102.936518 C176.553386,102.496853 176.800694,102.084673 177.096421,101.699966 C177.392148,101.315259 177.734977,100.978973 178.124918,100.691097 C178.514859,100.40322 178.949284,100.176849 179.428205,100.011974 C179.907126,99.8470997 180.431838,99.7646637 181.002356,99.7646637 C181.295466,99.7646637 181.59904,99.7973764 181.913086,99.8628028 C182.227133,99.9282292 182.501919,99.9975801 182.737454,100.070858 L183.813058,99.7646637 L182.792412,107.254637 C182.766242,107.469236 182.783252,107.622331 182.843444,107.713928 C182.903637,107.805525 182.978222,107.851323 183.067202,107.851323 C183.140479,107.851323 183.232075,107.82777 183.341991,107.780663 C183.451907,107.733556 183.59846,107.636726 183.781654,107.490171 L184.017188,107.992643 C183.975315,108.055452 183.898113,108.145739 183.785579,108.263507 C183.673046,108.381274 183.530419,108.49904 183.357693,108.616807 C183.184968,108.734575 182.984766,108.836639 182.757082,108.923001 C182.529398,109.009364 182.28209,109.052545 182.015151,109.052545 C181.648763,109.052545 181.355657,108.966183 181.135825,108.793458 C180.915992,108.620732 180.813928,108.353797 180.829631,107.992643 L180.766822,107.890578 C180.630735,108.042368 180.476331,108.187612 180.303605,108.326316 C180.13088,108.46502 179.945072,108.588019 179.746176,108.695319 C179.547279,108.802618 179.332684,108.888979 179.102383,108.954406 C178.872082,109.019832 178.6287,109.052545 178.372229,109.052545 Z M179.118086,107.796365 C179.269875,107.796365 179.421662,107.768886 179.573451,107.713928 C179.72524,107.65897 179.871793,107.584385 180.013114,107.490171 C180.154435,107.395957 180.287903,107.288659 180.413521,107.168275 C180.53914,107.04789 180.656906,106.924891 180.766822,106.799272 L181.551934,100.910928 C181.436784,100.869055 181.315093,100.840268 181.186857,100.824566 C181.058621,100.808863 180.926462,100.801012 180.790375,100.801012 C180.450158,100.801012 180.143967,100.871672 179.871794,101.012993 C179.59962,101.154314 179.358854,101.346664 179.14949,101.59005 C178.940126,101.833436 178.762169,102.114766 178.615613,102.434046 C178.469058,102.753327 178.348676,103.089614 178.254462,103.442916 C178.160248,103.796218 178.090897,104.156058 178.046407,104.522446 C178.001917,104.888833 177.979672,105.239513 177.979672,105.574496 C177.979672,106.275867 178.075193,106.821515 178.266238,107.211456 C178.457283,107.601397 178.74123,107.796365 179.118086,107.796365 Z M186.810513,101.34274 L185.993996,100.871672 L186.127465,100.172922 L188.419994,99.7646637 L188.820401,100.000197 L188.686932,101.939425 C188.770678,101.698656 188.893678,101.45004 189.055935,101.193569 C189.218193,100.937097 189.414469,100.702874 189.64477,100.490893 C189.87507,100.278911 190.135463,100.10488 190.425956,99.968793 C190.71645,99.8327061 191.034417,99.7646637 191.379868,99.7646637 C191.489784,99.7646637 191.593157,99.7790573 191.689988,99.8078449 C191.786819,99.8366325 191.85617,99.8667282 191.898042,99.8981329 L191.442677,102.190661 C191.385102,102.148789 191.285655,102.104299 191.144334,102.057192 C191.003013,102.010085 190.817205,101.986532 190.586905,101.986532 C190.414179,101.986532 190.23753,102.003543 190.056954,102.037564 C189.876377,102.071586 189.702345,102.129161 189.534854,102.210289 C189.367362,102.291418 189.210341,102.397407 189.063786,102.52826 C188.917231,102.659113 188.791614,102.818751 188.686932,103.007178 L187.909671,108.895522 L185.81342,108.895522 L186.810513,101.34274 Z M194.14964,97.2601548 L193.176101,96.9225564 L193.30957,96.270913 L196.026059,95.9411658 L196.45002,96.1531461 L194.754177,108.895522 L192.618671,108.895522 L194.14964,97.2601548 Z M195.452927,104.106336 L195.484332,104.098485 L195.452927,104.098485 C195.677994,103.95193 195.893898,103.811919 196.100645,103.67845 C196.307392,103.54498 196.51152,103.398427 196.713033,103.238787 C196.914546,103.079146 197.114748,102.898572 197.313644,102.697059 C197.51254,102.495546 197.719284,102.253472 197.933883,101.97083 C198.090906,101.761466 198.196895,101.55603 198.251853,101.354517 C198.306812,101.153003 198.342141,100.944951 198.357844,100.730352 C198.368312,100.547158 198.41411,100.394063 198.495238,100.271061 C198.576367,100.14806 198.673197,100.048613 198.78573,99.9727186 C198.898263,99.896824 199.022571,99.8431752 199.158658,99.8117705 C199.294745,99.7803658 199.422979,99.7646637 199.543363,99.7646637 C199.83124,99.7646637 200.05892,99.8523338 200.226411,100.027676 C200.393903,100.203019 200.480264,100.416306 200.485499,100.667543 C200.485499,100.887376 200.450169,101.08496 200.379508,101.260303 C200.308848,101.435646 200.221178,101.599209 200.116496,101.750998 C199.954238,101.970831 199.759271,102.182809 199.531587,102.38694 C199.303903,102.59107 199.061829,102.78342 198.805358,102.963997 C198.548886,103.144574 198.289802,103.310755 198.028096,103.462544 C197.766391,103.614333 197.520391,103.747801 197.290091,103.862951 L199.025189,106.948443 C199.156042,107.178744 199.302595,107.35801 199.464852,107.486245 C199.62711,107.614481 199.768428,107.678598 199.888813,107.678598 C199.988261,107.678598 200.123037,107.644577 200.293146,107.576533 C200.463255,107.50849 200.626818,107.406426 200.783841,107.270339 L201.05078,107.796365 C200.977502,107.901047 200.863662,108.025355 200.709256,108.169293 C200.554849,108.313231 200.372967,108.450625 200.163602,108.581477 C199.954238,108.71233 199.721324,108.822245 199.464852,108.911225 C199.208381,109.000205 198.938828,109.044694 198.656186,109.044694 C198.305501,109.044694 198.017629,108.9688 197.792563,108.817011 C197.567496,108.665222 197.386922,108.442776 197.250835,108.149665 L195.452927,104.106336 Z M201.740004,105.519539 C201.745238,104.723954 201.873471,103.976796 202.124709,103.278042 C202.375946,102.579289 202.721392,101.968216 203.161057,101.444805 C203.600722,100.921394 204.116275,100.509214 204.707729,100.208252 C205.299183,99.907291 205.940352,99.7568126 206.631255,99.7568126 C207.044749,99.7568126 207.40328,99.8078444 207.706859,99.9099096 C208.010437,100.011975 208.261671,100.150677 208.460567,100.326019 C208.659463,100.501362 208.807324,100.709415 208.904155,100.950184 C209.000986,101.190953 209.052018,101.450037 209.057252,101.727445 C209.062486,102.146174 208.983976,102.524333 208.821719,102.861933 C208.659461,103.199533 208.442249,103.50049 208.170075,103.764812 C207.897901,104.029135 207.58386,104.256815 207.22794,104.44786 C206.872021,104.638905 206.508256,104.795926 206.136634,104.918927 C205.765012,105.041929 205.396013,105.136142 205.029625,105.201568 C204.663237,105.266994 204.333493,105.302324 204.040383,105.307558 C204.029915,105.647775 204.05216,105.969668 204.107118,106.273247 C204.162076,106.576825 204.252363,106.843761 204.377982,107.074061 C204.5036,107.304362 204.668472,107.487553 204.872603,107.62364 C205.076733,107.759727 205.320115,107.827769 205.602757,107.827769 C205.864463,107.827769 206.111771,107.795057 206.344689,107.72963 C206.577606,107.664204 206.797436,107.575225 207.004183,107.462692 C207.21093,107.350159 207.40459,107.219308 207.585166,107.070136 C207.765743,106.920964 207.934541,106.762634 208.091564,106.595143 L208.531227,107.333148 C208.421311,107.50064 208.262981,107.68514 208.056234,107.886653 C207.849487,108.088166 207.598253,108.279208 207.302526,108.459785 C207.006799,108.640362 206.669204,108.79084 206.289731,108.911225 C205.910258,109.031609 205.495461,109.091801 205.045327,109.091801 C204.448639,109.091801 203.939629,108.989737 203.518283,108.785607 C203.096938,108.581476 202.754109,108.311924 202.489786,107.976941 C202.225464,107.641958 202.033113,107.261182 201.912728,106.834602 C201.792344,106.408022 201.734769,105.969672 201.740004,105.519539 Z M204.056086,104.396828 C204.234045,104.386359 204.430321,104.354955 204.64492,104.302614 C204.859518,104.250273 205.074114,104.17438 205.288712,104.074931 C205.503311,103.975483 205.711363,103.856409 205.912877,103.717705 C206.11439,103.579001 206.291038,103.418055 206.442828,103.234861 C206.594617,103.051667 206.716308,102.850157 206.807905,102.630324 C206.899502,102.410492 206.942683,102.169726 206.937449,101.908021 C206.92698,101.520697 206.853704,101.235442 206.717617,101.052248 C206.58153,100.869054 206.390488,100.777459 206.144485,100.777459 C205.914184,100.777459 205.704823,100.835033 205.516395,100.950184 C205.327967,101.065334 205.160478,101.217121 205.013923,101.405549 C204.867368,101.593977 204.737825,101.812498 204.625292,102.061118 C204.512759,102.309738 204.418546,102.568823 204.342652,102.838379 C204.266757,103.107936 204.205257,103.377489 204.15815,103.647045 C204.111043,103.916602 204.077022,104.166527 204.056086,104.396828 Z M210.892741,107.647193 C210.892741,107.621023 210.894049,107.585693 210.896666,107.541203 C210.899283,107.496713 210.905826,107.42082 210.916294,107.313521 C210.926762,107.206221 210.942464,107.060977 210.963401,106.877783 C210.984337,106.694589 211.015741,106.44859 211.057614,106.139777 L211.72496,101.012993 L210.782825,101.012993 L210.963401,100.235731 L211.921238,99.8667284 C212.02592,99.7672803 212.130601,99.637738 212.235283,99.4780977 C212.339965,99.3184573 212.443337,99.1444258 212.545403,98.9559978 C212.647468,98.7675699 212.744297,98.5712937 212.835894,98.3671635 C212.927491,98.1630332 213.012544,97.966757 213.091056,97.7783291 L214.245171,97.7783291 L213.986084,99.8274727 L215.807545,99.8274727 L215.63482,101.012993 L213.836913,101.012993 L213.185269,105.833584 C213.143396,106.110991 213.111992,106.34914 213.091056,106.548036 C213.070119,106.746932 213.059651,106.917038 213.059651,107.058359 C213.059651,107.309596 213.102832,107.484936 213.189195,107.584384 C213.275558,107.683833 213.436504,107.733556 213.672039,107.733556 C213.771487,107.733556 213.884019,107.719162 214.009637,107.690375 C214.135256,107.661587 214.260873,107.62364 214.386491,107.576533 C214.51211,107.529426 214.63511,107.473161 214.755494,107.407734 C214.875879,107.342308 214.983176,107.272957 215.07739,107.199679 L215.250115,107.819918 C215.145433,107.945537 215.000189,108.080313 214.814378,108.224251 C214.628567,108.368189 214.411355,108.501657 214.162734,108.624659 C213.914114,108.74766 213.638019,108.849724 213.334441,108.930852 C213.030862,109.011981 212.711586,109.052545 212.376603,109.052545 C212.182941,109.052545 211.997133,109.0303 211.819173,108.98581 C211.641214,108.94132 211.482884,108.864118 211.34418,108.754202 C211.205476,108.644286 211.095562,108.499041 211.014433,108.318465 C210.933304,108.137888 210.892741,107.914133 210.892741,107.647193 Z M223.411936,109.052545 C222.940866,109.052545 222.537845,108.966183 222.202862,108.793458 C221.867879,108.620732 221.593093,108.383892 221.378494,108.082931 C221.163896,107.78197 221.006875,107.427364 220.907427,107.019103 C220.807979,106.610843 220.758255,106.173801 220.758255,105.707966 C220.758255,105.247364 220.80667,104.780227 220.903501,104.30654 C221.000332,103.832853 221.145576,103.376184 221.339238,102.936518 C221.532901,102.496853 221.776283,102.084673 222.069393,101.699966 C222.362503,101.315259 222.701407,100.978973 223.086114,100.691097 C223.470821,100.40322 223.903937,100.176849 224.385475,100.011974 C224.867013,99.8470997 225.39565,99.7646637 225.971402,99.7646637 C226.123192,99.7646637 226.277595,99.7738233 226.434619,99.7921427 C226.591642,99.8104621 226.746046,99.8353237 226.897835,99.8667284 L227.290391,97.2601548 L226.175532,96.9225564 L226.332554,96.270913 L229.143257,95.9411658 L229.575069,96.1531461 L227.965588,107.238935 C227.939418,107.427363 227.944652,107.576533 227.98129,107.686449 C228.017929,107.796365 228.088589,107.851323 228.193271,107.851323 C228.266548,107.851323 228.355527,107.82777 228.460209,107.780663 C228.564891,107.733556 228.711444,107.636726 228.899872,107.490171 L229.127555,107.984792 C229.085682,108.037133 229.011097,108.122186 228.903798,108.239953 C228.796498,108.357721 228.657797,108.476795 228.487688,108.59718 C228.317579,108.717564 228.118686,108.823553 227.891002,108.91515 C227.663319,109.006747 227.410777,109.052545 227.133369,109.052545 C226.719874,109.052545 226.417609,108.947864 226.226564,108.7385 C226.035519,108.529135 225.939998,108.204626 225.939998,107.76496 C225.819613,107.921984 225.676986,108.077696 225.512112,108.232102 C225.347237,108.386509 225.158812,108.523902 224.946831,108.644286 C224.734849,108.764671 224.500626,108.862809 224.244155,108.938704 C223.987683,109.014598 223.71028,109.052545 223.411936,109.052545 Z M224.14209,107.796365 C224.32005,107.796365 224.492773,107.764961 224.660264,107.702151 C224.827756,107.639342 224.986085,107.556906 225.135258,107.454841 C225.28443,107.352776 225.421823,107.237627 225.547442,107.109391 C225.67306,106.981156 225.782975,106.851613 225.877189,106.720761 L226.732962,100.99729 C226.591641,100.924013 226.439854,100.872981 226.277596,100.844193 C226.115339,100.815406 225.942616,100.801012 225.759422,100.801012 C225.413971,100.801012 225.106471,100.87298 224.836915,101.016918 C224.567358,101.160856 224.32921,101.354515 224.122462,101.597901 C223.915715,101.841288 223.739066,102.125234 223.592511,102.449749 C223.445956,102.774263 223.325574,103.114475 223.23136,103.470395 C223.137146,103.826314 223.069103,104.187462 223.02723,104.55385 C222.985358,104.920238 222.964421,105.270918 222.964421,105.605901 C222.964421,106.307272 223.069102,106.847685 223.278466,107.227158 C223.487831,107.606631 223.775703,107.796365 224.14209,107.796365 Z M231.22213,107.937685 C231.258769,107.623639 231.308492,107.242863 231.371302,106.795346 C231.434111,106.34783 231.506079,105.842746 231.587208,105.280079 C231.668336,104.717412 231.756006,104.101105 231.85022,103.431139 C231.944434,102.761173 232.043881,102.049345 232.148563,101.295633 L231.135768,100.840268 L231.261386,100.172922 L234.064238,99.7646637 L234.480347,99.9530907 L233.436148,107.254637 C233.378572,107.65243 233.454466,107.851323 233.66383,107.851323 C233.75281,107.851323 233.854874,107.819919 233.970024,107.757109 C234.085174,107.6943 234.242195,107.579151 234.441092,107.41166 L234.668774,107.921983 C234.626901,107.979558 234.547082,108.071154 234.429315,108.196772 C234.311547,108.322391 234.161069,108.448008 233.977875,108.573626 C233.794681,108.699245 233.581395,108.810468 233.338008,108.907299 C233.094622,109.00413 232.823761,109.052545 232.525417,109.052545 C232.070049,109.052545 231.728529,108.957024 231.500845,108.765979 C231.273161,108.574934 231.180257,108.298839 231.22213,107.937685 Z M233.601021,98.2179921 C233.449232,98.2179921 233.306605,98.1865879 233.173135,98.1237786 C233.039665,98.0609693 232.921899,97.9772248 232.819834,97.8725426 C232.717769,97.7678604 232.63795,97.6474777 232.580375,97.5113908 C232.5228,97.3753039 232.494012,97.2339851 232.494012,97.08743 C232.499247,96.8990021 232.537193,96.721045 232.607854,96.5535535 C232.678514,96.386062 232.774035,96.2408176 232.89442,96.1178161 C233.014804,95.9948145 233.157432,95.8966764 233.322306,95.8233989 C233.487181,95.7501213 233.666446,95.7134831 233.860108,95.7134831 C234.043302,95.7134831 234.206866,95.7435788 234.350804,95.8037711 C234.494742,95.8639633 234.617741,95.9450908 234.719806,96.0471559 C234.821872,96.1492211 234.899074,96.2656783 234.951415,96.396531 C235.003756,96.5273838 235.029926,96.6634686 235.029926,96.8047895 C235.024692,96.9932175 234.990671,97.1737916 234.927861,97.3465172 C234.865052,97.5192428 234.772148,97.6697212 234.649146,97.7979569 C234.526145,97.9261926 234.376975,98.0282562 234.201632,98.1041508 C234.02629,98.1800453 233.826088,98.2179921 233.601021,98.2179921 Z M236.97533,111.023177 C237.043373,111.06505 237.153288,111.123933 237.305077,111.199828 C237.456866,111.275722 237.632207,111.348999 237.831103,111.419659 C238.029999,111.49032 238.241977,111.551819 238.467044,111.604161 C238.692111,111.656502 238.914557,111.682672 239.134389,111.682672 C239.432734,111.682672 239.683967,111.660427 239.888098,111.615937 C240.092228,111.571447 240.263642,111.487703 240.402346,111.364701 C240.54105,111.2417 240.649656,111.074211 240.728168,110.862229 C240.80668,110.650248 240.869488,110.374153 240.916595,110.033936 L241.175682,108.149665 C241.044829,108.27005 240.900893,108.385199 240.74387,108.495115 C240.586847,108.605031 240.415432,108.701861 240.229621,108.785607 C240.043811,108.869352 239.844917,108.934778 239.632936,108.981885 C239.420954,109.028992 239.1972,109.052545 238.961665,109.052545 C238.490595,109.052545 238.086266,108.966183 237.748666,108.793458 C237.411066,108.620732 237.132354,108.383892 236.912521,108.082931 C236.692688,107.78197 236.530433,107.427364 236.425751,107.019103 C236.321069,106.610843 236.268729,106.173801 236.268729,105.707966 C236.268729,105.247364 236.319761,104.780227 236.421826,104.30654 C236.523891,103.832853 236.674369,103.376184 236.873265,102.936518 C237.072162,102.496853 237.31947,102.084673 237.615197,101.699966 C237.910924,101.315259 238.253753,100.978973 238.643694,100.691097 C239.033635,100.40322 239.46806,100.176849 239.946981,100.011974 C240.425902,99.8470997 240.950614,99.7646637 241.521132,99.7646637 C241.85088,99.7646637 242.180624,99.801302 242.510373,99.8745795 C242.840122,99.947857 243.12276,100.026367 243.358295,100.110113 L244.488857,99.7646637 L243.091357,109.500059 C243.033781,109.939724 242.922558,110.32966 242.757684,110.669877 C242.592809,111.010094 242.392608,111.307125 242.157073,111.560979 C241.921538,111.814834 241.657219,112.029429 241.364109,112.204772 C241.070999,112.380114 240.764808,112.521433 240.445527,112.628732 C240.126247,112.736032 239.801737,112.813234 239.471988,112.860341 C239.142239,112.907448 238.822963,112.931001 238.514151,112.931001 C238.330957,112.931001 238.141223,112.920533 237.944944,112.899596 C237.748665,112.87866 237.561548,112.85249 237.383589,112.821085 C237.205629,112.78968 237.045991,112.755659 236.90467,112.71902 C236.763349,112.682382 236.653434,112.645743 236.574923,112.609105 L236.97533,111.023177 Z M239.691819,107.796365 C239.854077,107.796365 240.013715,107.770195 240.170738,107.717854 C240.327761,107.665513 240.476931,107.596162 240.618252,107.509799 C240.759573,107.423436 240.893041,107.322681 241.01866,107.20753 C241.144278,107.09238 241.25681,106.974614 241.356258,106.85423 L242.212031,100.965886 C242.075944,100.908311 241.933316,100.866438 241.784144,100.840268 C241.634972,100.814097 241.476643,100.801012 241.309151,100.801012 C240.968934,100.801012 240.662743,100.87298 240.39057,101.016918 C240.118396,101.160856 239.87763,101.354515 239.668266,101.597901 C239.458902,101.841288 239.280945,102.125234 239.134389,102.449749 C238.987834,102.774263 238.867452,103.114475 238.773238,103.470395 C238.679024,103.826314 238.609673,104.187462 238.565183,104.55385 C238.520693,104.920238 238.498448,105.270918 238.498448,105.605901 C238.498448,106.307272 238.605746,106.847685 238.820344,107.227158 C239.034943,107.606631 239.325432,107.796365 239.691819,107.796365 Z M245.994598,105.519539 C245.999832,104.723954 246.128066,103.976796 246.379303,103.278042 C246.63054,102.579289 246.975986,101.968216 247.415652,101.444805 C247.855317,100.921394 248.370869,100.509214 248.962323,100.208252 C249.553778,99.907291 250.194947,99.7568126 250.885849,99.7568126 C251.299344,99.7568126 251.657875,99.8078444 251.961453,99.9099096 C252.265032,100.011975 252.516265,100.150677 252.715161,100.326019 C252.914057,100.501362 253.061919,100.709415 253.15875,100.950184 C253.255581,101.190953 253.306613,101.450037 253.311847,101.727445 C253.317081,102.146174 253.23857,102.524333 253.076313,102.861933 C252.914056,103.199533 252.696843,103.50049 252.42467,103.764812 C252.152496,104.029135 251.838454,104.256815 251.482535,104.44786 C251.126615,104.638905 250.76285,104.795926 250.391228,104.918927 C250.019606,105.041929 249.650607,105.136142 249.284219,105.201568 C248.917832,105.266994 248.588088,105.302324 248.294978,105.307558 C248.284509,105.647775 248.306754,105.969668 248.361712,106.273247 C248.41667,106.576825 248.506957,106.843761 248.632576,107.074061 C248.758195,107.304362 248.923067,107.487553 249.127197,107.62364 C249.331327,107.759727 249.57471,107.827769 249.857352,107.827769 C250.119057,107.827769 250.366365,107.795057 250.599283,107.72963 C250.832201,107.664204 251.05203,107.575225 251.258777,107.462692 C251.465525,107.350159 251.659184,107.219308 251.839761,107.070136 C252.020338,106.920964 252.189135,106.762634 252.346158,106.595143 L252.785821,107.333148 C252.675905,107.50064 252.517576,107.68514 252.310828,107.886653 C252.104081,108.088166 251.852847,108.279208 251.55712,108.459785 C251.261393,108.640362 250.923798,108.79084 250.544325,108.911225 C250.164852,109.031609 249.750055,109.091801 249.299922,109.091801 C248.703233,109.091801 248.194224,108.989737 247.772878,108.785607 C247.351532,108.581476 247.008703,108.311924 246.74438,107.976941 C246.480058,107.641958 246.287707,107.261182 246.167323,106.834602 C246.046938,106.408022 245.989364,105.969672 245.994598,105.519539 Z M248.31068,104.396828 C248.48864,104.386359 248.684916,104.354955 248.899514,104.302614 C249.114113,104.250273 249.328708,104.17438 249.543307,104.074931 C249.757905,103.975483 249.965958,103.856409 250.167471,103.717705 C250.368984,103.579001 250.545633,103.418055 250.697422,103.234861 C250.849211,103.051667 250.970902,102.850157 251.062499,102.630324 C251.154096,102.410492 251.197277,102.169726 251.192043,101.908021 C251.181575,101.520697 251.108298,101.235442 250.972211,101.052248 C250.836125,100.869054 250.645082,100.777459 250.399079,100.777459 C250.168778,100.777459 249.959417,100.835033 249.770989,100.950184 C249.582561,101.065334 249.415072,101.217121 249.268517,101.405549 C249.121962,101.593977 248.99242,101.812498 248.879887,102.061118 C248.767353,102.309738 248.673141,102.568823 248.597246,102.838379 C248.521351,103.107936 248.459852,103.377489 248.412745,103.647045 C248.365638,103.916602 248.331616,104.166527 248.31068,104.396828 Z M254.668416,107.13687 C254.752162,107.210148 254.864694,107.291275 255.006015,107.380255 C255.147336,107.469235 255.309591,107.55298 255.492785,107.631491 C255.675978,107.710003 255.874872,107.775428 256.08947,107.827769 C256.304069,107.88011 256.529132,107.906281 256.764667,107.906281 C256.916456,107.906281 257.074785,107.891887 257.23966,107.863099 C257.404534,107.834312 257.553704,107.780663 257.687174,107.702151 C257.820644,107.62364 257.930559,107.515034 258.016921,107.37633 C258.103284,107.237626 258.146465,107.060977 258.146465,106.846379 C258.146465,106.663185 258.109827,106.493079 258.036549,106.336056 C257.963272,106.179032 257.863825,106.028554 257.738206,105.884616 C257.612588,105.740678 257.463418,105.599359 257.290692,105.460655 C257.117967,105.321951 256.932159,105.181941 256.733262,105.04062 C256.571005,104.925469 256.398282,104.785459 256.215088,104.620585 C256.031894,104.45571 255.861788,104.26336 255.704765,104.043527 C255.547742,103.823694 255.418199,103.577695 255.316134,103.305521 C255.214069,103.033348 255.163037,102.729774 255.163037,102.394791 C255.163037,102.002232 255.24809,101.64501 255.418199,101.323112 C255.588307,101.001214 255.823839,100.723811 256.1248,100.490893 C256.425761,100.257975 256.784293,100.078709 257.200404,99.9530907 C257.616516,99.8274721 258.067951,99.7646637 258.554723,99.7646637 C258.764088,99.7646637 258.976066,99.7738233 259.190665,99.7921427 C259.405263,99.8104621 259.604156,99.8340152 259.78735,99.8628028 C259.970544,99.8915904 260.13149,99.9229946 260.270194,99.9570163 C260.408898,99.991038 260.51227,100.023751 260.580314,100.055155 L260.258418,101.539018 C260.221779,101.491911 260.156353,101.429103 260.062139,101.350591 C259.967925,101.272079 259.847543,101.194877 259.700988,101.118983 C259.554433,101.043088 259.386944,100.977663 259.198516,100.922705 C259.010088,100.867747 258.803344,100.840268 258.578277,100.840268 C258.410785,100.840268 258.249839,100.857279 258.095433,100.8913 C257.941026,100.925322 257.801016,100.981588 257.675397,101.060099 C257.549779,101.138611 257.447715,101.240675 257.369204,101.366293 C257.290692,101.491912 257.246203,101.643699 257.235734,101.821659 C257.225266,102.004852 257.248819,102.174958 257.306395,102.331982 C257.36397,102.489005 257.45164,102.640792 257.569407,102.787347 C257.687175,102.933902 257.831111,103.079146 258.001219,103.223084 C258.171328,103.367022 258.361061,103.517501 258.570426,103.674524 C258.785024,103.836782 258.991768,104.005579 259.190665,104.180922 C259.389561,104.356264 259.566209,104.548615 259.720616,104.757979 C259.875022,104.967344 259.99933,105.200258 260.093544,105.45673 C260.187758,105.713201 260.234864,106.006307 260.234864,106.336056 C260.234864,106.791423 260.139343,107.187901 259.948298,107.525501 C259.757253,107.863101 259.502094,108.145739 259.182813,108.373423 C258.863533,108.601106 258.493225,108.771212 258.071879,108.883746 C257.650533,108.996279 257.212183,109.052545 256.756816,109.052545 C256.510813,109.052545 256.259579,109.036843 256.003108,109.005438 C255.746636,108.974033 255.507179,108.93347 255.28473,108.883746 C255.06228,108.834022 254.866004,108.779064 254.695895,108.718872 C254.525787,108.65868 254.404096,108.599797 254.330818,108.542222 L254.668416,107.13687 Z M262.376546,107.647193 C262.376546,107.621023 262.377855,107.585693 262.380472,107.541203 C262.383089,107.496713 262.389632,107.42082 262.4001,107.313521 C262.410568,107.206221 262.42627,107.060977 262.447207,106.877783 C262.468143,106.694589 262.499547,106.44859 262.54142,106.139777 L263.208766,101.012993 L262.266631,101.012993 L262.447207,100.235731 L263.405044,99.8667284 C263.509726,99.7672803 263.614407,99.637738 263.719089,99.4780977 C263.823771,99.3184573 263.927143,99.1444258 264.029208,98.9559978 C264.131273,98.7675699 264.228103,98.5712937 264.3197,98.3671635 C264.411297,98.1630332 264.49635,97.966757 264.574862,97.7783291 L265.728977,97.7783291 L265.46989,99.8274727 L267.291351,99.8274727 L267.118626,101.012993 L265.320718,101.012993 L264.669075,105.833584 C264.627202,106.110991 264.595798,106.34914 264.574862,106.548036 C264.553925,106.746932 264.543457,106.917038 264.543457,107.058359 C264.543457,107.309596 264.586638,107.484936 264.673001,107.584384 C264.759363,107.683833 264.92031,107.733556 265.155845,107.733556 C265.255293,107.733556 265.367825,107.719162 265.493443,107.690375 C265.619062,107.661587 265.744679,107.62364 265.870297,107.576533 C265.995916,107.529426 266.118916,107.473161 266.2393,107.407734 C266.359685,107.342308 266.466982,107.272957 266.561196,107.199679 L266.733921,107.819918 C266.629239,107.945537 266.483994,108.080313 266.298184,108.224251 C266.112373,108.368189 265.89516,108.501657 265.64654,108.624659 C265.39792,108.74766 265.121825,108.849724 264.818246,108.930852 C264.514668,109.011981 264.195392,109.052545 263.860409,109.052545 C263.666747,109.052545 263.480939,109.0303 263.302979,108.98581 C263.12502,108.94132 262.96669,108.864118 262.827986,108.754202 C262.689282,108.644286 262.579368,108.499041 262.498239,108.318465 C262.41711,108.137888 262.376546,107.914133 262.376546,107.647193 Z" id="Your-daily-market-di" fill="#1199FF"></path>
                <path d="M0.487107916,45.004923 L16.4633211,45.004923 C25.8395249,45.004923 31.2347706,49.6144534 31.2347706,57.7858936 C31.2347706,66.376382 25.8395249,71.3525795 16.4633211,71.3525795 L9.81093069,71.3525795 L9.81093069,81.6716418 L0.487107916,81.6716418 L0.487107916,45.004923 Z M9.81093069,52.3382668 L9.81093069,64.0192358 L15.9918918,64.0192358 C20.0776119,64.0192358 22.4347581,61.9763757 22.4347581,58.1001797 C22.4347581,54.2763648 20.0776119,52.3382668 15.9918918,52.3382668 L9.81093069,52.3382668 Z M53.496707,44.6906369 C64.8633899,44.6906369 73.3491162,52.6525529 73.3491162,63.2859014 C73.3491162,73.9716309 64.8633899,82.09069 53.496707,82.09069 C42.1824053,82.09069 33.6966789,74.0240119 33.6966789,63.2859014 C33.6966789,52.6001719 42.1824053,44.6906369 53.496707,44.6906369 Z M53.6014691,52.4954099 C47.9443182,52.4954099 43.2300258,57.1573212 43.2300258,63.3382824 C43.2300258,69.5192436 47.9966992,74.285917 53.6014691,74.285917 C59.25862,74.285917 63.7633883,69.5192436 63.7633883,63.3382824 C63.7633883,57.1573212 59.25862,52.4954099 53.6014691,52.4954099 Z M119.496801,81.6716418 L131.596818,45.004923 L122.063471,45.004923 L114.992033,71.9811518 L107.815832,45.004923 L98.7015332,45.004923 L91.6824756,71.9811518 L84.5062749,45.004923 L74.5538798,45.004923 L86.549135,81.6716418 L96.1872439,81.6716418 L103.101539,56.3192248 L109.911073,81.6716418 L119.496801,81.6716418 Z M163.601625,52.3382668 L163.601625,45.004923 L134.896823,45.004923 L134.896823,81.6716418 L164.177817,81.6716418 L164.177817,74.338298 L144.220645,74.338298 L144.220645,66.9525733 L161.715908,66.9525733 L161.715908,59.6192295 L144.220645,59.6192295 L144.220645,52.3382668 L163.601625,52.3382668 Z M192.306428,81.6716418 L186.858801,71.3525795 L179.525458,71.3525795 L179.525458,81.6716418 L170.201635,81.6716418 L170.201635,45.004923 L186.596896,45.004923 C196.287386,45.004923 201.839775,49.6144534 201.839775,57.7858936 C201.839775,63.3906634 199.482629,67.4240025 195.187385,69.5716246 L202.887395,81.6716418 L192.306428,81.6716418 Z M179.525458,64.0192358 L186.596896,64.0192358 C190.630235,64.0192358 192.987381,61.9763757 192.987381,58.1001797 C192.987381,54.2763648 190.630235,52.3382668 186.596896,52.3382668 L179.525458,52.3382668 L179.525458,64.0192358 Z M233.320772,49.0382621 L233.320772,45.004923 L210.011215,45.004923 L210.011215,81.6716418 L214.201697,81.6716418 L214.201697,65.9573338 L231.330293,65.9573338 L231.330293,61.9239947 L214.201697,61.9239947 L214.201697,49.0382621 L233.320772,49.0382621 Z M264.382721,49.0382621 L264.382721,45.004923 L239.501733,45.004923 L239.501733,81.6716418 L265.063674,81.6716418 L265.063674,77.6906838 L243.692215,77.6906838 L243.692215,65.1192373 L262.182718,65.1192373 L262.182718,61.0858983 L243.692215,61.0858983 L243.692215,49.0382621 L264.382721,49.0382621 Z M298.482769,49.0382621 L298.482769,45.004923 L273.601782,45.004923 L273.601782,81.6716418 L299.163723,81.6716418 L299.163723,77.6906838 L277.792264,77.6906838 L277.792264,65.1192373 L296.282766,65.1192373 L296.282766,61.0858983 L277.792264,61.0858983 L277.792264,49.0382621 L298.482769,49.0382621 Z M307.70183,45.004923 L322.525661,45.004923 C333.21139,45.004923 341.38283,52.9144581 341.38283,63.3382824 C341.38283,73.7621067 333.159009,81.6716418 322.368518,81.6716418 L307.70183,81.6716418 L307.70183,45.004923 Z M311.892312,49.0382621 L311.892312,77.6906838 L322.578042,77.6906838 C330.749482,77.6906838 337.139967,71.5621036 337.139967,63.3906634 C337.139967,55.1668422 330.64472,49.0382621 322.420899,49.0382621 L311.892312,49.0382621 Z" id="POWERFEED" fill="#383838"></path>
                <g id="Group-17" transform="translate(134.417910, 0.000000)">
                    <g id="Fill-1">
                        <use fill="url(#linearGradient-1)" xlink:href="#path-3"></use>
                        <use fill="url(#linearGradient-2)" xlink:href="#path-3"></use>
                    </g>
                    <g id="Fill-3">
                        <use fill="url(#linearGradient-2)" xlink:href="#path-5"></use>
                        <use fill="url(#linearGradient-4)" style="mix-blend-mode: multiply;" xlink:href="#path-5"></use>
                    </g>
                </g>
            </g>
        </g>
    </g>
</svg>