<?xml version="1.0" encoding="UTF-8"?>
<svg width="385px" height="91px" viewBox="0 0 385 91" version="1.1" xmlns="http://www.w3.org/2000/svg" xmlns:xlink="http://www.w3.org/1999/xlink">
    <!-- Generator: Sketch 43.2 (39069) - http://www.bohemiancoding.com/sketch -->
    <title>Group 18</title>
    <desc>Created with Sketch.</desc>
    <defs></defs>
    <g id="Desktop" stroke="none" stroke-width="1" fill="none" fill-rule="evenodd">
        <g id="Group-18">
            <path d="M31.5507426,28.1627486 L31.5507426,0.297093788 L23.8389922,0.297093788 L16.2862469,16.873382 L8.7335017,0.297093788 L0.982,0.297093788 L0.982,28.1627486 L7.30245523,28.1627486 L7.30245523,10.0759113 L13.9806721,25.3801582 L18.5918218,25.3801582 L25.2700386,10.0759113 L25.3097899,28.1627486 L31.5507426,28.1627486 Z M50.3531031,0.0983373338 C58.9791332,0.0983373338 65.4188423,6.14053353 65.4188423,14.2100455 C65.4188423,22.3193089 58.9791332,28.4807589 50.3531031,28.4807589 C41.7668243,28.4807589 35.3271152,22.3590602 35.3271152,14.2100455 C35.3271152,6.10078224 41.7668243,0.0983373338 50.3531031,0.0983373338 Z M50.4326057,6.02127966 C46.1394663,6.02127966 42.5618501,9.55914453 42.5618501,14.2497968 C42.5618501,18.9404491 46.1792176,22.5578166 50.4326057,22.5578166 C54.7257451,22.5578166 58.1443561,18.9404491 58.1443561,14.2497968 C58.1443561,9.55914453 54.7257451,6.02127966 50.4326057,6.02127966 Z M85.9305083,28.1627486 L81.7963741,20.3317443 L76.2311934,20.3317443 L76.2311934,28.1627486 L69.1554636,28.1627486 L69.1554636,0.336845078 L81.5976176,0.336845078 C88.9516064,0.336845078 93.1652432,3.83495866 93.1652432,10.03616 C93.1652432,14.2895481 91.3764352,17.3503975 88.1168293,18.9802004 L93.9602691,28.1627486 L85.9305083,28.1627486 Z M76.2311934,14.7665636 L81.5976176,14.7665636 C84.658467,14.7665636 86.4472751,13.2162633 86.4472751,10.2746678 C86.4472751,7.37282354 84.658467,5.90202578 81.5976176,5.90202578 L76.2311934,5.90202578 L76.2311934,14.7665636 Z M123.614732,28.1627486 L123.614732,0.336845078 L117.016018,0.336845078 L117.016018,17.5094027 L104.176351,0.336845078 L97.9353981,0.336845078 L97.9353981,28.1627486 L104.573864,28.1627486 L104.573864,11.0299423 L117.373779,28.1627486 L123.614732,28.1627486 Z M136.255642,28.1627486 L136.255642,0.336845078 L129.179913,0.336845078 L129.179913,28.1627486 L136.255642,28.1627486 Z M167.500157,28.1627486 L167.500157,0.336845078 L160.901443,0.336845078 L160.901443,17.5094027 L148.061776,0.336845078 L141.820823,0.336845078 L141.820823,28.1627486 L148.459289,28.1627486 L148.459289,11.0299423 L161.259204,28.1627486 L167.500157,28.1627486 Z M191.549688,14.0112891 L191.549688,21.2062727 C189.880134,22.0410498 188.051574,22.5578166 186.620528,22.5578166 C182.009378,22.5578166 178.471513,18.9802004 178.471513,14.2497968 C178.471513,9.59889582 181.969627,6.02127966 186.541025,6.02127966 C189.124859,6.02127966 191.947201,7.17406709 193.974517,9.04237775 L197.949646,4.23247157 C195.087553,1.68838896 190.714911,0.0983373338 186.580776,0.0983373338 C177.795741,0.0983373338 171.236778,6.18028482 171.236778,14.2497968 C171.236778,22.3590602 177.636736,28.4807589 186.103761,28.4807589 C189.999388,28.4807589 194.69004,26.9702099 197.671387,24.8633915 L197.671387,14.0112891 L191.549688,14.0112891 Z M207.211696,28.1627486 L207.211696,0.336845078 L204.031593,0.336845078 L204.031593,28.1627486 L207.211696,28.1627486 Z M238.774221,28.1627486 L238.774221,0.336845078 L235.633869,0.336845078 L235.633869,22.7168218 L218.938327,0.336845078 L215.63897,0.336845078 L215.63897,28.1627486 L218.819073,28.1627486 L218.819073,5.8225232 L235.514615,28.1627486 L238.774221,28.1627486 Z M255.509515,0.217591206 C249.745577,0.217591206 245.889702,3.03993285 245.889702,7.41257483 C245.889702,17.3901488 261.551711,13.4945223 261.51196,20.8087598 C261.51196,23.4720963 259.007628,25.1018992 254.992748,25.1018992 C251.852396,25.1018992 248.314531,23.6708527 245.730697,21.1665214 L244.299651,24.0286144 C246.923236,26.5329457 250.898365,28.2820025 254.952997,28.2820025 C260.91569,28.2820025 265.010073,25.3006557 265.010073,20.6497547 C265.049824,10.5529268 249.387816,14.2895481 249.387816,7.1343158 C249.387816,4.78898964 251.733142,3.43744576 255.310758,3.43744576 C257.53683,3.43744576 260.478426,4.1132177 262.982757,5.78277191 L264.334301,2.8014251 C262.028726,1.25112477 258.729369,0.217591206 255.509515,0.217591206 Z M274.709388,28.1627486 L274.709388,0.336845078 L271.529285,0.336845078 L271.529285,28.1627486 L274.709388,28.1627486 Z M302.535292,14.5678072 L302.535292,22.9553295 C300.388722,24.4261273 297.725385,25.3006557 295.221054,25.3006557 C288.860848,25.3006557 283.732931,20.4112469 283.732931,14.2497968 C283.732931,8.12809806 288.821096,3.2386893 295.181303,3.2386893 C298.281903,3.2386893 301.342753,4.43122803 303.608576,6.45854385 L305.437136,4.07346641 C302.773799,1.72814025 299.037178,0.257342497 295.181303,0.257342497 C286.992537,0.257342497 280.513077,6.41879256 280.513077,14.2497968 C280.513077,22.0808011 286.952786,28.3217538 295.022298,28.3217538 C298.758919,28.3217538 302.614794,26.850956 305.357633,24.664635 L305.357633,14.5678072 L302.535292,14.5678072 Z M336.204635,28.1627486 L336.204635,0.336845078 L333.024532,0.336845078 L333.024532,12.898253 L316.249487,12.898253 L316.249487,0.336845078 L313.069384,0.336845078 L313.069384,28.1627486 L316.249487,28.1627486 L316.249487,15.9193511 L333.024532,15.9193511 L333.024532,28.1627486 L336.204635,28.1627486 Z M362.201979,3.39769447 L362.201979,0.336845078 L340.855536,0.336845078 L340.855536,3.39769447 L349.91883,3.39769447 L349.91883,28.1627486 L353.098933,28.1627486 L353.098933,3.39769447 L362.201979,3.39769447 Z M375.081397,0.217591206 C369.31746,0.217591206 365.461585,3.03993285 365.461585,7.41257483 C365.461585,17.3901488 381.123593,13.4945223 381.083842,20.8087598 C381.083842,23.4720963 378.579511,25.1018992 374.56463,25.1018992 C371.424278,25.1018992 367.886414,23.6708527 365.30258,21.1665214 L363.871533,24.0286144 C366.495118,26.5329457 370.470247,28.2820025 374.524879,28.2820025 C380.487573,28.2820025 384.581956,25.3006557 384.581956,20.6497547 C384.621707,10.5529268 368.959698,14.2895481 368.959698,7.1343158 C368.959698,4.78898964 371.305025,3.43744576 374.882641,3.43744576 C377.108713,3.43744576 380.050309,4.1132177 382.55464,5.78277191 L383.906184,2.8014251 C381.600609,1.25112477 378.301252,0.217591206 375.081397,0.217591206 Z" id="MORNINGINSIGHTS" fill="#383838"></path>
            <path d="M74.1858023,80.8286211 L76.4567501,80.3521985 L79.0770744,60.2789259 L76.8537689,59.8819071 L77.0602187,58.1985472 L81.7291603,58.1985472 C82.576138,58.18796 83.4178095,58.142965 84.2542001,58.0635608 C85.0905906,57.9841566 85.9799039,57.9444552 86.9221667,57.9444552 C88.3302672,57.9444552 89.5027845,58.0900273 90.4397536,58.3811759 C91.3767227,58.6723245 92.1257575,59.0561055 92.6868802,59.5325305 C93.248003,60.0089555 93.6476646,60.556836 93.8858771,61.1761885 C94.1240896,61.795541 94.2537811,62.4334116 94.2749556,63.0898193 C94.3173045,64.8261237 93.8673543,66.2183225 92.9250915,67.2664575 C91.9828288,68.3145925 90.6276847,69.0821546 88.8596186,69.5691668 C89.6536603,69.6009284 90.3762273,69.7517941 91.0273415,70.0217683 C91.6784556,70.2917424 92.2342765,70.6490558 92.6948206,71.0937191 C93.1553648,71.5383824 93.5100314,72.051855 93.7588311,72.6341522 C94.0076308,73.2164494 94.1373223,73.8357926 94.1479096,74.4922004 C94.1584968,75.9638242 93.896467,77.2157445 93.3618123,78.2479986 C92.8271576,79.2802528 92.0701825,80.1219243 91.0908645,80.7730384 C90.1115465,81.4241526 88.9310889,81.8979237 87.5494565,82.1943659 C86.167824,82.4908081 84.6353466,82.639027 82.9519783,82.639027 C82.6026,82.639027 82.2267592,82.6257931 81.8244448,82.5993251 C81.4221303,82.572857 81.0171752,82.5410958 80.6095671,82.5040406 C80.2019591,82.4669853 79.8022975,82.4352241 79.4105702,82.408756 C79.018843,82.382288 78.6588829,82.3690542 78.330679,82.3690542 L74.0428755,82.3690542 L74.1858023,80.8286211 Z M82.3167481,68.7910099 C82.6978881,68.8121843 83.0790224,68.8201246 83.4601624,68.814831 C83.8413024,68.8095374 84.2383173,68.8068906 84.6512189,68.8068906 C85.3817372,68.8068906 86.0751899,68.7089603 86.7315976,68.5130967 C87.3880054,68.3172331 87.9597068,68.0049147 88.446719,67.5761322 C88.9337312,67.1473497 89.3148655,66.5968224 89.5901333,65.9245338 C89.8654011,65.2522452 89.9924458,64.4449817 89.9712714,63.5027189 C89.9289225,62.3063628 89.5848429,61.4038157 88.9390224,60.7950504 C88.2932018,60.1862852 87.2821373,59.8819071 85.9057985,59.8819071 C85.789339,59.8819071 85.6305331,59.8872006 85.4293758,59.8977878 C85.2282186,59.9083751 85.0138306,59.9216089 84.7862053,59.9374897 C84.5585801,59.9533706 84.3283114,59.9745447 84.0953925,60.0010127 C83.8624737,60.0274808 83.6507324,60.0565952 83.4601624,60.0883569 L82.3167481,68.7910099 Z M80.8080766,80.3521985 C80.9986466,80.4051346 81.2209749,80.4527764 81.4750682,80.4951252 C81.7291615,80.5374741 81.9885446,80.5718821 82.2532251,80.5983501 C82.5179057,80.6248182 82.7719952,80.6459923 83.0155013,80.6618732 C83.2590074,80.677754 83.4654551,80.6856943 83.6348507,80.6856943 C84.555939,80.6856943 85.3790832,80.5771769 86.1043079,80.3601388 C86.8295326,80.1431008 87.4435822,79.8043148 87.9464753,79.3437706 C88.4493683,78.8832265 88.8252091,78.2903509 89.0740088,77.5651262 C89.3228085,76.8399015 89.4313259,75.9691156 89.3995642,74.9527422 C89.3783898,74.27516 89.2778127,73.6822845 89.0978299,73.1740978 C88.9178472,72.6659112 88.6399367,72.2424287 88.2640904,71.9036376 C87.888244,71.5648465 87.4091794,71.3134037 86.8268822,71.1493018 C86.244585,70.9851998 85.5458388,70.9031501 84.7306227,70.9031501 C84.3706571,70.9031501 84.055692,70.9057968 83.7857179,70.9110905 C83.5157437,70.9163841 83.274888,70.9243244 83.0631436,70.9349116 C82.8513991,70.9454988 82.660832,70.9560859 82.4914364,70.9666731 C82.3220409,70.9772603 82.1685285,70.9878474 82.0308946,70.9984346 L80.8080766,80.3521985 Z M95.8120007,87.022115 C95.9178729,87.1068127 96.0660918,87.194156 96.2566618,87.2841474 C96.4472318,87.3741388 96.6669134,87.4588353 96.9157131,87.5382395 C97.1645128,87.6176436 97.4371297,87.6838128 97.7335719,87.7367489 C98.0300141,87.789685 98.337039,87.8161526 98.6546556,87.8161526 C99.0781445,87.8161526 99.5175076,87.7393964 99.9727582,87.5858817 C100.428009,87.432367 100.888546,87.1809242 101.354384,86.8315459 C101.820221,86.4821676 102.286052,86.0242771 102.75189,85.4578607 C103.217728,84.8914444 103.678265,84.195345 104.133516,83.3695416 L101.68788,83.3695416 L98.5593711,67.3776228 C98.4852605,67.0494189 98.3979173,66.8191503 98.2973387,66.68681 C98.19676,66.5544697 98.061775,66.4883006 97.8923794,66.4883006 C97.7653328,66.4883006 97.6250542,66.5121215 97.4715395,66.559764 C97.3180248,66.6074065 97.1195173,66.7318045 96.8760112,66.9329617 L96.4154694,65.8213089 C96.4895799,65.7154367 96.6404456,65.5566308 96.8680708,65.3448863 C97.0956961,65.1331419 97.3815468,64.9214006 97.7256315,64.7096562 C98.0697162,64.4979117 98.4587908,64.3099914 98.8928669,64.1458894 C99.326943,63.9817875 99.7821867,63.8997377 100.258612,63.8997377 C100.692688,63.8997377 101.063235,63.9500263 101.370264,64.0506049 C101.677294,64.1511835 101.93403,64.2941089 102.140481,64.4793853 C102.346932,64.6646616 102.505738,64.8922835 102.616904,65.1622577 C102.728069,65.4322318 102.810119,65.7366099 102.863055,66.075401 C102.926579,66.4671282 103.003335,66.9832475 103.093326,67.6237745 C103.183318,68.2643014 103.283895,68.9683411 103.395061,69.7359147 C103.506226,70.5034883 103.617391,71.3028116 103.728556,72.1339085 C103.839722,72.9650054 103.94824,73.7616819 104.054112,74.5239619 C104.159984,75.2862419 104.257914,75.9876348 104.347906,76.6281617 C104.437897,77.2686887 104.514653,77.784808 104.578177,78.1765352 L104.975196,81.8291085 L106.626794,78.446508 C106.976172,77.6524664 107.317605,76.8743172 107.651103,76.1120373 C107.9846,75.3497573 108.281038,74.5901355 108.540425,73.8331491 C108.799812,73.0761627 109.006259,72.3218345 109.159774,71.5701417 C109.313289,70.818449 109.390045,70.0508869 109.390045,69.2674325 C109.390045,68.8757052 109.35299,68.5448595 109.27888,68.2748854 C109.204769,68.0049112 109.122719,67.7508217 109.032728,67.5126092 C108.942737,67.2743967 108.860687,67.0282475 108.786576,66.7741541 C108.712466,66.5200608 108.675411,66.213036 108.675411,65.8530704 C108.675411,65.2495988 108.855391,64.7731809 109.215357,64.4238026 C109.575322,64.0744243 110.088795,63.8997377 110.75579,63.8997377 C111.179279,63.8997377 111.549826,63.9844343 111.867443,64.1538298 C112.185059,64.3232254 112.447089,64.5508472 112.65354,64.8367022 C112.859991,65.1225572 113.01615,65.4560497 113.122022,65.8371897 C113.227894,66.2183297 113.28083,66.6259316 113.28083,67.0600077 C113.28083,67.9387471 113.19084,68.7804187 113.010857,69.5850475 C112.830874,70.3896764 112.597959,71.1810594 112.312104,71.9592202 C112.026249,72.737381 111.69805,73.5049431 111.327497,74.2619295 C110.956944,75.0189158 110.581103,75.7785376 110.199963,76.5408176 C109.691777,77.5889526 109.159777,78.623838 108.603948,79.6455049 C108.048119,80.6671718 107.505532,81.6279478 106.97617,82.5278617 C106.446809,83.4277756 105.943924,84.2429794 105.467499,84.9734978 C104.991074,85.7040161 104.588766,86.3074787 104.260562,86.7839037 C103.455933,88.0649575 102.518978,89.0045594 101.449668,89.6027374 C100.380359,90.2009155 99.1840207,90.5 97.8606179,90.5 C97.6065246,90.5 97.3259674,90.4814726 97.018938,90.4444174 C96.7119086,90.4073621 96.4154708,90.3623671 96.1296158,90.309431 C95.8437608,90.2564948 95.581731,90.1929725 95.3435185,90.1188619 C95.105306,90.0447514 94.9226792,89.9759354 94.7956325,89.9124121 L95.8120007,87.022115 Z M125.343426,81.0033094 C125.661043,79.4575749 125.944247,77.8324607 126.193047,76.127918 C126.441846,74.4233753 126.674762,72.6844501 126.8918,70.9110905 C127.108838,69.1377308 127.312639,67.3538106 127.503209,65.5592765 C127.693779,63.7647424 127.88964,62.0046431 128.090797,60.2789259 L125.788088,59.8819071 L126.026299,58.1985472 L135.062448,58.1985472 L134.887759,59.8819071 L132.521527,60.2630452 C132.341544,61.8723029 132.158917,63.4735962 131.973641,65.0669731 C131.788365,66.66035 131.608385,68.1875339 131.433695,69.6485705 C131.259006,71.1096072 131.09226,72.4859254 130.933452,73.7775665 C130.774643,75.0692076 130.623778,76.2205507 130.48085,77.2316304 C130.337923,78.2427101 130.208231,79.0896751 130.091772,79.772551 C129.975312,80.4554268 129.874735,80.9239043 129.790037,81.1779976 C129.451246,82.1731965 128.972182,83.0545695 128.352829,83.8221431 C127.733477,84.5897167 127.01885,85.2461146 126.208928,85.7913566 C125.399005,86.3365985 124.522926,86.7786084 123.580663,87.1173995 C122.6384,87.4561906 121.680271,87.699693 120.706246,87.8479142 L120.007493,86.2757195 C120.801535,86.0428007 121.505575,85.7331291 122.119633,85.3466955 C122.733692,84.9602619 123.263045,84.5314858 123.707709,84.0603544 C124.152372,83.589223 124.509686,83.0916311 124.77966,82.5675636 C125.049634,82.0434961 125.237554,81.5220832 125.343426,81.0033094 Z M136.154832,75.4291648 C136.12307,74.4127915 136.20512,73.4202544 136.400983,72.4515236 C136.596847,71.4827927 136.887991,70.5696585 137.274425,69.7120936 C137.660858,68.8545286 138.137276,68.0684391 138.703693,67.3538017 C139.270109,66.6391642 139.91592,66.0251145 140.641145,65.5116342 C141.366369,64.998154 142.163046,64.5984923 143.031198,64.3126373 C143.89935,64.0267823 144.831012,63.883857 145.826211,63.883857 C148.007178,63.883857 149.679934,64.5111405 150.844529,65.7657263 C152.009123,67.0203121 152.617879,68.8227596 152.670815,71.1731229 C152.69199,72.1894962 152.607293,73.1846801 152.416723,74.1587046 C152.226153,75.132729 151.937656,76.04851 151.551222,76.9060749 C151.164789,77.7636399 150.685724,78.5523761 150.114014,79.2723072 C149.542304,79.9922383 148.893846,80.6089347 148.168622,81.122415 C147.443397,81.6358953 146.644074,82.0382037 145.770628,82.3293523 C144.897182,82.6205009 143.968167,82.766073 142.983556,82.766073 C140.792001,82.766073 139.124538,82.1308492 137.981118,80.8603826 C136.837698,79.5899159 136.228942,77.7795281 136.154832,75.4291648 Z M143.634667,80.7650981 C144.174615,80.7650981 144.658973,80.6248195 145.087756,80.3442581 C145.516538,80.0636967 145.895026,79.6825624 146.223229,79.2008438 C146.551433,78.7191252 146.83199,78.1580109 147.064909,77.5174839 C147.297828,76.876957 147.483102,76.2020317 147.620736,75.4926879 C147.75837,74.783344 147.8563,74.0554834 147.91453,73.3090842 C147.972759,72.5626851 147.99658,71.840118 147.985993,71.1413614 C147.943644,69.3521209 147.694848,68.0472653 147.239598,67.2267556 C146.784347,66.4062459 146.122656,65.9959972 145.254503,65.9959972 C144.714555,65.9959972 144.22755,66.133629 143.793474,66.4088968 C143.359398,66.6841646 142.97297,67.0600053 142.634179,67.5364303 C142.295388,68.0128553 142.006891,68.5633826 141.768678,69.1880287 C141.530466,69.8126748 141.337252,70.477013 141.189031,71.1810633 C141.040809,71.8851135 140.934939,72.6023871 140.871415,73.3329054 C140.807892,74.0634237 140.786718,74.7727569 140.807892,75.4609264 C140.850241,77.2607541 141.096391,78.5947241 141.546348,79.4628763 C141.996304,80.3310285 142.692404,80.7650981 143.634667,80.7650981 Z M158.908564,58.8337774 L156.955231,58.150905 L157.225204,56.8328024 L162.719944,56.1658108 L163.561624,56.5945911 L162.132357,67.8381646 C162.513497,67.2770419 162.936979,66.755629 163.402817,66.2739104 C163.868655,65.7921918 164.366247,65.3766496 164.895608,65.0272713 C165.424969,64.6778929 165.986083,64.4026293 166.578968,64.2014721 C167.171852,64.0003148 167.785902,63.8997377 168.421135,63.8997377 C169.003432,63.8997377 169.535432,63.9817875 170.017151,64.1458894 C170.498869,64.3099914 170.914412,64.5799615 171.26379,64.9558079 C171.613168,65.3316542 171.883138,65.8265994 172.073708,66.4406583 C172.264278,67.0547172 172.359562,67.8063987 172.359562,68.6957253 C172.359562,69.0027548 172.333094,69.3865358 172.280158,69.84708 C172.227222,70.3076241 172.161053,70.7972758 172.081649,71.3160497 C172.002245,71.8348235 171.917548,72.3588832 171.827557,72.8882443 C171.737565,73.4176054 171.650222,73.9046103 171.565524,74.3492736 C171.502001,74.751588 171.430538,75.169777 171.351134,75.6038531 C171.27173,76.0379292 171.200267,76.4667053 171.136744,76.8901942 C171.073221,77.3136831 171.017638,77.7239318 170.969996,78.1209526 C170.922353,78.5179734 170.893239,78.8911674 170.882652,79.2405457 C170.872065,79.6216857 170.911766,79.8863623 171.001757,80.0345834 C171.091749,80.1828045 171.216147,80.2569139 171.374955,80.2569139 C171.554938,80.2569139 171.753445,80.2039786 171.970483,80.0981064 C172.187521,79.9922342 172.502487,79.7804929 172.915388,79.4628763 L173.391811,80.4633637 C173.3177,80.5798232 173.161541,80.76245 172.923329,81.0112497 C172.685116,81.2600495 172.378091,81.5088454 172.002245,81.7576452 C171.626399,82.0064449 171.187035,82.2261264 170.684142,82.4166964 C170.181249,82.6072664 169.622782,82.70255 169.008723,82.70255 C168.468775,82.70255 168.024118,82.6443211 167.67474,82.5278617 C167.325361,82.4114023 167.050098,82.244656 166.84894,82.027618 C166.647783,81.8105799 166.510151,81.5538436 166.436041,81.2574014 C166.36193,80.9609592 166.330169,80.6274667 166.340756,80.2569139 C166.351343,79.9710589 166.380458,79.6349197 166.4281,79.2484861 C166.475743,78.8620525 166.533972,78.4544506 166.602789,78.0256681 C166.671606,77.5968856 166.748362,77.1522289 166.83306,76.6916848 C166.917757,76.2311406 167.002454,75.7785437 167.087152,75.3338803 C167.171849,74.889217 167.261839,74.4048589 167.357124,73.8807914 C167.452409,73.3567239 167.539753,72.8194304 167.619157,72.2688949 C167.698561,71.7183593 167.762083,71.1704788 167.809726,70.6252369 C167.857368,70.079995 167.881189,69.5691692 167.881189,69.0927442 C167.881189,68.5951447 167.844135,68.1928363 167.770024,67.8858069 C167.695914,67.5787775 167.59269,67.3432153 167.460349,67.1791134 C167.328009,67.0150114 167.17185,66.9038473 166.991867,66.8456175 C166.811884,66.7873878 166.61073,66.7582734 166.388399,66.7582734 C166.028433,66.7582734 165.644652,66.8614973 165.237044,67.0679481 C164.829436,67.2743989 164.421834,67.5549561 164.014226,67.909628 C163.606618,68.2643 163.209603,68.682489 162.823169,69.1642076 C162.436736,69.6459262 162.084716,70.156752 161.767099,70.6967003 L160.290189,82.3690542 L155.970624,82.3690542 L158.908564,58.8337774 Z M179.200779,67.0758885 L177.565061,66.138924 L177.835034,64.7255369 L182.853352,63.8997377 L183.64739,64.2808758 L183.377417,67.5681918 C183.758557,67.0388307 184.182039,66.5491791 184.647877,66.0992221 C185.113715,65.6492652 185.60866,65.2628374 186.132728,64.9399271 C186.656795,64.6170168 187.207322,64.3629273 187.784326,64.1776509 C188.36133,63.9923746 188.951558,63.8997377 189.55503,63.8997377 C190.137327,63.8997377 190.669327,63.9817875 191.151046,64.1458894 C191.632764,64.3099914 192.048307,64.5799615 192.397685,64.9558079 C192.747063,65.3316542 193.017033,65.8265994 193.207603,66.4406583 C193.398173,67.0547172 193.493457,67.8063987 193.493457,68.6957253 C193.493457,69.0027548 193.466989,69.3865358 193.414053,69.84708 C193.361117,70.3076241 193.294948,70.7972758 193.215544,71.3160497 C193.13614,71.8348235 193.048796,72.3588832 192.953511,72.8882443 C192.858226,73.4176054 192.77353,73.9046103 192.699419,74.3492736 C192.635896,74.751588 192.564433,75.169777 192.485029,75.6038531 C192.405625,76.0379292 192.334162,76.4667053 192.270639,76.8901942 C192.207116,77.3136831 192.151533,77.7239318 192.103891,78.1209526 C192.056248,78.5179734 192.027134,78.8911674 192.016547,79.2405457 C192.00596,79.6216857 192.045661,79.8863623 192.135652,80.0345834 C192.225644,80.1828045 192.350042,80.2569139 192.50885,80.2569139 C192.667659,80.2569139 192.847639,80.2066254 193.048796,80.1060468 C193.249953,80.0054682 193.541097,79.8122543 193.922237,79.5263993 L194.382779,80.5427675 C194.308669,80.6486397 194.157803,80.8206795 193.930178,81.058892 C193.702552,81.2971045 193.406115,81.5379602 193.040855,81.7814663 C192.675596,82.0249724 192.249467,82.2393604 191.762455,82.4246368 C191.275443,82.6099132 190.735502,82.70255 190.142618,82.70255 C189.60267,82.70255 189.158013,82.6390276 188.808635,82.5119809 C188.459256,82.3849343 188.183993,82.2102477 187.982835,81.9879161 C187.781678,81.7655844 187.644046,81.5062014 187.569936,81.2097592 C187.495825,80.9133169 187.464064,80.595705 187.474651,80.2569139 C187.485239,79.9710589 187.514353,79.6349197 187.561995,79.2484861 C187.609638,78.8620525 187.667867,78.4544506 187.736684,78.0256681 C187.805501,77.5968856 187.882257,77.1522289 187.966955,76.6916848 C188.051652,76.2311406 188.136349,75.7785437 188.221047,75.3338803 C188.295157,74.889217 188.379854,74.4048589 188.475139,73.8807914 C188.570424,73.3567239 188.657767,72.8194304 188.737171,72.2688949 C188.816575,71.7183593 188.882745,71.1704788 188.935681,70.6252369 C188.988617,70.079995 189.015084,69.5691692 189.015084,69.0927442 C189.015084,68.5951447 188.980676,68.1928363 188.911859,67.8858069 C188.843043,67.5787775 188.747759,67.3432153 188.626006,67.1791134 C188.504253,67.0150114 188.35074,66.9038473 188.165464,66.8456175 C187.980188,66.7873878 187.7658,66.7582734 187.522294,66.7582734 C187.172915,66.7582734 186.799721,66.8562037 186.4027,67.0520673 C186.00568,67.2479309 185.606018,67.5152543 185.203704,67.8540454 C184.801389,68.1928365 184.412315,68.5924981 184.036468,69.0530423 C183.660622,69.5135864 183.313895,70.0085316 182.996279,70.5378927 L181.376442,82.3690542 L177.136281,82.3690542 L179.200779,67.0758885 Z M206.397734,76.4614138 L209.049819,76.4614138 L209.303912,79.7010876 C209.706226,79.9975298 210.182644,80.2489725 210.733179,80.4554234 C211.283715,80.6618742 211.908352,80.7650981 212.607108,80.7650981 C213.274103,80.7650981 213.882859,80.6883418 214.433395,80.5348271 C214.98393,80.3813124 215.462995,80.1536905 215.870603,79.8519547 C216.278211,79.5502189 216.595823,79.1796717 216.823448,78.740302 C217.051074,78.3009323 217.175472,77.7954 217.196646,77.22369 C217.207233,76.65198 217.12783,76.1358607 216.958435,75.6753165 C216.789039,75.2147724 216.532303,74.778056 216.188218,74.3651544 C215.844133,73.9522527 215.418004,73.5525911 214.909818,73.1661575 C214.401631,72.7797239 213.824636,72.3800622 213.178815,71.9671606 C212.501233,71.5436717 211.844835,71.0857812 211.209602,70.5934754 C210.574369,70.1011696 210.013254,69.5638761 209.526242,68.9815789 C209.03923,68.3992817 208.647509,67.7614111 208.351066,67.0679481 C208.054624,66.374485 207.906405,65.6042762 207.906405,64.7572984 C207.895818,63.687989 208.104912,62.727213 208.533695,61.8749417 C208.962477,61.0226703 209.555353,60.30275 210.312339,59.7151592 C211.069326,59.1275684 211.961286,58.6776182 212.988246,58.3652951 C214.015207,58.0529721 215.121555,57.8968129 216.307324,57.8968129 C217.12254,57.8968129 217.853047,57.9338676 218.498868,58.0079782 C219.144688,58.0820887 219.71639,58.1773723 220.213989,58.2938317 C220.711589,58.4102912 221.137718,58.5426295 221.49239,58.6908506 C221.847062,58.8390717 222.146146,58.9872906 222.389652,59.1355117 L221.595615,63.6615264 L219.149979,63.6615264 L218.689437,60.6441833 C218.340059,60.3900899 217.94569,60.1915825 217.506321,60.048655 C217.066951,59.9057275 216.556125,59.8342648 215.973828,59.8342648 C215.444467,59.8342648 214.944228,59.9030807 214.473097,60.0407146 C214.001965,60.1783485 213.591717,60.3768559 213.242338,60.6362429 C212.89296,60.8956298 212.61505,61.221182 212.408599,61.6129092 C212.202148,62.0046364 212.098924,62.4545866 212.098924,62.9627733 C212.098924,63.5768322 212.196854,64.1300062 212.392718,64.622312 C212.588582,65.1146179 212.869139,65.5804486 213.234398,66.0198184 C213.599657,66.4591881 214.049607,66.8800238 214.584262,67.2823383 C215.118917,67.6846527 215.725026,68.0975482 216.402608,68.521037 C217.059016,68.9339387 217.691593,69.3706551 218.300358,69.8311992 C218.909124,70.2917434 219.449064,70.7972756 219.920195,71.3478112 C220.391327,71.8983467 220.769814,72.5071029 221.055669,73.1740978 C221.341524,73.8410928 221.489743,74.5821872 221.50033,75.3974033 C221.510918,76.4349511 221.317704,77.4010206 220.920683,78.2956409 C220.523662,79.1902611 219.946667,79.9657635 219.189681,80.6221713 C218.432694,81.278579 217.503679,81.7946984 216.402608,82.1705447 C215.301537,82.5463911 214.04697,82.7343115 212.63887,82.7343115 C211.813066,82.7343115 211.01639,82.6840229 210.248816,82.5834443 C209.481243,82.4828657 208.782497,82.3584677 208.152557,82.2102466 C207.522617,82.0620255 206.982677,81.9005728 206.53272,81.7258836 C206.082763,81.5511945 205.762504,81.3897418 205.571934,81.2415207 L206.397734,76.4614138 Z M230.676018,82.6866692 C229.75493,82.6866692 228.929139,82.5278633 228.19862,82.2102466 C227.468102,81.89263 226.848759,81.4241524 226.340572,80.8047999 C225.832385,80.1854475 225.438017,79.4205321 225.157456,78.510031 C224.876895,77.59953 224.731323,76.5514107 224.720735,75.3656418 C224.710148,74.5080769 224.794845,73.6293506 224.974827,72.7294367 C225.15481,71.8295229 225.42478,70.9534434 225.784746,70.101172 C226.144711,69.2489007 226.597308,68.4469306 227.14255,67.6952379 C227.687792,66.9435451 228.328309,66.2871472 229.064121,65.7260244 C229.799933,65.1649016 230.625724,64.720245 231.541519,64.3920411 C232.457314,64.0638372 233.471025,63.8997377 234.582683,63.8997377 C234.889713,63.8997377 235.212618,63.9156183 235.551409,63.94738 C235.8902,63.9791417 236.228986,64.0214899 236.567777,64.074426 C236.906569,64.1273621 237.232121,64.1961781 237.544444,64.2808758 C237.856767,64.3655736 238.139971,64.4608572 238.394064,64.5667294 L237.25065,68.7910099 C237.240063,68.7804226 237.195068,68.7698356 237.115663,68.7592483 C237.036259,68.7486611 236.948916,68.7380741 236.853631,68.7274868 C236.758346,68.7168996 236.671003,68.7089593 236.591599,68.7036657 C236.512194,68.6983721 236.467199,68.6904318 236.456612,68.6798446 C236.255455,68.4469257 236.033127,68.1928362 235.789621,67.9175684 C235.546114,67.6423006 235.297318,67.3855644 235.043225,67.1473519 C234.789132,66.9091394 234.540336,66.7132787 234.29683,66.559764 C234.053324,66.4062493 233.825702,66.329493 233.613957,66.329493 C233.021073,66.329493 232.454665,66.533294 231.914717,66.9409021 C231.374768,67.3485101 230.900997,67.9281518 230.493389,68.6798446 C230.085781,69.4315373 229.765523,70.3473183 229.532604,71.4272149 C229.299685,72.5071116 229.193814,73.7193303 229.214989,75.0639075 C229.225576,75.9426469 229.299685,76.6969752 229.437319,77.3269149 C229.574953,77.9568546 229.768167,78.4729739 230.016967,78.8752884 C230.265766,79.2776028 230.572791,79.5713938 230.93805,79.7566702 C231.303309,79.9419466 231.724145,80.0345834 232.20057,80.0345834 C232.655821,80.0345834 233.068716,79.9895884 233.439269,79.899597 C233.809822,79.8096056 234.159195,79.6799141 234.487399,79.5105185 C234.815603,79.341123 235.127921,79.137322 235.424363,78.8991095 C235.720805,78.660897 236.022537,78.3988672 236.329566,78.1130122 L237.171246,79.5899223 C236.959502,79.8863645 236.665711,80.2145635 236.289864,80.574529 C235.914018,80.9344946 235.450834,81.2706338 234.900298,81.5829569 C234.349763,81.8952799 233.722479,82.1573097 233.018429,82.3690542 C232.314379,82.5807986 231.533583,82.6866692 230.676018,82.6866692 Z M243.504279,58.8337774 L241.550946,58.150905 L241.820919,56.8328024 L247.31566,56.1658108 L248.15734,56.5945911 L246.728072,67.8381646 C247.109212,67.2770419 247.532694,66.755629 247.998532,66.2739104 C248.46437,65.7921918 248.961962,65.3766496 249.491323,65.0272713 C250.020684,64.6778929 250.581798,64.4026293 251.174683,64.2014721 C251.767567,64.0003148 252.381617,63.8997377 253.01685,63.8997377 C253.599147,63.8997377 254.131147,63.9817875 254.612866,64.1458894 C255.094585,64.3099914 255.510127,64.5799615 255.859505,64.9558079 C256.208883,65.3316542 256.478854,65.8265994 256.669424,66.4406583 C256.859994,67.0547172 256.955277,67.8063987 256.955277,68.6957253 C256.955277,69.0027548 256.928809,69.3865358 256.875873,69.84708 C256.822937,70.3076241 256.756768,70.7972758 256.677364,71.3160497 C256.59796,71.8348235 256.513263,72.3588832 256.423272,72.8882443 C256.33328,73.4176054 256.245937,73.9046103 256.161239,74.3492736 C256.097716,74.751588 256.026253,75.169777 255.946849,75.6038531 C255.867445,76.0379292 255.795982,76.4667053 255.732459,76.8901942 C255.668936,77.3136831 255.613354,77.7239318 255.565711,78.1209526 C255.518069,78.5179734 255.488954,78.8911674 255.478367,79.2405457 C255.46778,79.6216857 255.507481,79.8863623 255.597473,80.0345834 C255.687464,80.1828045 255.811862,80.2569139 255.97067,80.2569139 C256.150653,80.2569139 256.349161,80.2039786 256.566199,80.0981064 C256.783237,79.9922342 257.098202,79.7804929 257.511103,79.4628763 L257.987526,80.4633637 C257.913416,80.5798232 257.757256,80.76245 257.519044,81.0112497 C257.280831,81.2600495 256.973807,81.5088454 256.59796,81.7576452 C256.222114,82.0064449 255.782751,82.2261264 255.279858,82.4166964 C254.776965,82.6072664 254.218497,82.70255 253.604438,82.70255 C253.06449,82.70255 252.619833,82.6443211 252.270455,82.5278617 C251.921076,82.4114023 251.645813,82.244656 251.444656,82.027618 C251.243498,81.8105799 251.105867,81.5538436 251.031756,81.2574014 C250.957645,80.9609592 250.925884,80.6274667 250.936471,80.2569139 C250.947059,79.9710589 250.976173,79.6349197 251.023816,79.2484861 C251.071458,78.8620525 251.129687,78.4544506 251.198504,78.0256681 C251.267321,77.5968856 251.344077,77.1522289 251.428775,76.6916848 C251.513473,76.2311406 251.598169,75.7785437 251.682867,75.3338803 C251.767565,74.889217 251.857555,74.4048589 251.95284,73.8807914 C252.048125,73.3567239 252.135468,72.8194304 252.214872,72.2688949 C252.294276,71.7183593 252.357799,71.1704788 252.405441,70.6252369 C252.453084,70.079995 252.476905,69.5691692 252.476905,69.0927442 C252.476905,68.5951447 252.43985,68.1928363 252.365739,67.8858069 C252.291629,67.5787775 252.188405,67.3432153 252.056065,67.1791134 C251.923724,67.0150114 251.767565,66.9038473 251.587582,66.8456175 C251.4076,66.7873878 251.206445,66.7582734 250.984114,66.7582734 C250.624148,66.7582734 250.240367,66.8614973 249.832759,67.0679481 C249.425151,67.2743989 249.017549,67.5549561 248.609941,67.909628 C248.202333,68.2643 247.805318,68.682489 247.418885,69.1642076 C247.032451,69.6459262 246.680431,70.156752 246.362814,70.6967003 L244.885904,82.3690542 L240.566339,82.3690542 L243.504279,58.8337774 Z M261.8114,80.5427675 C261.8114,80.373372 261.824634,80.1669242 261.851102,79.9234181 C261.87757,79.679912 261.901391,79.4787578 261.922565,79.3199495 L264.733458,58.8337774 L262.700722,58.150905 L263.018337,56.8328024 L268.465435,56.1658108 L269.259473,56.5945911 L266.210368,79.0499767 C266.157432,79.4205294 266.168019,79.7143204 266.24213,79.9313585 C266.316241,80.1483965 266.459166,80.2569139 266.67091,80.2569139 C266.745021,80.2569139 266.829717,80.2463269 266.925002,80.2251524 C267.020287,80.203978 267.126158,80.1616297 267.242617,80.0981064 C267.359077,80.0345831 267.499355,79.944593 267.663457,79.8281336 C267.827559,79.7116742 268.020773,79.5634553 268.243105,79.3834725 L268.703647,80.3998407 C268.618949,80.5163002 268.46279,80.7015738 268.235165,80.9556671 C268.007539,81.2097604 267.713748,81.4638499 267.353783,81.7179433 C266.993817,81.9720366 266.575628,82.1970117 266.099203,82.3928753 C265.622778,82.5887389 265.098719,82.6866692 264.527009,82.6866692 C264.145869,82.6866692 263.791202,82.6469678 263.462998,82.5675636 C263.134794,82.4881594 262.848944,82.3637614 262.605437,82.1943659 C262.361931,82.0249703 262.168717,81.8052888 262.02579,81.5353146 C261.882862,81.2653404 261.8114,80.9344947 261.8114,80.5427675 Z M272.797493,80.4316022 C272.871604,79.7963689 272.972181,79.0261601 273.099228,78.1209526 C273.226274,77.2157451 273.371846,76.1940935 273.535948,75.0559671 C273.70005,73.9178408 273.877384,72.6712141 274.067954,71.3160497 C274.258524,69.9608853 274.459678,68.5210447 274.671422,66.9964847 L272.622805,66.075401 L272.876897,64.7255369 L278.546326,63.8997377 L279.388006,64.2808758 L277.275866,79.0499767 C277.159406,79.8546055 277.312919,80.2569139 277.736408,80.2569139 C277.91639,80.2569139 278.122838,80.1933916 278.355757,80.0663449 C278.588676,79.9392982 278.906288,79.7063828 279.308602,79.3675917 L279.769144,80.3998407 C279.684446,80.5163002 279.522994,80.7015738 279.284781,80.9556671 C279.046569,81.2097604 278.742191,81.4638499 278.371638,81.7179433 C278.001085,81.9720366 277.569662,82.1970117 277.077356,82.3928753 C276.58505,82.5887389 276.03717,82.6866692 275.433698,82.6866692 C274.51261,82.6866692 273.821804,82.4934553 273.36126,82.1070217 C272.900716,81.7205881 272.712795,81.1621205 272.797493,80.4316022 Z M277.609362,60.7712293 C277.302332,60.7712293 277.013835,60.7077069 276.74386,60.5806602 C276.473886,60.4536136 276.235677,60.2842206 276.029227,60.0724761 C275.822776,59.8607317 275.661323,59.6172292 275.544864,59.3419615 C275.428404,59.0666937 275.370175,58.780843 275.370175,58.4844008 C275.380763,58.1032608 275.457519,57.7433006 275.600446,57.4045095 C275.743374,57.0657184 275.936588,56.7719274 276.180094,56.5231277 C276.4236,56.274328 276.712097,56.0758206 277.045595,55.9275994 C277.379092,55.7793783 277.741699,55.7052689 278.133426,55.7052689 C278.503979,55.7052689 278.834825,55.7661445 279.125974,55.8878976 C279.417122,56.0096506 279.665918,56.1737501 279.872369,56.3802009 C280.07882,56.5866518 280.234979,56.8222139 280.340851,57.0868945 C280.446723,57.351575 280.499659,57.6268387 280.499659,57.9126936 C280.489071,58.2938336 280.420256,58.6590873 280.293209,59.0084656 C280.166162,59.357844 279.978242,59.662222 279.729442,59.921609 C279.480642,60.1809959 279.178911,60.3874436 278.824239,60.5409584 C278.469567,60.6944731 278.064612,60.7712293 277.609362,60.7712293 Z M283.84711,79.8440143 C283.84711,79.7910782 283.849757,79.7196156 283.85505,79.6296242 C283.860344,79.5396328 283.873578,79.3861204 283.894752,79.1690823 C283.915926,78.9520443 283.947688,78.6582533 283.990037,78.2877005 C284.032385,77.9171477 284.095908,77.4195558 284.180606,76.7949097 L285.53047,66.4247776 L283.624779,66.4247776 L283.990037,64.852583 L285.927488,64.1061875 C286.139233,63.9050303 286.350974,63.6430005 286.562719,63.3200902 C286.774463,62.99718 286.983558,62.6451601 287.190008,62.2640201 C287.396459,61.8828801 287.59232,61.4858653 287.777596,61.0729636 C287.962873,60.660062 288.134912,60.2630471 288.293721,59.8819071 L290.628192,59.8819071 L290.104127,64.0267838 L293.788461,64.0267838 L293.439085,66.4247776 L289.802392,66.4247776 L288.48429,76.1755603 C288.399592,76.736683 288.33607,77.2183944 288.293721,77.6207088 C288.251372,78.0230233 288.230198,78.3671028 288.230198,78.6529578 C288.230198,79.1611445 288.317541,79.5158111 288.49223,79.7169683 C288.666919,79.9181255 288.992472,80.0187026 289.468897,80.0187026 C289.670054,80.0187026 289.897676,79.9895882 290.151769,79.9313585 C290.405862,79.8731288 290.659952,79.7963726 290.914045,79.7010876 C291.168138,79.6058026 291.416934,79.4919916 291.660441,79.3596514 C291.903947,79.2273111 292.120981,79.0870325 292.311551,78.9388114 L292.660928,80.1933909 C292.449184,80.4474843 292.155393,80.7201011 291.779546,81.0112497 C291.4037,81.3023983 290.964337,81.5723684 290.461444,81.8211682 C289.958551,82.0699679 289.400083,82.2764156 288.786024,82.4405176 C288.171965,82.6046195 287.526154,82.6866692 286.848572,82.6866692 C286.456845,82.6866692 286.081004,82.6416742 285.721039,82.5516828 C285.361073,82.4616914 285.040814,82.3055323 284.760253,82.0832006 C284.479692,81.8608689 284.257363,81.5670779 284.093261,81.2018188 C283.929159,80.8365596 283.84711,80.3839627 283.84711,79.8440143 Z M304.107563,69.2039094 L306.013254,67.6158341 L300.343825,67.5999533 C299.962685,67.5999533 299.626546,67.6687692 299.335397,67.8064031 C299.044248,67.944037 298.792806,68.1266639 298.581061,68.3542891 C298.369317,68.5819144 298.199924,68.8492377 298.072877,69.1562672 C297.94583,69.4632966 297.861134,69.786202 297.818785,70.1249932 L296.45304,70.1249932 C296.431866,69.881487 296.415985,69.5797557 296.405398,69.2197902 C296.394811,68.8598247 296.400104,68.4786904 296.421279,68.0763759 C296.442453,67.6740615 296.479508,67.2664596 296.532444,66.8535579 C296.58538,66.4406563 296.659489,66.0568752 296.754774,65.7022033 C296.850059,65.3475313 296.966517,65.0405065 297.104151,64.7811196 C297.241785,64.5217326 297.411178,64.3391058 297.612335,64.2332336 C297.739382,64.159123 297.914068,64.0823668 298.1364,64.0029626 C298.358732,63.9235585 298.67105,63.883857 299.073364,63.883857 C299.486266,63.883857 299.95739,63.8970908 300.486752,63.9235589 C301.016113,63.9500269 301.56664,63.9817881 302.13835,64.0188434 C302.71006,64.0558987 303.292348,64.0956002 303.885233,64.1379491 C304.478117,64.1802979 305.047172,64.2199994 305.592414,64.2570547 C306.137656,64.29411 306.645835,64.3258712 307.116966,64.3523392 C307.588098,64.3788073 307.993053,64.3920411 308.331844,64.3920411 C308.670635,64.3920411 308.959132,64.3602799 309.197345,64.2967566 C309.435557,64.2332333 309.67112,64.111482 309.904038,63.9314993 L309.9358,63.8997377 L310.809241,64.8684637 L300.502632,77.6365896 L298.882795,79.0182152 L304.758674,79.0182152 C305.171576,79.0182152 305.54477,78.952046 305.878267,78.8197057 C306.211765,78.6873655 306.500262,78.5047386 306.743768,78.2718197 C306.987275,78.0389009 307.183135,77.766284 307.331356,77.4539609 C307.479577,77.1416379 307.580155,76.8054986 307.633091,76.4455331 L308.951193,76.4455331 C308.972368,76.6890392 308.982955,76.9881237 308.982955,77.3427957 C308.982955,77.6974676 308.969721,78.0759551 308.943253,78.4782695 C308.916785,78.880584 308.874437,79.2855391 308.816207,79.6931472 C308.757977,80.1007552 308.678574,80.4845363 308.577995,80.8445018 C308.477417,81.2044674 308.355666,81.524726 308.212738,81.8052874 C308.069811,82.0858488 307.903064,82.2896498 307.712494,82.4166964 C307.574861,82.5119814 307.368413,82.5887376 307.093145,82.6469674 C306.817877,82.7051971 306.479091,82.7343115 306.076777,82.7343115 C305.674462,82.7343115 305.203338,82.7210777 304.66339,82.6946096 C304.123441,82.6681416 303.557034,82.6363804 302.964149,82.5993251 C302.371265,82.5622698 301.765155,82.5199216 301.145803,82.4722791 C300.52645,82.4246366 299.930928,82.3822883 299.359218,82.345233 C298.787508,82.3081778 298.260802,82.2764166 297.779083,82.2499485 C297.297364,82.2234805 296.892409,82.2102466 296.564205,82.2102466 C296.458333,82.2102466 296.333935,82.2181869 296.191008,82.2340678 C296.04808,82.2499486 295.905155,82.2737695 295.762227,82.3055312 C295.6193,82.3372928 295.476374,82.3822878 295.333447,82.4405176 C295.190519,82.4987473 295.066122,82.5755035 294.960249,82.6707885 L294.896726,82.7343115 L293.864477,81.7497048 L304.107563,69.2039094 Z" id="By-John-Schlitz" fill="#3E2ABA"></path>
        </g>
    </g>
</svg>