<?xml version="1.0" encoding="UTF-8"?>
<svg width="452px" height="105px" viewBox="0 0 452 105" version="1.1" xmlns="http://www.w3.org/2000/svg" xmlns:xlink="http://www.w3.org/1999/xlink">
    <!-- Generator: Sketch 43.2 (39069) - http://www.bohemiancoding.com/sketch -->
    <title>Group 3</title>
    <desc>Created with Sketch.</desc>
    <defs></defs>
    <g id="Desktop" stroke="none" stroke-width="1" fill="none" fill-rule="evenodd">
        <g id="PSP-ChaikinInsights-Setting" transform="translate(-53.000000, -211.000000)">
            <g id="Group" transform="translate(53.000000, 211.000000)">
                <g id="Group-3">
                    <path d="M38.5576147,35.3333333 L38.5576147,0.365803922 L28.8398165,0.365803922 L19.3223853,21.1667451 L9.80495413,0.365803922 L0.0370642202,0.365803922 L0.0370642202,35.3333333 L8.00165138,35.3333333 L8.00165138,12.6368627 L16.4170642,31.8415686 L22.2277064,31.8415686 L30.6431193,12.6368627 L30.693211,35.3333333 L38.5576147,35.3333333 Z M68.913211,28.8985098 L53.5851376,28.8985098 L51.0304587,35.3333333 L41.8636697,35.3333333 L56.9913761,0.415686275 L66.1581651,0.415686275 L80.9352294,35.3333333 L71.4177982,35.3333333 L68.913211,28.8985098 Z M66.3084404,22.1643922 L61.2992661,9.24486275 L56.1899083,22.1643922 L66.3084404,22.1643922 Z M105.329908,35.3333333 L100.120367,25.5065098 L93.1075229,25.5065098 L93.1075229,35.3333333 L84.1911927,35.3333333 L84.1911927,0.415686275 L99.8699083,0.415686275 C109.136881,0.415686275 114.446606,4.80533333 114.446606,12.5869804 C114.446606,17.9243922 112.192477,21.7653333 108.084954,23.8105098 L115.44844,35.3333333 L105.329908,35.3333333 Z M93.1075229,18.5229804 L99.8699083,18.5229804 C103.726972,18.5229804 105.981101,16.5775686 105.981101,12.8862745 C105.981101,9.24486275 103.726972,7.39921569 99.8699083,7.39921569 L93.1075229,7.39921569 L93.1075229,18.5229804 Z M143.29945,35.3333333 L153.968991,35.3333333 L140.093578,14.8815686 L153.117431,0.415686275 L142.798532,0.415686275 L129.373945,15.5300392 L129.373945,0.415686275 L120.457615,0.415686275 L120.457615,35.3333333 L129.373945,35.3333333 L129.373945,26.7535686 L134.032477,21.6156863 L143.29945,35.3333333 Z M185.326422,7.39921569 L185.326422,0.415686275 L157.876147,0.415686275 L157.876147,35.3333333 L185.877431,35.3333333 L185.877431,28.3498039 L166.792477,28.3498039 L166.792477,21.3163922 L183.523119,21.3163922 L183.523119,14.3328627 L166.792477,14.3328627 L166.792477,7.39921569 L185.326422,7.39921569 Z M218.437064,7.54886275 L218.437064,0.365803922 L188.482202,0.365803922 L188.482202,7.54886275 L198.951376,7.54886275 L198.951376,35.3333333 L207.867706,35.3333333 L207.867706,7.54886275 L218.437064,7.54886275 Z M228.054679,35.3333333 L228.054679,0.415686275 L224.047339,0.415686275 L224.047339,35.3333333 L228.054679,35.3333333 Z M267.827523,35.3333333 L267.827523,0.415686275 L263.870275,0.415686275 L263.870275,28.499451 L242.831743,0.415686275 L238.674128,0.415686275 L238.674128,35.3333333 L242.681468,35.3333333 L242.681468,7.29945098 L263.72,35.3333333 L267.827523,35.3333333 Z M288.916147,0.266039216 C281.652844,0.266039216 276.793945,3.80768627 276.793945,9.2947451 C276.793945,21.8152157 296.530092,16.9267451 296.48,26.105098 C296.48,29.4472157 293.32422,31.4923922 288.264954,31.4923922 C284.307706,31.4923922 279.849541,29.6966275 276.593578,26.5540392 L274.790275,30.1455686 C278.09633,33.2881569 283.105505,35.4829804 288.214862,35.4829804 C295.728624,35.4829804 300.888073,31.7418039 300.888073,25.9055686 C300.938165,13.235451 281.202018,17.9243922 281.202018,8.94556863 C281.202018,6.0025098 284.157431,4.3065098 288.665688,4.3065098 C291.470826,4.3065098 295.177615,5.1545098 298.333394,7.24956863 L300.036514,3.50839216 C297.131193,1.56298039 292.973578,0.266039216 288.916147,0.266039216 Z M313.110459,35.3333333 L313.110459,0.415686275 L309.103119,0.415686275 L309.103119,35.3333333 L313.110459,35.3333333 Z M348.174679,18.2735686 L348.174679,28.7987451 C345.469725,30.6443922 342.113578,31.7418039 338.957798,31.7418039 C330.943119,31.7418039 324.481284,25.6062745 324.481284,17.8745098 C324.481284,10.1926275 330.893028,4.05709804 338.907706,4.05709804 C342.814862,4.05709804 346.671927,5.55356863 349.527156,8.09756863 L351.831376,5.10462745 C348.475229,2.16156863 343.766606,0.315921569 338.907706,0.315921569 C328.588807,0.315921569 320.423853,8.04768627 320.423853,17.8745098 C320.423853,27.7013333 328.538716,35.5328627 338.707339,35.5328627 C343.415963,35.5328627 348.274862,33.6872157 351.731193,30.9436863 L351.731193,18.2735686 L348.174679,18.2735686 Z M390.602385,35.3333333 L390.602385,0.415686275 L386.595046,0.415686275 L386.595046,16.1785098 L365.45633,16.1785098 L365.45633,0.415686275 L361.448991,0.415686275 L361.448991,35.3333333 L365.45633,35.3333333 L365.45633,19.9695686 L386.595046,19.9695686 L386.595046,35.3333333 L390.602385,35.3333333 Z M423.362385,4.25662745 L423.362385,0.415686275 L396.463119,0.415686275 L396.463119,4.25662745 L407.884037,4.25662745 L407.884037,35.3333333 L411.891376,35.3333333 L411.891376,4.25662745 L423.362385,4.25662745 Z M439.59211,0.266039216 C432.328807,0.266039216 427.469908,3.80768627 427.469908,9.2947451 C427.469908,21.8152157 447.206055,16.9267451 447.155963,26.105098 C447.155963,29.4472157 444.000183,31.4923922 438.940917,31.4923922 C434.98367,31.4923922 430.525505,29.6966275 427.269541,26.5540392 L425.466239,30.1455686 C428.772294,33.2881569 433.781468,35.4829804 438.890826,35.4829804 C446.404587,35.4829804 451.564037,31.7418039 451.564037,25.9055686 C451.614128,13.235451 431.877982,17.9243922 431.877982,8.94556863 C431.877982,6.0025098 434.833394,4.3065098 439.341651,4.3065098 C442.146789,4.3065098 445.853578,5.1545098 449.009358,7.24956863 L450.712477,3.50839216 C447.807156,1.56298039 443.649541,0.266039216 439.59211,0.266039216 Z" id="MARKETINSIGHTS" fill="#383838"></path>
                    <path d="M74.3552589,93.8358992 L76.9784715,93.2878753 L80.0052553,70.1978018 L77.4370751,69.7411152 L77.675549,67.8047641 L83.0687274,67.8047641 C84.0470866,67.7925857 85.0193165,67.7408284 85.9854463,67.6494907 C86.9515761,67.5581529 87.9788379,67.5124847 89.0672625,67.5124847 C90.6937848,67.5124847 92.0481806,67.6799348 93.1304905,68.0148399 C94.2128004,68.3497451 95.0780239,68.7912044 95.7261869,69.339231 C96.3743499,69.8872576 96.8360062,70.5174788 97.1111698,71.2299134 C97.3863333,71.9423481 97.5361423,72.6760838 97.5606013,73.4311428 C97.6095193,75.4283954 97.0897737,77.029827 96.001349,78.2354856 C94.9129244,79.4411442 93.3475731,80.3240628 91.3052481,80.8842678 C92.2224599,80.9208029 93.0571101,81.094342 93.8092238,81.4048905 C94.5613375,81.7154389 95.2033761,82.1264527 95.735359,82.6379442 C96.2673418,83.1494358 96.6770236,83.7400778 96.9644166,84.4098882 C97.2518096,85.0796985 97.4016187,85.7921225 97.4138481,86.5471814 C97.4260776,88.2399748 97.1234023,89.6800454 96.505813,90.8674364 C95.8882237,92.0548275 95.0138283,93.0229933 93.8826004,93.7719631 C92.7513725,94.5209328 91.3878048,95.0659067 89.7918562,95.406901 C88.1959077,95.7478954 86.4257155,95.91839 84.4812265,95.91839 C84.0776533,95.91839 83.6435129,95.9031673 83.1787922,95.8727214 C82.7140716,95.8422754 82.2463006,95.8057409 81.7754652,95.7631166 C81.3046298,95.7204923 80.8429735,95.6839577 80.3904823,95.6535118 C79.9379912,95.6230659 79.5221947,95.6078431 79.1430805,95.6078431 L74.1901616,95.6078431 L74.3552589,93.8358992 Z M83.7474607,79.9891621 C84.1877224,80.0135188 84.6279774,80.0226525 85.0682391,80.0165633 C85.5085008,80.0104741 85.9670998,80.0074295 86.4440499,80.0074295 C87.2878848,80.0074295 88.0889044,79.8947813 88.8471328,79.6694815 C89.6053612,79.4441816 90.2657438,79.0849251 90.8283004,78.5917011 C91.3908569,78.0984772 91.831112,77.4652114 92.1490788,76.691885 C92.4670455,75.9185585 92.6137972,74.9899717 92.5893382,73.9060968 C92.5404203,72.529941 92.1429678,71.4917506 91.3969688,70.7914943 C90.6509699,70.0912381 89.4830711,69.7411152 87.8932373,69.7411152 C87.7587129,69.7411152 87.5752733,69.7472043 87.342913,69.7593827 C87.1105527,69.771561 86.8629092,69.7867838 86.5999751,69.8050513 C86.3370411,69.8233189 86.0710537,69.8476752 85.8020049,69.8781212 C85.5329561,69.9085671 85.2883699,69.9420571 85.0682391,69.9785922 L83.7474607,79.9891621 Z M82.004767,93.2878753 C82.2248978,93.3487672 82.4817133,93.403569 82.7752211,93.4522825 C83.0687288,93.500996 83.3683469,93.5405751 83.6740841,93.571021 C83.9798214,93.6014669 84.2733248,93.6258233 84.5546031,93.6440908 C84.8358813,93.6623584 85.0743528,93.671492 85.2700247,93.671492 C86.3339904,93.671492 87.284819,93.5466656 88.1225391,93.297009 C88.9602592,93.0473525 89.669559,92.6576505 90.2504598,92.1278914 C90.8313606,91.5981323 91.265501,90.9161538 91.5528941,90.0819355 C91.8402871,89.2477172 91.9656375,88.2460613 91.928949,87.0769378 C91.90449,86.2975221 91.7883116,85.6155437 91.5804103,85.0309819 C91.3725089,84.4464202 91.0514896,83.9592927 90.6173427,83.5695849 C90.1831958,83.179877 89.6298197,82.8906451 88.9571977,82.7018804 C88.2845757,82.5131156 87.4774414,82.4187347 86.5357706,82.4187347 C86.119968,82.4187347 85.7561461,82.4217792 85.4442941,82.4278684 C85.132442,82.4339576 84.8542253,82.4430912 84.6096355,82.4552696 C84.3650457,82.467448 84.1449181,82.4796262 83.9492463,82.4918045 C83.7535744,82.5039829 83.5762495,82.5161611 83.4172661,82.5283395 L82.004767,93.2878753 Z M99.3360698,100.96021 C99.4583647,101.057637 99.629575,101.158107 99.8497058,101.261623 C100.069837,101.365139 100.323595,101.462565 100.610988,101.553902 C100.898381,101.64524 101.213285,101.721354 101.555711,101.782246 C101.898137,101.843138 102.252787,101.873583 102.619672,101.873583 C103.108851,101.873583 103.616367,101.785291 104.142236,101.608705 C104.668104,101.432118 105.200079,101.142887 105.738176,100.741 C106.276274,100.339114 106.814363,99.8124075 107.352461,99.1608647 C107.890558,98.509322 108.422533,97.7086062 108.948401,96.7586933 L106.123403,96.7586933 L102.509607,78.3633578 C102.424,77.9858284 102.323109,77.7209528 102.206928,77.5687232 C102.090748,77.4164936 101.934825,77.3403799 101.739153,77.3403799 C101.592399,77.3403799 101.43036,77.3677808 101.253033,77.4225835 C101.075705,77.4773862 100.846406,77.6204798 100.565127,77.8518689 L100.033147,76.5731464 C100.118754,76.4513627 100.293021,76.2686899 100.555955,76.0251225 C100.818889,75.7815552 101.149081,75.5379914 101.546539,75.294424 C101.943998,75.0508566 102.393425,74.8346938 102.894834,74.6459291 C103.396243,74.4571643 103.922103,74.3627834 104.47243,74.3627834 C104.973839,74.3627834 105.401865,74.4206298 105.75652,74.5363243 C106.111175,74.6520188 106.407736,74.8164243 106.646211,75.0295458 C106.884686,75.2426673 107.068126,75.5044983 107.196536,75.8150467 C107.324945,76.1255951 107.419722,76.475718 107.48087,76.8654259 C107.554247,77.3160255 107.642909,77.9097122 107.74686,78.6465035 C107.850811,79.3832949 107.966989,80.1931443 108.095399,81.0760761 C108.223808,81.9590079 108.352216,82.8784611 108.480626,83.8344631 C108.609035,84.7904651 108.734386,85.7068737 108.856681,86.5837163 C108.978976,87.4605589 109.092097,88.2673638 109.196047,89.0041552 C109.299998,89.7409465 109.38866,90.3346332 109.462037,90.7852328 L109.920641,94.9867494 L111.828432,91.0957797 C112.232005,90.182402 112.6264,89.2873052 113.011629,88.4104626 C113.396858,87.53362 113.739279,86.6598351 114.038901,85.7890816 C114.338524,84.9183282 114.576995,84.0506324 114.754323,83.1859681 C114.931651,82.3213039 115.020313,81.4383853 115.020313,80.537186 C115.020313,80.0865863 114.977511,79.7060179 114.891904,79.3954695 C114.806298,79.0849211 114.711521,78.7926446 114.60757,78.5186313 C114.503619,78.244618 114.408842,77.9614751 114.323236,77.6691942 C114.237629,77.3769134 114.194827,77.0237459 114.194827,76.6096814 C114.194827,75.9155143 114.402725,75.3674959 114.818527,74.9656097 C115.23433,74.5637235 115.827452,74.3627834 116.597909,74.3627834 C117.087089,74.3627834 117.515115,74.4602089 117.882,74.6550628 C118.248884,74.8499167 118.55156,75.1117477 118.790035,75.4405637 C119.02851,75.7693797 119.208892,76.1529926 119.331187,76.5914139 C119.453482,77.0298352 119.514628,77.4986954 119.514628,77.9980086 C119.514628,79.0088133 119.410679,79.9769791 119.202778,80.9025352 C118.994877,81.8280913 118.725832,82.7384108 118.395636,83.633521 C118.065439,84.5286312 117.686331,85.4115497 117.258299,86.2823032 C116.830267,87.1530566 116.396126,88.0268415 115.955864,88.9036841 C115.368849,90.1093427 114.754326,91.2997605 114.112278,92.4749732 C113.47023,93.6501859 112.843478,94.7553563 112.232003,95.7905178 C111.620529,96.8256792 111.039637,97.7633996 110.489309,98.6037071 C109.938982,99.4440146 109.474269,100.138171 109.095155,100.686198 C108.165713,102.159781 107.08342,103.240595 105.848241,103.928673 C104.613062,104.616751 103.231151,104.960784 101.702464,104.960784 C101.408957,104.960784 101.08488,104.939472 100.730225,104.896848 C100.37557,104.854224 100.033149,104.802467 99.7029527,104.741575 C99.3727564,104.680683 99.0700811,104.607614 98.7949175,104.522365 C98.519754,104.437117 98.3087984,104.357958 98.1620446,104.284888 L99.3360698,100.96021 Z M129.302574,93.8176317 L132.237637,93.2878753 L138.144452,70.1978018 L134.86085,69.7411152 L135.117668,67.8047641 L145.757272,67.8047641 L148.105322,84.8665748 L148.435517,87.9720435 L149.536165,84.8665748 C149.682919,84.513402 149.881646,84.0384527 150.13235,83.4417126 C150.383055,82.8449725 150.667386,82.1690831 150.985353,81.4140242 C151.30332,80.6589653 151.642683,79.8491158 152.003453,78.9844516 C152.364223,78.1197873 152.731102,77.2399133 153.104102,76.3448032 C153.477101,75.449693 153.847038,74.569819 154.213922,73.7051547 C154.580807,72.8404905 154.923228,72.0275965 155.241194,71.2664484 C155.559161,70.5053003 155.843492,69.8263663 156.094197,69.2296262 C156.344902,68.6328861 156.543628,68.1579368 156.690382,67.8047641 L166.302713,67.8047641 L166.082584,69.7411152 L162.945735,70.1978018 L162.340378,93.2696078 L165.440538,93.8176317 L165.275441,95.6078431 L153.700286,95.6078431 L153.865384,93.7993643 L157.222362,93.2878753 L158.102881,77.3221124 L158.561484,70.0151271 L155.993304,76.4452742 L147.665063,95.6626455 L145.04185,95.9366575 L142.235196,76.8836933 L141.18958,70.0151271 L139.722048,77.066368 L135.869778,93.2878753 L139.667016,93.8176317 L139.501919,95.6078431 L129.082445,95.6078431 L129.302574,93.8176317 Z M174.572009,95.9731924 C173.483584,95.9731924 172.551099,95.7722523 171.774527,95.3703661 C170.997954,94.9684799 170.36203,94.417417 169.866736,93.7171607 C169.371441,93.0169044 169.010677,92.1918323 168.784431,91.2419194 C168.558186,90.2920066 168.445065,89.275128 168.445065,88.1912531 C168.445065,87.1195565 168.5643,86.0326533 168.802775,84.9305109 C169.041251,83.8283684 169.392843,82.7658216 169.857564,81.7428385 C170.322284,80.7198555 170.900119,79.7608233 171.591085,78.8657131 C172.282052,77.9706029 173.083071,77.1881544 173.994168,76.5183441 C174.905265,75.8485337 175.920298,75.3218271 177.039296,74.9382085 C178.158295,74.5545898 179.384283,74.3627834 180.717297,74.3627834 C181.402149,74.3627834 182.111448,74.4388971 182.845218,74.5911267 C183.578987,74.7433563 184.221026,74.9047173 184.771353,75.0752145 L187.284501,74.3627834 L184.899762,91.7899433 C184.838615,92.2892565 184.87836,92.6454685 185.018999,92.8585899 C185.159638,93.0717114 185.333906,93.1782705 185.541807,93.1782705 C185.71302,93.1782705 185.927033,93.1234687 186.183852,93.0138634 C186.440671,92.904258 186.783092,92.6789616 187.211124,92.3379672 L187.761448,93.5070849 C187.663613,93.6532253 187.48323,93.863299 187.220296,94.1373123 C186.957362,94.4113257 186.624114,94.6853349 186.22054,94.9593482 C185.816967,95.2333615 185.349196,95.4708362 184.817213,95.6717793 C184.285231,95.8727224 183.707396,95.9731924 183.083692,95.9731924 C182.227627,95.9731924 181.542786,95.7722523 181.029148,95.3703661 C180.515509,94.9684799 180.277037,94.3473924 180.313726,93.5070849 L180.166973,93.2696078 C179.849006,93.6227806 179.488241,93.9607253 179.084668,94.2834521 C178.681095,94.6061789 178.246955,94.8923662 177.782234,95.1420228 C177.317513,95.3916794 176.816112,95.5926195 176.278014,95.7448491 C175.739917,95.8970787 175.171254,95.9731924 174.572009,95.9731924 Z M176.314703,93.0503983 C176.669358,93.0503983 177.024008,92.9864628 177.378663,92.8585899 C177.733318,92.730717 178.075739,92.5571779 178.405935,92.3379672 C178.736131,92.1187566 179.047979,91.8691037 179.341486,91.5890012 C179.634994,91.3088987 179.910153,91.0227113 180.166973,90.7304305 L182.001387,77.029833 C181.732338,76.9324061 181.448007,76.865426 181.148385,76.8288909 C180.848762,76.7923558 180.539972,76.7740885 180.222005,76.7740885 C179.427088,76.7740885 178.711674,76.9384941 178.07574,77.26731 C177.439807,77.596126 176.877259,78.0436744 176.388079,78.6099686 C175.898899,79.1762628 175.483103,79.8308403 175.140677,80.5737209 C174.798252,81.3166014 174.516977,82.09905 174.296847,82.9210899 C174.076716,83.7431299 173.914677,84.5803802 173.810727,85.4328661 C173.706776,86.285352 173.654802,87.1012905 173.654802,87.8807062 C173.654802,89.5126077 173.877986,90.7821837 174.324363,91.6894723 C174.770739,92.5967608 175.434179,93.0503983 176.314703,93.0503983 Z M194.28805,78.0345435 L192.380259,76.9384957 L192.69211,75.3126915 L198.0486,74.3627834 L198.984151,74.9108073 L198.672301,79.4228707 C198.867973,78.8626657 199.155361,78.2842018 199.534476,77.6874617 C199.91359,77.0907216 200.372189,76.5457477 200.910286,76.0525237 C201.448384,75.5592998 202.056792,75.1543751 202.735529,74.8377374 C203.414265,74.5210998 204.157196,74.3627834 204.964342,74.3627834 C205.221162,74.3627834 205.46269,74.3962734 205.688936,74.4632544 C205.915182,74.5302355 206.07722,74.6002601 206.175056,74.6733303 L205.111095,80.0074295 C204.976571,79.9100026 204.744214,79.806488 204.414018,79.6968827 C204.083822,79.5872773 203.649681,79.5324755 203.111584,79.5324755 C202.70801,79.5324755 202.295271,79.5720546 201.873354,79.651214 C201.451437,79.7303734 201.044812,79.8643335 200.653468,80.0530982 C200.262125,80.2418629 199.895245,80.4884712 199.55282,80.7929305 C199.210394,81.0973897 198.916891,81.4688244 198.672301,81.9072457 L196.856231,95.6078431 L191.958344,95.6078431 L194.28805,78.0345435 Z M214.48104,95.9731924 C213.417074,95.9731924 212.463188,95.7905196 211.619353,95.4251685 C210.775518,95.0598174 210.060104,94.5209326 209.473088,93.808498 C208.886073,93.0960634 208.430531,92.2161894 208.106449,91.1688496 C207.782368,90.1215098 207.614215,88.9158693 207.601986,87.5518919 C207.589756,86.5654439 207.68759,85.5546544 207.895492,84.519493 C208.103393,83.4843315 208.41524,82.4765866 208.831043,81.4962278 C209.246846,80.515869 209.769649,79.5933714 210.399468,78.7287071 C211.029286,77.8640429 211.769159,77.1089953 212.619109,76.4635417 C213.469059,75.8180881 214.422945,75.3066042 215.480795,74.9290748 C216.538646,74.5515453 217.709603,74.3627834 218.993699,74.3627834 C219.348354,74.3627834 219.721348,74.3810507 220.112692,74.4175858 C220.504036,74.4541209 220.895373,74.5028336 221.286717,74.5637255 C221.678061,74.6246173 222.054112,74.7037756 222.414882,74.8012025 C222.775652,74.8986295 223.102786,75.0082332 223.396294,75.1300169 L222.075515,79.9891621 C222.063286,79.9769837 222.011311,79.9648055 221.91959,79.9526271 C221.827869,79.9404488 221.726977,79.9282706 221.616912,79.9160922 C221.506846,79.9039138 221.405954,79.8947802 221.314233,79.888691 C221.222512,79.8826018 221.170538,79.8734682 221.158308,79.8612898 C220.925948,79.5933657 220.669132,79.3010892 220.387854,78.9844516 C220.106576,78.667814 219.819187,78.3724929 219.525679,78.0984796 C219.232171,77.8244663 218.944783,77.5991698 218.663504,77.4225835 C218.382226,77.2459971 218.119296,77.1577053 217.874706,77.1577053 C217.189855,77.1577053 216.535587,77.3921354 215.911883,77.8610026 C215.288179,78.3298698 214.740917,78.9966256 214.270082,79.8612898 C213.799247,80.7259541 213.42931,81.7793673 213.160261,83.021561 C212.891212,84.2637547 212.768919,85.6581571 212.793378,87.20481 C212.805608,88.2156147 212.891213,89.0833106 213.050196,89.8079236 C213.20918,90.5325366 213.432365,91.1262232 213.719758,91.5890012 C214.007151,92.0517793 214.361801,92.389724 214.783718,92.6028454 C215.205635,92.8159669 215.69175,92.922526 216.242077,92.922526 C216.767946,92.922526 217.244889,92.8707687 217.672921,92.7672526 C218.100953,92.6637365 218.50452,92.5145537 218.883634,92.3196998 C219.262748,92.1248458 219.623513,91.8904157 219.965939,91.6164024 C220.308364,91.3423891 220.6569,91.040979 221.011555,90.712163 L221.983795,92.4110371 C221.739205,92.7520314 221.399841,93.1295552 220.965695,93.5436198 C220.531548,93.9576844 219.996515,94.3443418 219.360582,94.7036037 C218.724648,95.0628656 218.000062,95.3642757 217.186801,95.6078431 C216.37354,95.8514105 215.471628,95.9731924 214.48104,95.9731924 Z M235.367193,84.0445389 C235.342734,81.4870813 235.703498,79.1854039 236.449497,77.1394378 C237.195496,75.0934717 238.241102,73.3550355 239.586346,71.9240771 C240.93159,70.4931186 242.527515,69.3940372 244.374168,68.6267999 C246.220821,67.8595626 248.238656,67.4759498 250.427735,67.4759498 C251.357177,67.4759498 252.164311,67.5063952 252.849162,67.5672871 C253.534014,67.6281789 254.130192,67.701248 254.637716,67.7864966 C255.14524,67.8717452 255.582438,67.9661262 255.949323,68.0696423 C256.316207,68.1731585 256.658628,68.2614503 256.976595,68.3345205 L257.636984,68.5171952 L256.462959,75.568436 L252.922539,75.568436 L252.335526,70.325674 C251.980871,70.1551768 251.586476,70.0151277 251.152329,69.9055224 C250.718182,69.795917 250.219838,69.7411152 249.657281,69.7411152 C248.593315,69.7411152 247.63943,69.9511889 246.795595,70.3713427 C245.95176,70.7914964 245.208829,71.3547376 244.566781,72.061083 C243.924733,72.7674285 243.377471,73.5894561 242.92498,74.5271906 C242.472489,75.464925 242.102553,76.4513582 241.81516,77.4865196 C241.527766,78.521681 241.322926,79.5720497 241.200631,80.637657 C241.078336,81.7032644 241.029419,82.7170984 241.053878,83.6791896 C241.090566,85.0675238 241.218974,86.349278 241.439105,87.5244907 C241.659235,88.6997033 241.995541,89.716582 242.448032,90.575157 C242.900524,91.4337321 243.472244,92.1035324 244.16321,92.584578 C244.854176,93.0656236 245.688826,93.3061428 246.667186,93.3061428 C246.972923,93.3061428 247.321458,93.2878755 247.712802,93.2513404 C248.104146,93.2148053 248.501598,93.1386916 248.905171,93.0229971 C249.308744,92.9073026 249.697025,92.7459416 250.070024,92.5389093 C250.443024,92.331877 250.770158,92.0578678 251.051436,91.7168735 C251.149272,91.6072681 251.26545,91.3941499 251.399975,91.0775123 C251.534499,90.7608746 251.669022,90.4137963 251.803546,90.0362669 C251.93807,89.6587374 252.060364,89.2873027 252.170429,88.9219516 C252.280494,88.5566005 252.366099,88.2765022 252.427247,88.0816483 L255.472375,88.0816483 L254.701921,93.6532246 C254.371725,93.8602569 253.949813,94.094687 253.436175,94.3565219 C252.922536,94.6183569 252.301899,94.8619206 251.574244,95.0872204 C250.84659,95.3125203 250.005825,95.5043267 249.051924,95.6626455 C248.098024,95.8209643 247.01573,95.9001225 245.805011,95.9001225 C243.90944,95.9001225 242.301286,95.568267 240.980501,94.9045458 C239.659716,94.2408247 238.586594,93.3579061 237.761104,92.2557636 C236.935613,91.1536212 236.33332,89.8901343 235.954205,88.465265 C235.575091,87.0403958 235.379422,85.5668351 235.367193,84.0445389 Z M263.173002,68.5354626 L260.916672,67.7499617 L261.228523,66.2337623 L267.575597,65.4665288 L268.547836,65.9597503 L266.896863,78.8931143 C267.337125,78.2476607 267.826297,77.647885 268.364395,77.0937691 C268.902492,76.5396533 269.47727,76.0616595 270.088744,75.6597733 C270.700219,75.2578871 271.348372,74.9412542 272.033224,74.7098652 C272.718075,74.4784762 273.427375,74.3627834 274.161144,74.3627834 C274.833766,74.3627834 275.448289,74.4571643 276.004731,74.6459291 C276.561173,74.8346938 277.041173,75.1452376 277.444746,75.5775697 C277.848319,76.0099018 278.160167,76.5792321 278.380297,77.2855775 C278.600428,77.991923 278.710492,78.8565742 278.710492,79.8795573 C278.710492,80.23273 278.679919,80.6741893 278.618771,81.2039484 C278.557624,81.7337075 278.481191,82.2969486 278.38947,82.8936887 C278.297748,83.4904288 278.199914,84.0932491 278.095963,84.7021676 C277.992013,85.3110861 277.891121,85.8712827 277.793285,86.3827742 C277.719908,86.8455523 277.63736,87.3265906 277.545639,87.8259038 C277.453918,88.325217 277.37137,88.8184335 277.297993,89.3055683 C277.224616,89.7927031 277.160412,90.2646079 277.105379,90.7212967 C277.050347,91.1779856 277.016716,91.6072667 277.004487,92.0091529 C276.992257,92.4475742 277.038117,92.7520289 277.142068,92.922526 C277.246018,93.0930232 277.389713,93.1782705 277.573155,93.1782705 C277.781056,93.1782705 278.010356,93.1173796 278.261061,92.9955959 C278.511765,92.8738122 278.875587,92.6302485 279.352537,92.2648974 L279.902861,93.4157475 C279.817255,93.5497096 279.636873,93.7597833 279.361709,94.045975 C279.086546,94.3321667 278.731896,94.6183541 278.297749,94.9045458 C277.863602,95.1907375 277.356086,95.4434349 276.775185,95.6626455 C276.194284,95.8818562 275.549188,95.9914599 274.839878,95.9914599 C274.216174,95.9914599 273.702543,95.9244798 273.29897,95.7905178 C272.895396,95.6565557 272.577434,95.4647493 272.345074,95.2150927 C272.112714,94.9654361 271.953733,94.6701151 271.868126,94.3291207 C271.78252,93.9881264 271.745832,93.6045135 271.758061,93.1782705 C271.770291,92.8494545 271.803922,92.4627971 271.858954,92.0182866 C271.913987,91.5737761 271.981248,91.1049159 272.06074,90.6116919 C272.140232,90.118468 272.228894,89.6069841 272.32673,89.077225 C272.424566,88.5474659 272.5224,88.0268485 272.620236,87.5153569 C272.718072,87.0038654 272.822021,86.4467133 272.932087,85.843884 C273.042152,85.2410547 273.143044,84.6230117 273.234765,83.9897365 C273.326486,83.3564613 273.399862,82.7262401 273.454895,82.0990541 C273.509927,81.471868 273.537443,80.8842705 273.537443,80.3362439 C273.537443,79.7638605 273.494641,79.3010894 273.409034,78.9479167 C273.323428,78.5947439 273.204192,78.3237793 273.051324,78.1350146 C272.898455,77.9462498 272.718073,77.8183789 272.510171,77.7513978 C272.30227,77.6844168 272.069913,77.6509268 271.813094,77.6509268 C271.397291,77.6509268 270.953979,77.7696641 270.483143,78.0071423 C270.012308,78.2446205 269.54148,78.5673425 269.070644,78.9753179 C268.599809,79.3832932 268.14121,79.8643316 267.694833,80.4184475 C267.248457,80.9725633 266.841833,81.5601608 266.474948,82.1812577 L264.768942,95.6078431 L259.779335,95.6078431 L263.173002,68.5354626 Z M289.694721,95.9731924 C288.606296,95.9731924 287.673812,95.7722523 286.897239,95.3703661 C286.120666,94.9684799 285.484742,94.417417 284.989448,93.7171607 C284.494154,93.0169044 284.133389,92.1918323 283.907143,91.2419194 C283.680898,90.2920066 283.567777,89.275128 283.567777,88.1912531 C283.567777,87.1195565 283.687013,86.0326533 283.925488,84.9305109 C284.163963,83.8283684 284.515555,82.7658216 284.980276,81.7428385 C285.444997,80.7198555 286.022831,79.7608233 286.713798,78.8657131 C287.404764,77.9706029 288.205783,77.1881544 289.11688,76.5183441 C290.027977,75.8485337 291.04301,75.3218271 292.162008,74.9382085 C293.281007,74.5545898 294.506995,74.3627834 295.840009,74.3627834 C296.524861,74.3627834 297.234161,74.4388971 297.96793,74.5911267 C298.701699,74.7433563 299.343738,74.9047173 299.894065,75.0752145 L302.407213,74.3627834 L300.022474,91.7899433 C299.961327,92.2892565 300.001072,92.6454685 300.141711,92.8585899 C300.28235,93.0717114 300.456618,93.1782705 300.664519,93.1782705 C300.835732,93.1782705 301.049745,93.1234687 301.306564,93.0138634 C301.563384,92.904258 301.905804,92.6789616 302.333836,92.3379672 L302.884161,93.5070849 C302.786325,93.6532253 302.605942,93.863299 302.343008,94.1373123 C302.080074,94.4113257 301.746826,94.6853349 301.343253,94.9593482 C300.939679,95.2333615 300.471908,95.4708362 299.939926,95.6717793 C299.407943,95.8727224 298.830108,95.9731924 298.206404,95.9731924 C297.35034,95.9731924 296.665498,95.7722523 296.15186,95.3703661 C295.638221,94.9684799 295.39975,94.3473924 295.436438,93.5070849 L295.289685,93.2696078 C294.971718,93.6227806 294.610954,93.9607253 294.20738,94.2834521 C293.803807,94.6061789 293.369667,94.8923662 292.904946,95.1420228 C292.440226,95.3916794 291.938824,95.5926195 291.400726,95.7448491 C290.862629,95.8970787 290.293966,95.9731924 289.694721,95.9731924 Z M291.437415,93.0503983 C291.79207,93.0503983 292.14672,92.9864628 292.501375,92.8585899 C292.85603,92.730717 293.198451,92.5571779 293.528647,92.3379672 C293.858843,92.1187566 294.170691,91.8691037 294.464198,91.5890012 C294.757706,91.3088987 295.032866,91.0227113 295.289685,90.7304305 L297.124099,77.029833 C296.855051,76.9324061 296.570719,76.865426 296.271097,76.8288909 C295.971474,76.7923558 295.662684,76.7740885 295.344717,76.7740885 C294.5498,76.7740885 293.834386,76.9384941 293.198453,77.26731 C292.562519,77.596126 291.999971,78.0436744 291.510791,78.6099686 C291.021612,79.1762628 290.605815,79.8308403 290.263389,80.5737209 C289.920964,81.3166014 289.63969,82.09905 289.419559,82.9210899 C289.199428,83.7431299 289.03739,84.5803802 288.933439,85.4328661 C288.829488,86.285352 288.777514,87.1012905 288.777514,87.8807062 C288.777514,89.5126077 289.000699,90.7821837 289.447075,91.6894723 C289.893451,92.5967608 290.556891,93.0503983 291.437415,93.0503983 Z M307.558004,93.3792126 C307.64361,92.6485104 307.759789,91.7625473 307.906543,90.7212967 C308.053297,89.6800461 308.22145,88.5048511 308.411007,87.1956763 C308.600564,85.8865016 308.805405,84.45252 309.025535,82.8936887 C309.245666,81.3348574 309.478023,79.678624 309.722613,77.9249387 L307.356218,76.8654259 L307.649725,75.3126915 L314.198584,74.3627834 L315.170824,74.8012025 L312.731053,91.7899433 C312.596528,92.7154994 312.773853,93.1782705 313.263033,93.1782705 C313.470934,93.1782705 313.709406,93.1052014 313.978454,92.959061 C314.247503,92.8129205 314.614382,92.5450004 315.079103,92.1552926 L315.611083,93.3426777 C315.513247,93.4766398 315.32675,93.689758 315.051587,93.9820389 C314.776423,94.2743198 314.424831,94.5665963 313.996799,94.8588771 C313.568766,95.151158 313.070422,95.4099445 312.501751,95.6352443 C311.933079,95.8605442 311.300213,95.9731924 310.603132,95.9731924 C309.539166,95.9731924 308.741204,95.7509405 308.209221,95.30643 C307.677238,94.8619195 307.460168,94.2195201 307.558004,93.3792126 Z M313.11628,70.7640931 C312.761624,70.7640931 312.428376,70.691024 312.116524,70.5448836 C311.804672,70.3987431 311.529512,70.2038921 311.291037,69.9603248 C311.052562,69.7167574 310.866065,69.4366591 310.731541,69.1200214 C310.597016,68.8033838 310.529755,68.4745728 310.529755,68.1335784 C310.541985,67.6951571 310.630647,67.2810988 310.795745,66.8913909 C310.960843,66.5016831 311.184028,66.1637384 311.465307,65.8775467 C311.746585,65.591355 312.079834,65.363014 312.465062,65.1925169 C312.850291,65.0220197 313.269145,64.9367724 313.721636,64.9367724 C314.149669,64.9367724 314.531834,65.0067969 314.868145,65.1468482 C315.204456,65.2868994 315.491845,65.4756613 315.73032,65.7131396 C315.968795,65.9506178 316.149178,66.2215824 316.271472,66.5260417 C316.393767,66.8305009 316.454914,67.1471338 316.454914,67.4759498 C316.442684,67.9143711 316.363194,68.3345185 316.21644,68.7364047 C316.069686,69.1382909 315.852616,69.4884138 315.565223,69.7867839 C315.27783,70.0851539 314.929295,70.3226286 314.519607,70.4992149 C314.109919,70.6758013 313.642148,70.7640931 313.11628,70.7640931 Z M323.128269,68.5354626 L320.853595,67.7499617 L321.165445,66.2337623 L327.512519,65.4665288 L328.503103,65.9597503 L324.540768,95.6078431 L319.551161,95.6078431 L323.128269,68.5354626 Z M326.173397,84.4646906 L326.246773,84.4464231 L326.173397,84.4464231 C326.699265,84.1054287 327.203724,83.7796622 327.686789,83.4691138 C328.169854,83.1585654 328.646797,82.8175762 329.117632,82.4461359 C329.588467,82.0746956 330.056238,81.6545481 330.520959,81.1856809 C330.98568,80.7168137 331.468737,80.1535725 331.970146,79.4959406 C332.337031,79.0088058 332.584675,78.5308119 332.713084,78.0619447 C332.841494,77.5930775 332.924042,77.1089945 332.96073,76.6096814 C332.985189,76.1834384 333.092196,75.8272265 333.281753,75.5410348 C333.47131,75.2548431 333.697552,75.0234575 333.960486,74.8468712 C334.22342,74.6702848 334.513866,74.5454584 334.831833,74.4723882 C335.1498,74.399318 335.449418,74.3627834 335.730696,74.3627834 C336.403318,74.3627834 336.935293,74.566768 337.326636,74.9747434 C337.71798,75.3827188 337.919764,75.8789799 337.931993,76.4635417 C337.931993,76.9750332 337.849445,77.4347598 337.684347,77.8427351 C337.519249,78.2507105 337.314408,78.6312789 337.069818,78.9844516 C336.690704,79.4959431 336.235163,79.9891597 335.70318,80.4641161 C335.171197,80.9390725 334.605591,81.3866209 334.006346,81.8067747 C333.407101,82.2269284 332.801751,82.6135859 332.190276,82.9667586 C331.578802,83.3199313 331.004024,83.6304751 330.465927,83.8983992 L334.519982,91.0775123 C334.82572,91.6133605 335.16814,92.0304634 335.547254,92.3288335 C335.926369,92.6272035 336.25656,92.7763863 336.537838,92.7763863 C336.770199,92.7763863 337.085103,92.6972281 337.482562,92.5389093 C337.88002,92.3805905 338.262186,92.1431159 338.629071,91.8264782 L339.252772,93.0503983 C339.081559,93.2939657 338.815571,93.5831976 338.454801,93.9181028 C338.094031,94.253008 337.669063,94.5726854 337.179883,94.8771446 C336.690704,95.1816039 336.1465,95.4373458 335.547254,95.6443781 C334.948009,95.8514103 334.3182,95.9549249 333.657808,95.9549249 C332.838432,95.9549249 332.16582,95.7783412 331.639952,95.4251685 C331.114084,95.0719958 330.692173,94.5544228 330.374206,93.8724341 L326.173397,84.4646906 Z M341.982136,93.3792126 C342.067742,92.6485104 342.18392,91.7625473 342.330674,90.7212967 C342.477428,89.6800461 342.645581,88.5048511 342.835138,87.1956763 C343.024695,85.8865016 343.229536,84.45252 343.449667,82.8936887 C343.669798,81.3348574 343.902155,79.678624 344.146745,77.9249387 L341.78035,76.8654259 L342.073856,75.3126915 L348.622716,74.3627834 L349.594955,74.8012025 L347.155184,91.7899433 C347.02066,92.7154994 347.197985,93.1782705 347.687164,93.1782705 C347.895066,93.1782705 348.133537,93.1052014 348.402586,92.959061 C348.671635,92.8129205 349.038514,92.5450004 349.503235,92.1552926 L350.035215,93.3426777 C349.937379,93.4766398 349.750882,93.689758 349.475718,93.9820389 C349.200555,94.2743198 348.848962,94.5665963 348.42093,94.8588771 C347.992898,95.151158 347.494554,95.4099445 346.925882,95.6352443 C346.357211,95.8605442 345.724344,95.9731924 345.027264,95.9731924 C343.963298,95.9731924 343.165336,95.7509405 342.633353,95.30643 C342.10137,94.8619195 341.8843,94.2195201 341.982136,93.3792126 Z M347.540411,70.7640931 C347.185756,70.7640931 346.852507,70.691024 346.540655,70.5448836 C346.228803,70.3987431 345.953644,70.2038921 345.715169,69.9603248 C345.476694,69.7167574 345.290197,69.4366591 345.155673,69.1200214 C345.021148,68.8033838 344.953887,68.4745728 344.953887,68.1335784 C344.966116,67.6951571 345.054779,67.2810988 345.219877,66.8913909 C345.384975,66.5016831 345.60816,66.1637384 345.889438,65.8775467 C346.170717,65.591355 346.503965,65.363014 346.889194,65.1925169 C347.274423,65.0220197 347.693277,64.9367724 348.145768,64.9367724 C348.5738,64.9367724 348.955966,65.0067969 349.292277,65.1468482 C349.628588,65.2868994 349.915977,65.4756613 350.154452,65.7131396 C350.392927,65.9506178 350.573309,66.2215824 350.695604,66.5260417 C350.817899,66.8305009 350.879046,67.1471338 350.879046,67.4759498 C350.866816,67.9143711 350.787326,68.3345185 350.640572,68.7364047 C350.493818,69.1382909 350.276748,69.4884138 349.989355,69.7867839 C349.701961,70.0851539 349.353426,70.3226286 348.943738,70.4992149 C348.53405,70.6758013 348.066279,70.7640931 347.540411,70.7640931 Z M356.818635,78.016276 L354.929188,76.9384957 L355.241038,75.3126915 L361.037788,74.3627834 L361.954995,74.8012025 L361.643145,78.5825674 C362.083406,77.9736489 362.572579,77.4104078 363.110676,76.8928271 C363.648774,76.3752463 364.220494,75.9307425 364.825854,75.5593022 C365.431213,75.187862 366.067137,74.8955855 366.733645,74.682464 C367.400152,74.4693425 368.081936,74.3627834 368.779017,74.3627834 C369.451639,74.3627834 370.066161,74.4571643 370.622603,74.6459291 C371.179045,74.8346938 371.659045,75.1452376 372.062619,75.5775697 C372.466192,76.0099018 372.778039,76.5792321 372.99817,77.2855775 C373.218301,77.991923 373.328365,78.8565742 373.328365,79.8795573 C373.328365,80.23273 373.297791,80.6741893 373.236644,81.2039484 C373.175496,81.7337075 373.099063,82.2969486 373.007342,82.8936887 C372.915621,83.4904288 372.814729,84.0932491 372.704664,84.7021676 C372.594598,85.3110861 372.496764,85.8712827 372.411157,86.3827742 C372.33778,86.8455523 372.255233,87.3265906 372.163511,87.8259038 C372.07179,88.325217 371.989242,88.8184335 371.915865,89.3055683 C371.842488,89.7927031 371.778285,90.2646079 371.723252,90.7212967 C371.668219,91.1779856 371.634589,91.6072667 371.622359,92.0091529 C371.61013,92.4475742 371.65599,92.7520289 371.75994,92.922526 C371.863891,93.0930232 372.007585,93.1782705 372.191028,93.1782705 C372.37447,93.1782705 372.582368,93.1204241 372.814728,93.0047296 C373.047089,92.8890351 373.383395,92.6667832 373.823656,92.3379672 L374.355637,93.5070849 C374.27003,93.6288686 374.095763,93.8267641 373.832828,94.1007774 C373.569894,94.3747907 373.227474,94.6518445 372.805556,94.931947 C372.383639,95.2120495 371.891409,95.4586578 371.328853,95.6717793 C370.766296,95.8849007 370.142602,95.9914599 369.45775,95.9914599 C368.834046,95.9914599 368.320415,95.9183907 367.916842,95.7722503 C367.513269,95.6261099 367.195307,95.4251698 366.962946,95.169424 C366.730586,94.9136783 366.571605,94.6153127 366.485999,94.2743183 C366.400392,93.933324 366.363704,93.5679784 366.375934,93.1782705 C366.388163,92.8494545 366.421794,92.4627971 366.476827,92.0182866 C366.531859,91.5737761 366.599121,91.1049159 366.678612,90.6116919 C366.758104,90.118468 366.846766,89.6069841 366.944602,89.077225 C367.042438,88.5474659 367.140273,88.0268485 367.238109,87.5153569 C367.323715,87.0038654 367.42155,86.4467133 367.531615,85.843884 C367.64168,85.2410547 367.742572,84.6230117 367.834293,83.9897365 C367.926015,83.3564613 368.002448,82.7262401 368.063595,82.0990541 C368.124743,81.471868 368.155316,80.8842705 368.155316,80.3362439 C368.155316,79.7638605 368.115571,79.3010894 368.036079,78.9479167 C367.956587,78.5947439 367.846523,78.3237793 367.705884,78.1350146 C367.565245,77.9462498 367.38792,77.8183789 367.173904,77.7513978 C366.959888,77.6844168 366.712245,77.6509268 366.430966,77.6509268 C366.027393,77.6509268 365.59631,77.763575 365.137704,77.9888748 C364.679098,78.2141747 364.217442,78.5216739 363.752721,78.9113817 C363.288001,79.3010896 362.838574,79.7608161 362.404427,80.2905752 C361.97028,80.8203343 361.56977,81.3896645 361.202885,81.998583 L359.331782,95.6078431 L354.433896,95.6078431 L356.818635,78.016276 Z" id="By-Marc-Chaikin" fill="#245C03"></path>
                </g>
            </g>
        </g>
    </g>
</svg>