<?xml version="1.0" encoding="UTF-8"?>
<svg width="48px" height="24px" viewBox="0 0 48 24" version="1.1" xmlns="http://www.w3.org/2000/svg" xmlns:xlink="http://www.w3.org/1999/xlink">
    <!-- Generator: Sketch 43.2 (39069) - http://www.bohemiancoding.com/sketch -->
    <title>Group 17</title>
    <desc>Created with Sketch.</desc>
    <defs>
        <linearGradient x1="50%" y1="0%" x2="50%" y2="100%" id="linearGradient-1">
            <stop stop-color="#FFFFFF" offset="0%"></stop>
            <stop stop-color="#000000" offset="100%"></stop>
        </linearGradient>
        <linearGradient x1="100%" y1="99.9999642%" x2="0%" y2="99.9999642%" id="linearGradient-2">
            <stop stop-color="#24A300" offset="0%"></stop>
            <stop stop-color="#61C600" offset="15.784275%"></stop>
            <stop stop-color="#FFBE00" offset="49.7297588%"></stop>
            <stop stop-color="#EF5A00" offset="80.5537501%"></stop>
            <stop stop-color="#E00000" offset="100%"></stop>
        </linearGradient>
        <path d="M23.841074,3.30434783e-05 C10.6738415,3.30434783e-05 0,10.4764678 0,23.3991113 L9.42108584,23.3991113 C9.42108584,15.583007 15.8767668,9.24625913 23.841074,9.24625913 C31.8050444,9.24625913 38.3169496,15.583007 38.3169496,23.3991113 L47.6821479,23.3991113 C47.6821479,10.4764678 37.0076331,3.30434783e-05 23.841074,3.30434783e-05 Z" id="path-3"></path>
        <linearGradient x1="50%" y1="-26.3277395%" x2="50%" y2="154.299402%" id="linearGradient-4">
            <stop stop-color="#FFFFFF" stop-opacity="0.5" offset="0%"></stop>
            <stop stop-color="#000000" stop-opacity="0.5" offset="100%"></stop>
        </linearGradient>
        <path d="M4.91170429,23.3991113 L9.42108584,23.3991113 C9.42108584,17.0451809 15.845793,9.32919826 23.841074,9.32919826 L23.841074,9.32919826 C31.8356815,9.32919826 38.3169496,17.0451809 38.3169496,23.3991113 L38.3169496,23.3991113 L42.7701069,23.3991113 C42.7701069,12.8935983 34.2954054,4.78307652 23.841074,4.78307652 L23.841074,4.78307652 C13.3867425,4.78307652 4.91170429,12.8935983 4.91170429,23.3991113" id="path-5"></path>
    </defs>
    <g id="Desktop" stroke="none" stroke-width="1" fill="none" fill-rule="evenodd">
        <g id="PSP-ChaikinInsights-Grid-Hover" transform="translate(-13.000000, -8.000000)">
            <g id="Arc-logo" transform="translate(13.000000, 8.000000)">
                <g id="Group-17">
                    <g id="Fill-1">
                        <use fill="url(#linearGradient-1)" xlink:href="#path-3"></use>
                        <use fill="url(#linearGradient-2)" xlink:href="#path-3"></use>
                    </g>
                    <g id="Fill-3">
                        <use fill="url(#linearGradient-2)" xlink:href="#path-5"></use>
                        <use fill="url(#linearGradient-4)" style="mix-blend-mode: multiply;" xlink:href="#path-5"></use>
                    </g>
                </g>
            </g>
        </g>
    </g>
</svg>