<?xml version="1.0" encoding="UTF-8"?>
<svg width="44px" height="17px" viewBox="0 0 44 17" version="1.1" xmlns="http://www.w3.org/2000/svg" xmlns:xlink="http://www.w3.org/1999/xlink">
    <!-- Generator: Sketch 44 (41411) - http://www.bohemiancoding.com/sketch -->
    <title>SPY</title>
    <desc>Created with Sketch.</desc>
    <defs></defs>
    <g id="Chaikin-Insights" stroke="none" stroke-width="1" fill="none" fill-rule="evenodd">
        <g id="PSP-ChaikinInsights-Header_SPY" transform="translate(-15.000000, -71.000000)" fill="#FFFFFF">
            <path d="M26.9667969,82.2304688 C26.9667969,83.204432 26.719729,84.0691694 26.2255859,84.824707 C25.7314428,85.5802447 25.0188849,86.1674784 24.0878906,86.5864258 C23.1568964,87.0053732 22.0647849,87.2148438 20.8115234,87.2148438 C19.7659453,87.2148438 18.8886754,87.1414395 18.1796875,86.9946289 C17.4706996,86.8478183 16.7330767,86.5917987 15.9667969,86.2265625 L15.9667969,82.4453125 C16.7760457,82.8606792 17.6175087,83.1847319 18.4912109,83.4174805 C19.3649132,83.650229 20.1669885,83.7666016 20.8974609,83.7666016 C21.5276724,83.7666016 21.9895819,83.6573904 22.2832031,83.4389648 C22.5768244,83.2205393 22.7236328,82.9394548 22.7236328,82.5957031 C22.7236328,82.3808583 22.6645514,82.1928719 22.5463867,82.0317383 C22.4282221,81.8706047 22.2384453,81.7076831 21.9770508,81.5429688 C21.7156562,81.3782544 21.0192114,81.0416692 19.8876953,80.5332031 C18.8636017,80.067706 18.0955429,79.6165386 17.5834961,79.1796875 C17.0714493,78.7428364 16.6918958,78.2415393 16.4448242,77.6757812 C16.1977527,77.1100232 16.0742188,76.4404336 16.0742188,75.6669922 C16.0742188,74.2203704 16.6005807,73.092452 17.6533203,72.2832031 C18.70606,71.4739543 20.1526601,71.0693359 21.9931641,71.0693359 C23.6188232,71.0693359 25.2766843,71.4453087 26.9667969,72.1972656 L25.6669922,75.4736328 C24.1988859,74.8004524 22.9313204,74.4638672 21.8642578,74.4638672 C21.3128228,74.4638672 20.9117851,74.5605459 20.6611328,74.7539062 C20.4104805,74.9472666 20.2851562,75.187173 20.2851562,75.4736328 C20.2851562,75.7815771 20.4444971,76.0572904 20.7631836,76.3007812 C21.0818701,76.5442721 21.9466075,76.988278 23.3574219,77.6328125 C24.7109443,78.2415395 25.6508763,78.895016 26.1772461,79.5932617 C26.7036159,80.2915074 26.9667969,81.1705676 26.9667969,82.2304688 Z M41.7719922,76.2900391 C41.7719922,78.0446051 41.254582,79.3998976 40.2197461,80.355957 C39.1849102,81.3120165 37.7150356,81.7900391 35.8100781,81.7900391 L34.6176953,81.7900391 L34.6176953,87 L30.3745313,87 L30.3745313,71.2949219 L35.8100781,71.2949219 C37.793812,71.2949219 39.2833805,71.7281858 40.2788281,72.5947266 C41.2742758,73.4612674 41.7719922,74.6930259 41.7719922,76.2900391 Z M34.6176953,78.3310547 L35.3911328,78.3310547 C36.0285058,78.3310547 36.5351739,78.15202 36.9111524,77.7939453 C37.2871308,77.4358706 37.4751172,76.9417349 37.4751172,76.3115234 C37.4751172,75.2516223 36.8878835,74.7216797 35.7133985,74.7216797 L34.6176953,74.7216797 L34.6176953,78.3310547 Z M50.8623438,77.1171875 L53.569375,71.2949219 L58.1670313,71.2949219 L53.0000391,80.8662109 L53.0000391,87 L48.7246485,87 L48.7246485,80.9951172 L43.5576563,71.2949219 L48.1767969,71.2949219 L50.8623438,77.1171875 Z" id="SPY"></path>
        </g>
    </g>
</svg>